<svg viewBox="0 0 800 800" xmlns="http://www.w3.org/2000/svg"><path d="M579.9541006556909,292.6890034319327 L583.7340278397896,294.5659373929243 M583.7340278397896,294.5659373929243 L453.13104938301126,377.09187377392686 M453.13104938301126,377.09187377392686 L449.1251293142375,374.58675820083744 M449.1251293142375,374.58675820083744 L445.0642980646983,372.1317067014712 M445.0642980646983,372.1317067014712 L440.94986935406234,369.72692940986053 M440.94986935406234,369.72692940986053 L436.7831315421204,367.37263104822426 M436.7831315421204,367.37263104822426 L432.56539071870236,365.06900804217634 M432.56539071870236,365.06900804217634 L428.29790648427513,362.8162283296844 M428.29790648427513,362.8162283296844 L423.9819478620226,360.6144739956017 M423.9819478620226,360.6144739956017 L419.6187599332245,358.463898358203 M419.6187599332245,358.463898358203 L415.2095782341954,356.36465965981364 M415.2095782341954,356.36465965981364 L410.75564351091725,354.31689065742427 M410.75564351091725,354.31689065742427 L513.7969547357416,264.241066907897 M513.7969547357416,264.241066907897 L519.4507292716368,266.354904276122 M519.4507292716368,266.354904276122 L525.0810573635207,268.5149396232535 M525.0810573635207,268.5149396232535 L530.6873092349684,270.7213306215632 M530.6873092349684,270.7213306215632 L536.2688550789802,272.9742324181357 M536.2688550789802,272.9742324181357 L541.8250920958734,275.2737688724052 M541.8250920958734,275.2737688724052 L547.355364590066,277.62009827622734 M547.355364590066,277.62009827622734 L552.8590073670042,280.0133719318338 M552.8590073670042,280.0133719318338 L558.3353741479104,282.45372631238564 M558.3353741479104,282.45372631238564 L563.7837500993,284.9413256008038 M563.7837500993,284.9413256008038 L569.2034867936027,287.47629926881746 M569.2034867936027,287.47629926881746 L574.5938405522649,290.05881312412185 M574.5938405522649,290.05881312412185 L579.9541006556909,292.6890034319327 M579.9541006556909,292.6890034319327 L580.1459151884903,291.25221062992273 M580.1459151884903,291.25221062992273 L583.9286568308972,293.1275934874197 M583.9286568308972,293.1275934874197 L583.7340278397896,294.5659373929243 M583.9286568308972,293.1275934874197 L453.25049272388605,375.5899353593418 M453.13104938301126,377.09187377392686 L453.25049272388605,375.5899353593418 M513.7969547357416,264.241066907897 L513.9417042881248,262.8283538744582 M513.9417042881248,262.8283538744582 L519.5993538938654,264.94036518423536 M519.5993538938654,264.94036518423536 L525.2335655266311,267.0985406671924 M525.2335655266311,267.0985406671924 L530.8437094545635,269.3030382563605 M530.8437094545635,269.3030382563605 L536.429155909065,271.5540133720858 M536.429155909065,271.5540133720858 L541.9893021346396,273.8515901840938 M541.9893021346396,273.8515901840938 L547.5234924458072,276.19592727546876 M547.5234924458072,276.19592727546876 L553.0310616442838,278.58717625620625 M553.0310616442838,278.58717625620625 L558.5113634500196,281.0254739303473 M558.5113634500196,281.0254739303473 L563.9636829822541,283.5109847990161 M563.9636829822541,283.5109847990161 L569.3873717946711,286.04383869211017 M569.3873717946711,286.04383869211017 L574.7816861278252,288.6242017559206 M574.7816861278252,288.6242017559206 L580.1459151884903,291.25221062992273 M410.843429704875,352.8316029104337 L513.9417042881248,262.8283538744582 M453.25049272388605,375.5899353593418 L449.2414865122473,373.08661768776136 M449.2414865122473,373.08661768776136 L445.177549446082,370.63333621123667 M445.177549446082,370.63333621123667 L441.0599960461193,368.2303004236336 M441.0599960461193,368.2303004236336 L436.8901154335997,365.8777144182797 M436.8901154335997,365.8777144182797 L432.66921445042783,363.5757740055071 M432.66921445042783,363.5757740055071 L428.3985533937256,361.3246465367104 M428.3985533937256,361.3246465367104 L424.0794019716309,359.1245135079669 M424.0794019716309,359.1245135079669 L419.71300591189447,356.9755276782704 M419.71300591189447,356.9755276782704 L415.3006013726314,354.87784673563436 M415.3006013726314,354.87784673563436 L410.843429704875,352.8316029104337 M410.75564351091725,354.31689065742427 L410.843429704875,352.8316029104337" stroke="black"  stroke-width="4"  fill="red"/>
<path d="M167.4534641042208,491.78780364290213 L162.6130930995667,494.54877945794874 M162.6130930995667,494.54877945794874 L157.82525812453736,497.376201020729 M157.82525812453736,497.376201020729 L153.09133605724543,500.2699627945809 M153.09133605724543,500.2699627945809 L148.4127000329039,503.22995317373363 M148.4127000329039,503.22995317373363 L143.7907477613149,506.2560536413141 M143.7907477613149,506.2560536413141 L139.22688931763582,509.3481288628002 M139.22688931763582,509.3481288628002 L134.72258464519786,512.5060119213919 M134.72258464519786,512.5060119213919 L130.27926320540485,515.7295644304929 M130.27926320540485,515.7295644304929 L125.89840778675006,519.0185962357876 M125.89840778675006,519.0185962357876 L121.58151407597984,522.3729140851265 M121.58151407597984,522.3729140851265 L-55.680748754910894,434.75072452304266 M-55.680748754910894,434.75072452304266 L-49.60915703112511,430.7633284951182 M-49.60915703112511,430.7633284951182 L-43.49699217532634,426.8477195974888 M-43.49699217532634,426.8477195974888 L-37.345269442434244,423.0035095650747 M-37.345269442434244,423.0035095650747 L-31.155007820926016,419.23034413849035 M-31.155007820926016,419.23034413849035 L-24.927190726751405,415.52785644638755 M-24.927190726751405,415.52785644638755 L-18.66276080255932,411.89569085090517 M-18.66276080255932,411.89569085090517 L-12.362689444983857,408.3334728457847 M-12.362689444983857,408.3334728457847 L-6.027861536995147,404.8408553471253 M-6.027861536995147,404.8408553471253 L0.3408332353617425,401.4174735019354 M0.3408332353617425,401.4174735019354 L6.742491853524314,398.06297549098286 M6.742491853524314,398.06297549098286 L13.176292186329079,394.7770004912011 M13.176292186329079,394.7770004912011 L19.641408010893088,391.55920881758703 M19.641408010893088,391.55920881758703 L167.4534641042208,491.78780364290213 M19.641408010893088,391.55920881758703 L19.45421285658722,390.04704967259426 M19.45421285658722,390.04704967259426 L167.36372232952834,490.2124379440554 M167.4534641042208,491.78780364290213 L167.36372232952834,490.2124379440554 M-55.93119112305823,433.20969864936865 L-49.8542301095419,429.22486419620054 M-49.8542301095419,429.22486419620054 L-43.73671374810493,425.31179121961 M-43.73671374810493,425.31179121961 L-37.57965739790586,421.47009059351 M-37.57965739790586,421.47009059351 L-31.38408014612594,417.69940720326684 M-31.38408014612594,417.69940720326684 L-25.150965463639523,413.9993733578537 M-25.150965463639523,413.9993733578537 L-18.881256006489366,410.3696326192944 M-18.881256006489366,410.3696326192944 L-12.57592318829876,406.80980972048195 M-12.57592318829876,406.80980972048195 L-6.235851839079544,403.3195568245906 M-6.235851839079544,403.3195568245906 L0.1380684200109954,399.89850836356595 M0.1380684200109954,399.89850836356595 L6.544934634684807,396.5463118198482 M6.544934634684807,396.5463118198482 L12.983924808514189,393.26260570342475 M12.983924808514189,393.26260570342475 L19.45421285658722,390.04704967259426 M121.4528394126691,520.7809066644448 L-55.93119112305823,433.20969864936865 M167.36372232952834,490.2124379440554 L162.51936800342452,492.9718606707485 M162.51936800342452,492.9718606707485 L157.72756754157137,495.79770221867375 M157.72756754157137,495.79770221867375 L152.9896985723209,498.6898578551171 M152.9896985723209,498.6898578551171 L148.30713500469545,501.6482167974656 M148.30713500469545,501.6482167974656 L143.6812753688642,504.67266137145737 M143.6812753688642,504.67266137145737 L139.1135305991333,507.7630571097584 M139.1135305991333,507.7630571097584 L134.6053615688336,510.9192379948066 M134.6053615688336,510.9192379948066 L130.15819867195728,514.1410665384817 M130.15819867195728,514.1410665384817 L125.77352570701999,517.4283535270823 M125.77352570701999,517.4283535270823 L121.4528394126691,520.7809066644448 M-55.680748754910894,434.75072452304266 L-55.93119112305823,433.20969864936865 M121.58151407597984,522.3729140851265 L121.4528394126691,520.7809066644448" stroke="black"  stroke-width="4"  fill="red"/>
<path d="M908.4746150594619,443.2625769557349 L788.3748993774658,553.9168242016499 M788.3748993774658,553.9168242016499 L780.1048786328081,549.724983717855 M780.1048786328081,549.724983717855 L771.9582594982411,545.4977316728464 M771.9582594982411,545.4977316728464 L763.9368323903881,541.2370059217772 M763.9368323903881,541.2370059217772 L756.042202182879,536.9447010315116 M756.042202182879,536.9447010315116 L748.2759456839476,532.6227338426472 M748.2759456839476,532.6227338426472 L740.6395148440984,528.2729757017695 M740.6395148440984,528.2729757017695 L733.1342994823947,523.897298686877 M733.1342994823947,523.897298686877 L725.7615065493878,519.4975325488674 M725.7615065493878,519.4975325488674 L718.5223409370147,515.0755056566954 M718.5223409370147,515.0755056566954 L711.4179090256401,510.6330298359924 M711.4179090256401,510.6330298359924 L704.4491175868766,506.1718454178656 M704.4491175868766,506.1718454178656 L697.6168944608522,501.693720459425 M697.6168944608522,501.693720459425 L853.9722373276858,416.92783273230896 M853.9722373276858,416.92783273230896 L859.0407419453205,419.6983484383624 M859.0407419453205,419.6983484383624 L864.1988354191119,422.44223793837887 M864.1988354191119,422.44223793837887 L869.44492346601,425.1581088756682 M869.44492346601,425.1581088756682 L874.777187022304,427.84447417956386 M874.777187022304,427.84447417956386 L880.1939060188741,430.49992416960487 M880.1939060188741,430.49992416960487 L885.6930974052453,433.1229868810242 M885.6930974052453,433.1229868810242 L891.2728433295595,435.71220716987875 M891.2728433295595,435.71220716987875 L896.9310995647337,438.2661801221676 M896.9310995647337,438.2661801221676 L902.6657483721469,440.78345688485354 M902.6657483721469,440.78345688485354 L908.4746150594619,443.2625769557349 M908.4746150594619,443.2625769557349 L908.9409189239175,441.716153271736 M854.3879573270642,415.39841966922506 L859.4612085175111,418.16710262106136 M859.4612085175111,418.16710262106136 L864.6241224592,420.90918698633624 M864.6241224592,420.90918698633624 L869.8751033745316,423.6232810270064 M869.8751033745316,423.6232810270064 L875.2123304623575,426.3078983355195 M875.2123304623575,426.3078983355195 L880.6340819757276,428.961629826785 M880.6340819757276,428.961629826785 L886.1383729246041,431.5830041552621 M886.1383729246041,431.5830041552621 L891.7232835268538,434.17056676910175 M891.7232835268538,434.17056676910175 L897.3867675063389,436.7229132989758 M897.3867675063389,436.7229132989758 L903.1267049568401,439.23859545009554 M903.1267049568401,439.23859545009554 L908.9409189239175,441.716153271736 M853.9722373276858,416.92783273230896 L854.3879573270642,415.39841966922506 M697.942079430061,500.11282935100553 L854.3879573270642,415.39841966922506 M788.7887283177813,552.308949589391 L780.5105568309953,548.1191418446149 M780.5105568309953,548.1191418446149 L772.3559217493685,543.8939632512347 M772.3559217493685,543.8939632512347 L764.326615094164,539.635351291433 M764.326615094164,539.635351291433 L756.4242431019823,535.3452001418705 M756.4242431019823,535.3452001418705 L748.6503838542695,531.0254262026544 M748.6503838542695,531.0254262026544 L741.006490387963,526.6779003631613 M741.006490387963,526.6779003631613 L733.4939534899463,522.3044942039259 M733.4939534899463,522.3044942039259 L726.1139808535111,517.9070369601645 M726.1139808535111,517.9070369601645 L718.8677780485341,513.487356445707 M718.8677780485341,513.487356445707 L711.7564519895135,509.047263899275 M711.7564519895135,509.047263899275 L704.7809097467712,504.58849906322007 M704.7809097467712,504.58849906322007 L697.942079430061,500.11282935100553 M908.9409189239175,441.716153271736 L788.7887283177813,552.308949589391 M697.6168944608522,501.693720459425 L697.942079430061,500.11282935100553 M788.3748993774658,553.9168242016499 L788.7887283177813,552.308949589391" stroke="black"  stroke-width="4"  fill="red"/>
<path d="M251.53216072498543,451.9761929146769 L64.60513294047826,564.8707160226611 M322.5519951335678,497.98778833145855 L316.92341729658074,493.708728428226 M316.92341729658074,493.708728428226 L311.23876595394245,489.5122464796837 M311.23876595394245,489.5122464796837 L305.4991153287977,485.3978205092749 M305.4991153287977,485.3978205092749 L299.70552595451153,481.3649233546547 M299.70552595451153,481.3649233546547 L293.8589979949114,477.4130449209164 M293.8589979949114,477.4130449209164 L287.9605537385493,473.5416667587529 M287.9605537385493,473.5416667587529 L282.0111431412986,469.75028833347505 M282.0111431412986,469.75028833347505 L276.0117396838576,466.0384102914776 M276.0117396838576,466.0384102914776 L269.9632462363429,462.40554338840775 M269.9632462363429,462.40554338840775 L263.8665736550697,458.8512067118603 M263.8665736550697,458.8512067118603 L257.7225912029801,455.3749136085775 M257.7225912029801,455.3749136085775 L251.53216072498543,451.9761929146769 M108.81982357216509,596.5446019542494 L322.5519951335678,497.98778833145855 M64.60513294047826,564.8707160226611 L69.34590753944337,567.6880455841438 M69.34590753944337,567.6880455841438 L74.0193845956602,570.5831883689845 M74.0193845956602,570.5831883689845 L78.62419389485916,573.5561616551126 M78.62419389485916,573.5561616551126 L83.15902170172728,576.6069422588405 M83.15902170172728,576.6069422588405 L87.62246583935394,579.7355356984477 M87.62246583935394,579.7355356984477 L92.01314320149856,582.9419226100661 M92.01314320149856,582.9419226100661 L96.32967918475987,586.2260496145681 M96.32967918475987,586.2260496145681 L100.57058905453835,589.5879202424037 M100.57058905453835,589.5879202424037 L104.73445412285446,593.0274558761871 M104.73445412285446,593.0274558761871 L108.81982357216509,596.5446019542494 M64.60513294047826,564.8707160226611 L64.42486110493837,563.2576393044528 M251.50861711894652,450.42434273086707 L64.42486110493837,563.2576393044528 M251.53216072498543,451.9761929146769 L251.50861711894652,450.42434273086707 M64.42486110493837,563.2576393044528 L69.16915271101465,566.0736565531155 M69.16915271101465,566.0736565531155 L73.8460978684646,568.9674617193596 M73.8460978684646,568.9674617193596 L78.45432555654969,571.9390729673938 M78.45432555654969,571.9390729673938 L82.99252125425306,574.988468042425 M82.99252125425306,574.988468042425 L87.45928188893572,578.1156534024373 M87.45928188893572,578.1156534024373 L91.85322344427198,581.3206106584418 M91.85322344427198,581.3206106584418 L96.1729703837961,584.6032874448434 M96.1729703837961,584.6032874448434 L100.417036904876,587.9636883039544 M100.417036904876,587.9636883039544 L104.5840032805803,591.4017356896718 M104.5840032805803,591.4017356896718 L108.67241758699862,594.9173761239082 M108.67241758699862,594.9173761239082 L322.5830065032987,496.4089491542737 M322.5830065032987,496.4089491542737 L316.9499328096281,492.13228111449826 M316.9499328096281,492.13228111449826 L311.2607755529698,487.9381683941555 M311.2607755529698,487.9381683941555 L305.51660931389404,483.82608794034746 M305.51660931389404,483.82608794034746 L299.71849495074036,479.79551155560375 M299.71849495074036,479.79551155560375 L293.8674328852219,475.8459281376953 M293.8674328852219,475.8459281376953 L287.96444566094203,471.97681827175177 M287.96444566094203,471.97681827175177 L282.01048341451326,468.18768048335215 M282.01048341451326,468.18768048335215 L276.00651980728395,464.47801451401347 M276.00651980728395,464.47801451401347 L269.95345781885834,460.84733024341597 M269.95345781885834,460.84733024341597 L263.8522084045965,457.29514591241644 M263.8522084045965,457.29514591241644 L257.7036408792905,453.8209740581657 M257.7036408792905,453.8209740581657 L251.50861711894652,450.42434273086707 M322.5519951335678,497.98778833145855 L322.5830065032987,496.4089491542737 M108.81982357216509,596.5446019542494 L108.67241758699862,594.9173761239082" stroke="black"  stroke-width="4"  fill="red"/>
<path d="M261.85549244646927,273.81648132840314 L264.50144683484865,276.079186539242 M264.50144683484865,276.079186539242 L267.2406377151573,278.32632412234204 M267.2406377151573,278.32632412234204 L270.0725559491012,280.55683228917763 M270.0725559491012,280.55683228917763 L272.9966402010096,282.7696468507679 M272.9966402010096,282.7696468507679 L276.0122760216612,284.96368985419434 M276.0122760216612,284.96368985419434 L279.11877182863986,287.1378878374483 M279.11877182863986,287.1378878374483 L282.31540350910376,289.29116053944205 M282.31540350910376,289.29116053944205 L285.6013736393583,291.4224304397959 M285.6013736393583,291.4224304397959 L288.9758276469549,293.5306143700792 M288.9758276469549,293.5306143700792 L292.4378471803095,295.6146270877685 M292.4378471803095,295.6146270877685 L162.19812170167194,393.4734318377489 M162.19812170167194,393.4734318377489 L156.8040091528847,390.3186071023736 M156.8040091528847,390.3186071023736 L151.52779981705027,387.1335200665895 M151.52779981705027,387.1335200665895 L146.37032500829366,383.9195566021407 M146.37032500829366,383.9195566021407 L141.3323274333331,380.6781036396248 M141.3323274333331,380.6781036396248 L136.4144577820897,377.4105373626984 M136.4144577820897,377.4105373626984 L131.61732612985196,374.1182224886398 M131.61732612985196,374.1182224886398 L126.94143894248464,370.8025257047195 M126.94143894248464,370.8025257047195 L122.38727243144359,367.4647900204626 M122.38727243144359,367.4647900204626 L117.95520332713375,364.1063519150169 M117.95520332713375,364.1063519150169 L113.64554761256102,360.7285405357915 M113.64554761256102,360.7285405357915 L109.45856421710221,357.3326631696467 M109.45856421710221,357.3326631696467 L105.39444766756492,353.92002204909153 M105.39444766756492,353.92002204909153 L261.85549244646927,273.81648132840314 M105.39444766756492,353.92002204909153 L105.27265781584617,352.43503053110015 M105.27265781584617,352.43503053110015 L261.8421828529933,272.39554371473577 M261.85549244646927,273.81648132840314 L261.8421828529933,272.39554371473577 M162.11215059830982,391.95994108751694 L156.7144586396538,388.8073135544107 M156.7144586396538,388.8073135544107 L151.43477856363393,385.62445814974905 M151.43477856363393,385.62445814974905 L146.27394171709545,382.41276014778015 M146.27394171709545,382.41276014778015 L141.23269073719268,379.1736058607021 M141.23269073719268,379.1736058607021 L136.31167614263148,375.9083708407785 M136.31167614263148,375.9083708407785 L131.51150777400846,372.6184191611618 M131.51150777400846,372.6184191611618 L126.8326917553137,369.30511684231993 M126.8326917553137,369.30511684231993 L122.27570390477774,365.9698062225123 M122.27570390477774,365.9698062225123 L117.8409204600946,362.61382309270164 M117.8409204600946,362.61382309270164 L113.52865684113993,359.23849589554993 M113.52865684113993,359.23849589554993 L109.33917134977094,355.8451312072023 M109.33917134977094,355.8451312072023 L105.27265781584617,352.43503053110015 M292.4440395720661,294.1754185704867 L162.11215059830982,391.95994108751694 M261.8421828529933,272.39554371473577 L264.4897850678899,274.65632313517557 M264.4897850678899,274.65632313517557 L267.2306911777775,276.901554877095 M267.2306911777775,276.901554877095 L270.06439206019763,279.130177909053 M270.06439206019763,279.130177909053 L272.99032634499633,281.34112878969654 M272.99032634499633,281.34112878969654 L276.0078794966198,283.53333031400484 M276.0078794966198,283.53333031400484 L279.1163597779008,285.705709752954 M279.1163597779008,285.705709752954 L282.31504288045477,287.8571875732599 M282.31504288045477,287.8571875732599 L285.60313111711986,289.9866869694493 M285.60313111711986,289.9866869694493 L288.9797695934456,292.09312548237756 M288.9797695934456,292.09312548237756 L292.4440395720661,294.1754185704867 M162.19812170167194,393.4734318377489 L162.11215059830982,391.95994108751694 M292.4378471803095,295.6146270877685 L292.4440395720661,294.1754185704867" stroke="black"  stroke-width="4"  fill="red"/>
<path d="M22.13670254716493,390.3374223446246 L27.271858362713147,388.3985249516968 M27.271858362713147,388.3985249516968 L32.33786042667947,386.4172922240595 M32.33786042667947,386.4172922240595 L37.332672990192236,384.39489125825725 M37.332672990192236,384.39489125825725 L42.254333384056224,382.332537215741 M42.254333384056224,382.332537215741 L47.1009470553206,380.2314053359848 M47.1009470553206,380.2314053359848 L51.87068957242775,378.09273111332857 M51.87068957242775,378.09273111332857 L56.561798028180135,375.91773698452 M56.561798028180135,375.91773698452 L61.172549633134395,373.7076424076938 M61.172549633134395,373.7076424076938 L65.70135193366963,371.46370551552417 M65.70135193366963,371.46370551552417 L70.14661936231698,369.18715812254817 M70.14661936231698,369.18715812254817 L246.85773612879598,447.04333051699984 M246.85773612879598,447.04333051699984 L241.25850509106385,450.8900217898031 M241.25850509106385,450.8900217898031 L235.53048205482543,454.71258142467013 M235.53048205482543,454.71258142467013 L229.67438700143123,458.50941202362117 M229.67438700143123,458.50941202362117 L223.69102440531537,462.2789049578965 M223.69102440531537,462.2789049578965 L217.5812718205613,466.0194329600068 M217.5812718205613,466.0194329600068 L211.34610149382098,469.729355106404 M211.34610149382098,469.729355106404 L204.986564100171,473.40703263803744 M204.986564100171,473.40703263803744 L198.50380255816123,477.05079406071303 M198.50380255816123,477.05079406071303 L191.8990403359502,480.6589807038321 M191.8990403359502,480.6589807038321 L185.17358091921602,484.2299203847089 M185.17358091921602,484.2299203847089 L178.32885107942036,487.76191968486364 M178.32885107942036,487.76191968486364 L171.36631191747335,491.25331513137496 M171.36631191747335,491.25331513137496 L22.13670254716493,390.3374223446246 M171.36631191747335,491.25331513137496 L171.27965188124267,489.67825125488264 M171.27965188124267,489.67825125488264 L21.951492828530604,388.82611565362345 M22.13670254716493,390.3374223446246 L21.951492828530604,388.82611565362345 M246.83079902223062,445.49453999389976 L241.22727444085672,449.33884255218356 M241.22727444085672,449.33884255218356 L235.49483311396364,453.1590478449904 M235.49483311396364,453.1590478449904 L229.63419491943978,456.9535590802566 M229.63419491943978,456.9535590802566 L223.64616433760216,460.7207682123427 M223.64616433760216,460.7207682123427 L217.53161903190295,464.4590485387995 M217.53161903190295,464.4590485387995 L211.29153148058577,468.16675968022173 M211.29153148058577,468.16675968022173 L204.92695270190455,471.842263391801 M204.92695270190455,471.842263391801 L198.43902608378477,475.483888684793 M198.43902608378477,475.483888684793 L191.82897568114055,479.08997735881087 M191.82897568114055,479.08997735881087 L185.0981056868423,482.6588576823391 M185.0981056868423,482.6588576823391 L178.2478437363219,486.188836673909 M178.2478437363219,486.188836673909 L171.27965188124267,489.67825125488264 M69.99849155248671,367.69092108158713 L246.83079902223062,445.49453999389976 M21.951492828530604,388.82611565362345 L27.09062443991843,386.888575103149 M27.09062443991843,386.888575103149 L32.1605471923267,384.9087339798677 M32.1605471923267,384.9087339798677 L37.159223555213885,382.88775888866127 M37.159223555213885,382.88775888866127 L42.08468915956803,380.8268644595987 M42.08468915956803,380.8268644595987 L46.93504784497077,378.7272254223963 M46.93504784497077,378.7272254223963 L51.70847364963288,376.59007671159424 M51.70847364963288,376.59007671159424 L56.4032022186409,374.41664020524723 M56.4032022186409,374.41664020524723 L61.01750938006171,372.2081347962284 M61.01750938006171,372.2081347962284 L65.54980141940814,369.96581801471456 M65.54980141940814,369.96581801471456 L69.99849155248671,367.69092108158713 M246.85773612879598,447.04333051699984 L246.83079902223062,445.49453999389976 M70.14661936231698,369.18715812254817 L69.99849155248671,367.69092108158713" stroke="black"  stroke-width="4"  fill="red"/>
<path d="M513.511804747438,262.1266340787029 L381.3368627156292,339.3692760973626 M381.3368627156292,339.3692760973626 L375.3512861746444,336.68995909829215 M375.3512861746444,336.68995909829215 L369.4650419383233,333.9784933431729 M369.4650419383233,333.9784933431729 L363.6794176008835,331.2360873454283 M363.6794176008835,331.2360873454283 L357.99561903008566,328.46395542266754 M357.99561903008566,328.46395542266754 L352.41480607972375,325.6632977035783 M352.41480607972375,325.6632977035783 L346.9380395389078,322.83532728621014 M346.9380395389078,322.83532728621014 L341.5663433161847,319.9812393042644 M341.5663433161847,319.9812393042644 L336.3006494406517,317.10223064939515 M336.3006494406517,317.10223064939515 L331.14183630209806,314.1994939384138 M331.14183630209806,314.1994939384138 L326.0907175012093,311.27421050643295 M326.0907175012093,311.27421050643295 L321.14803608431214,308.32755848834046 M321.14803608431214,308.32755848834046 L316.31448001020925,305.3607074242875 M316.31448001020925,305.3607074242875 L472.152225153863,245.3632853498073 M472.152225153863,245.3632853498073 L475.97373923742066,247.16534778835512 M475.97373923742066,247.16534778835512 L479.86889451177126,248.94194551533167 M479.86889451177126,248.94194551533167 L483.8363545209969,250.69215052212462 M483.8363545209969,250.69215052212462 L487.87478853118887,252.41500767320764 M487.87478853118887,252.41500767320764 L491.9827501444597,254.10960002711664 M491.9827501444597,254.10960002711664 L496.1587779107123,255.77499547338505 M496.1587779107123,255.77499547338505 L500.4012985616629,257.41030369396236 M500.4012985616629,257.41030369396236 L504.7087433351754,259.0146094022311 M504.7087433351754,259.0146094022311 L509.07947009895975,260.58701784830777 M509.07947009895975,260.58701784830777 L513.511804747438,262.1266340787029 M513.511804747438,262.1266340787029 L513.6560526965638,260.7157535283318 M472.26850472738636,243.96714202961738 L476.09259688426414,245.76760239099588 M476.09259688426414,245.76760239099588 L479.9903814461444,247.5426248823826 M479.9903814461444,247.5426248823826 L483.96052107074536,249.29128213533147 M483.96052107074536,249.29128213533147 L488.001684114172,251.0126196724874 M488.001684114172,251.0126196724874 L492.11242317815754,252.70572117119252 M492.11242317815754,252.70572117119252 L496.2912757764899,254.36965514796378 M496.2912757764899,254.36965514796378 L500.536667516584,256.003531870296 M500.536667516584,256.003531870296 L504.8470284863961,257.60643665471247 M504.8470284863961,257.60643665471247 L509.2207153359044,259.1774753325743 M509.2207153359044,259.1774753325743 L513.6560526965638,260.7157535283318 M472.152225153863,245.3632853498073 L472.26850472738636,243.96714202961738 M316.33635085185733,303.9135331230189 L472.26850472738636,243.96714202961738 M381.4034791722362,337.89528929228834 L375.41368887166334,335.2180291806246 M375.41368887166334,335.2180291806246 L369.5233171239153,332.5086546574187 M369.5233171239153,332.5086546574187 L363.73365229288663,329.76837364322176 M363.73365229288663,329.76837364322176 L358.0459009212536,326.998399844607 M358.0459009212536,326.998399844607 L352.4612234670841,324.1999327761443 M352.4612234670841,324.1999327761443 L346.9806812202405,321.37418489708807 M346.9806812202405,321.37418489708807 L341.60529852788613,318.52235070146435 M341.60529852788613,318.52235070146435 L336.3360077612149,315.6456264245988 M336.3360077612149,315.6456264245988 L331.17368758215,312.7452040147069 M331.17368758215,312.7452040147069 L326.1191517872975,309.82226413136226 M326.1191517872975,309.82226413136226 L321.1731435406435,306.87798422030363 M321.1731435406435,306.87798422030363 L316.33635085185733,303.9135331230189 M513.6560526965638,260.7157535283318 L381.4034791722362,337.89528929228834 M316.31448001020925,305.3607074242875 L316.33635085185733,303.9135331230189 M381.3368627156292,339.3692760973626 L381.4034791722362,337.89528929228834" stroke="black"  stroke-width="4"  fill="red"/>
<path d="M225.42817939168987,431.7892073055709 L380.624776430895,340.986304798602 M380.624776430895,340.986304798602 L386.4614565851909,343.8150235105621 M386.4614565851909,343.8150235105621 L392.2590868302375,346.70505283241687 M392.2590868302375,346.70505283241687 L398.0168351163205,349.6566586730023 M398.0168351163205,349.6566586730023 L403.7338415485975,352.6701159871957 M403.7338415485975,352.6701159871957 L409.40924538231206,355.74569102051277 M409.40924538231206,355.74569102051277 L415.0421575639409,358.8836587119524 M415.0421575639409,358.8836587119524 L420.6316551841386,362.08429989389384 M420.6316551841386,362.08429989389384 L426.1768181161781,365.3478817958873 M426.1768181161781,365.3478817958873 L431.6766995675446,368.67469405733334 M431.6766995675446,368.67469405733334 L437.1303196917378,372.06500650378047 M437.1303196917378,372.06500650378047 L442.5366933671013,375.51909651093547 M442.5366933671013,375.51909651093547 L447.89479485594757,379.03724338038927 M447.89479485594757,379.03724338038927 L266.9821070144112,457.94407059441176 M266.9821070144112,457.94407059441176 L263.11042454599936,455.0602637918906 M263.11042454599936,455.0602637918906 L259.17213929215706,452.2356549102524 M259.17213929215706,452.2356549102524 L255.1686059360046,449.47042776020555 M255.1686059360046,449.47042776020555 L251.1011706111844,446.76474889966295 M251.1011706111844,446.76474889966295 L246.9711578771188,444.11877672274295 M246.9711578771188,444.11877672274295 L242.77989470205625,441.5326522003708 M242.77989470205625,441.5326522003708 L238.52867233789038,439.00651687957753 M238.52867233789038,439.00651687957753 L234.21880569090985,436.5404845785914 M234.21880569090985,436.5404845785914 L229.8515500077329,434.13468026343674 M229.8515500077329,434.13468026343674 L225.42817939168987,431.7892073055709 M225.42817939168987,431.7892073055709 L225.38579594254924,430.2500819545923 M266.9701057056137,456.3885617920719 L263.095537497658,453.5065170309907 M263.095537497658,453.5065170309907 L259.1543303255907,450.6836446832919 M259.1543303255907,450.6836446832919 L255.1478397949753,447.92012778212643 M255.1478397949753,447.92012778212643 L251.07741292851512,445.21613212989416 M251.07741292851512,445.21613212989416 L246.94437513214513,442.5718153819894 M246.94437513214513,442.5718153819894 L242.75005419693264,439.9873177935136 M242.75005419693264,439.9873177935136 L238.4957421457429,437.46278020757535 M238.4957421457429,437.46278020757535 L234.1827546496433,434.99831576852694 M234.1827546496433,434.99831576852694 L229.8123476515471,432.5940487742113 M229.8123476515471,432.5940487742113 L225.38579594254924,430.2500819545923 M266.9821070144112,457.94407059441176 L266.9701057056137,456.3885617920719 M448.01077724423897,377.53391451423727 L266.9701057056137,456.3885617920719 M380.6910157631952,339.5110812085734 L386.5318451441924,342.3376446887965 M386.5318451441924,342.3376446887965 L392.3336243126298,345.2254829931495 M392.3336243126298,345.2254829931495 L398.0955211525279,348.1748625334052 M398.0955211525279,348.1748625334052 L403.8166756723044,351.1860587797664 M403.8166756723044,351.1860587797664 L409.4962270165339,354.2593385190795 M409.4962270165339,354.2593385190795 L415.1332859890863,357.39497724484403 M415.1332859890863,357.39497724484403 L420.7269295014107,360.59325635957424 M420.7269295014107,360.59325635957424 L426.27623723384295,363.8544436932078 M426.27623723384295,363.8544436932078 L431.78026216956823,367.1788294895323 M431.78026216956823,367.1788294895323 L437.2380241972928,370.56668421372285 M437.2380241972928,370.56668421372285 L442.64853791120845,374.0182858964932 M442.64853791120845,374.0182858964932 L448.01077724423897,377.53391451423727 M225.38579594254924,430.2500819545923 L380.6910157631952,339.5110812085734 M447.89479485594757,379.03724338038927 L448.01077724423897,377.53391451423727 M380.624776430895,340.986304798602 L380.6910157631952,339.5110812085734" stroke="black"  stroke-width="4"  fill="red"/>
<path d="M603.8245718728047,338.15338467677566 L607.6858526713368,336.38285750428724 M607.6858526713368,336.38285750428724 L611.4597343228404,334.57399536894366 M611.4597343228404,334.57399536894366 L615.1449094648324,332.7278551346715 M615.1449094648324,332.7278551346715 L618.74011630002,330.84550434437256 M618.74011630002,330.84550434437256 L622.2442238064519,328.9280268339406 M622.2442238064519,328.9280268339406 L625.6560795897539,326.9764957807155 M625.6560795897539,326.9764957807155 L628.9747082107369,324.9919990450904 M628.9747082107369,324.9919990450904 L632.1990681279415,322.97565748789225 M632.1990681279415,322.97565748789225 L635.328303774915,320.92856593394555 M635.328303774915,320.92856593394555 L638.3615729009568,318.8518440396315 M638.3615729009568,318.8518440396315 L828.716623089422,405.40666279060423 M828.716623089422,405.40666279060423 L824.7345725369463,408.76000975863434 M824.7345725369463,408.76000975863434 L820.6196158534636,412.0839899389492 M820.6196158534636,412.0839899389492 L816.3719165355044,415.3771099369826 M816.3719165355044,415.3771099369826 L811.9918554492763,418.6379347407412 M811.9918554492763,418.6379347407412 L807.4798333146587,421.86499750845564 M807.4798333146587,421.86499750845564 L802.8363240433679,425.05679978113557 M802.8363240433679,425.05679978113557 L798.0619058907886,428.2118745485974 M798.0619058907886,428.2118745485974 L793.1571907133196,431.3287172878159 M793.1571907133196,431.3287172878159 L788.1229544979843,434.405897217471 M788.1229544979843,434.405897217471 L782.9599615647552,437.4419008909301 M782.9599615647552,437.4419008909301 L777.66912856427,440.43525947936143 M777.66912856427,440.43525947936143 L772.2514013732718,443.3844785664121 M772.2514013732718,443.3844785664121 L603.8245718728047,338.15338467677566 M772.2514013732718,443.3844785664121 L772.6162077533404,441.8379782742319 M772.6162077533404,441.8379782742319 L604.0414600718997,336.68033012408046 M603.8245718728047,338.15338467677566 L604.0414600718997,336.68033012408046 M829.1097943841938,403.8849801050658 L825.126078756397,407.2360589609417 M825.126078756397,407.2360589609417 L821.0093325381979,410.55780556885077 M821.0093325381979,410.55780556885077 L816.7597181795821,413.8487271407396 M816.7597181795821,413.8487271407396 L812.3776157133825,417.10738921016883 M812.3776157133825,417.10738921016883 L807.8634250662387,420.3323254810888 M807.8634250662387,420.3323254810888 L803.2176194378225,423.5220380402094 M803.2176194378225,423.5220380402094 L798.440776499548,426.67506038214304 M798.440776499548,426.67506038214304 L793.5335075781987,429.7898884935514 M793.5335075781987,429.7898884935514 L788.4965883213856,432.8650920364252 M788.4965883213856,432.8650920364252 L783.3307827192436,435.8991580428327 M783.3307827192436,435.8991580428327 L778.0370072681369,438.89061811668375 M778.0370072681369,438.89061811668375 L772.6162077533404,441.8379782742319 M638.5972572061272,317.39385026029964 L829.1097943841938,403.8849801050658 M604.0414600718997,336.68033012408046 L607.9049694408415,334.91116395211134 M607.9049694408415,334.91116395211134 L611.6810034132602,333.103696566083 M611.6810034132602,333.103696566083 L615.3682540071543,331.2589842862326 M615.3682540071543,331.2589842862326 L618.9654588685595,329.3780940987691 M618.9654588685595,329.3780940987691 L622.4714865395538,327.46210926486424 M622.4714865395538,327.46210926486424 L625.8851842016772,325.5121023894764 M625.8851842016772,325.5121023894764 L629.2055761412715,323.5291607427112 M629.2055761412715,323.5291607427112 L632.4316205330197,321.5144045621037 M632.4316205330197,321.5144045621037 L635.5624616712449,319.46892806192596 M635.5624616712449,319.46892806192596 L638.5972572061272,317.39385026029964 M828.716623089422,405.40666279060423 L829.1097943841938,403.8849801050658 M638.3615729009568,318.8518440396315 L638.5972572061272,317.39385026029964" stroke="black"  stroke-width="4"  fill="red"/>
<path d="M-108.64395531679526,463.07031989313055 L-103.20220892426511,460.55209980715756 M-103.20220892426511,460.55209980715756 L-97.84255405634951,457.99333974324475 M-97.84255405634951,457.99333974324475 L-92.56699996609836,455.3955141715159 M-92.56699996609836,455.3955141715159 L-87.37739279770227,452.760086925646 M-87.37739279770227,452.760086925646 L-82.27559803821202,450.0885756923937 M-82.27559803821202,450.0885756923937 L-77.26335072283041,447.3824603323386 M-77.26335072283041,447.3824603323386 L-72.34233083228924,444.6432473828161 M-72.34233083228924,444.6432473828161 L-67.51415307616844,441.87243618599626 M-67.51415307616844,441.87243618599626 L-62.7803412465733,439.0715180104026 M-62.7803412465733,439.0715180104026 L-58.14232346163311,436.24199910279407 M-58.14232346163311,436.24199910279407 L119.32268851554807,524.1720732936558 M119.32268851554807,524.1720732936558 L113.26092527739206,528.7861534450008 M113.26092527739206,528.7861534450008 L107.05625946630721,533.382045672053 M107.05625946630721,533.382045672053 L100.70922767911316,537.957942307512 M100.70922767911316,537.957942307512 L94.2205036339069,542.5119652973021 M94.2205036339069,542.5119652973021 L87.5907908648125,547.0422542486949 M87.5907908648125,547.0422542486949 L80.82096742086782,551.5468816410225 M80.82096742086782,551.5468816410225 L73.91191901460263,556.0239423972091 M73.91191901460263,556.0239423972091 L66.86472091763358,560.471450835065 M66.86472091763358,560.471450835065 L59.68042620195308,564.8874880691947 M59.68042620195308,564.8874880691947 L52.360308383640756,569.2700317719238 M52.360308383640756,569.2700317719238 L44.905677578057976,573.6170823442013 M44.905677578057976,573.6170823442013 L37.31794700580656,577.9266251697688 M37.31794700580656,577.9266251697688 L-108.64395531679526,463.07031989313055 M37.31794700580656,577.9266251697688 L37.11301502482695,576.3075554273063 M37.11301502482695,576.3075554273063 L-108.94091892391748,461.511706044425 M-108.64395531679526,463.07031989313055 L-108.94091892391748,461.511706044425 M119.19201696252014,522.5791254649683 L113.12489233479187,527.1908134406925 M113.12489233479187,527.1908134406925 L106.91471515509375,531.7843509181683 M106.91471515509375,531.7843509181683 L100.56202159095744,536.3579308083588 M100.56202159095744,536.3579308083588 L94.06748509908493,540.9096756281713 M94.06748509908493,540.9096756281713 L87.43180902658361,545.4377255037157 M87.43180902658361,545.4377255037157 L80.65587144113732,549.9401534232571 M80.65587144113732,549.9401534232571 L73.74055813610494,554.4150547644292 M73.74055813610494,554.4150547644292 L66.68694469177535,558.8604442956556 M66.68694469177535,558.8604442956556 L59.496084526246875,563.2744035074932 M59.496084526246875,563.2744035074932 L52.169251765890124,567.6549104549185 M52.169251765890124,567.6549104549185 L44.70775723499173,571.9999658685341 M44.70775723499173,571.9999658685341 L37.11301502482695,576.3075554273063 M-58.39492351066497,434.70002061046563 L119.19201696252014,522.5791254649683 M-108.94091892391748,461.511706044425 L-103.49440118517958,458.9950069389357 M-103.49440118517958,458.9950069389357 L-98.13004489365971,456.4378009324166 M-98.13004489365971,456.4378009324166 L-92.84986119715597,453.84156200347275 M-92.84986119715597,453.84156200347275 L-87.65569796184889,451.2077534867534 M-87.65569796184889,451.2077534867534 L-82.54942237837702,448.53789252197424 M-82.54942237837702,448.53789252197424 L-77.53277103252867,445.8334584301007 M-77.53277103252867,445.8334584301007 L-72.60742537631404,443.0959571758338 M-72.60742537631404,443.0959571758338 L-67.77500149639621,440.32688751589103 M-67.77500149639621,440.32688751589103 L-63.03702444979905,437.5277401205695 M-63.03702444979905,437.5277401205695 L-58.39492351066497,434.70002061046563 M119.32268851554807,524.1720732936558 L119.19201696252014,522.5791254649683 M-58.14232346163311,436.24199910279407 L-58.39492351066497,434.70002061046563" stroke="black"  stroke-width="4"  fill="red"/>
<path d="M215.11351846964845,430.556745641838 L211.66091657650122,427.71665688655486 M211.66091657650122,427.71665688655486 L208.1371365113833,424.9314478066222 M208.1371365113833,424.9314478066222 L204.54351070207133,422.201344160719 M204.54351070207133,422.201344160719 L200.8813668474673,419.52655451326024 M200.8813668474673,419.52655451326024 L197.1520144749054,416.9072787741136 M197.1520144749054,416.9072787741136 L193.35675974647535,414.343701900493 M193.35675974647535,414.343701900493 L189.49690042221783,411.83599146333097 M189.49690042221783,411.83599146333097 L185.57370689640004,409.38431850501263 M185.57370689640004,409.38431850501263 L181.58844646355533,406.9888329914365 M181.58844646355533,406.9888329914365 L177.54239289393837,404.64967045874295 M177.54239289393837,404.64967045874295 L306.43760063028935,305.8154088497114 M306.43760063028935,305.8154088497114 L312.0913032173286,308.3182743826364 M312.0913032173286,308.3182743826364 L317.70535666325566,310.87812479823486 M317.70535666325566,310.87812479823486 L323.27897680135993,313.4951838203863 M323.27897680135993,313.4951838203863 L328.8113533095834,316.1696773221566 M328.8113533095834,316.1696773221566 L334.30167218979835,318.9018266166027 M334.30167218979835,318.9018266166027 L339.74908084944377,321.69186718845435 M339.74908084944377,321.69186718845435 L345.15272870561046,324.54002045668585 M345.15272870561046,324.54002045668585 L350.5117371809006,327.446521364113 M350.5117371809006,327.446521364113 L355.8252113368632,330.4115995839442 M355.8252113368632,330.4115995839442 L361.0922354824133,333.4354896182115 M361.0922354824133,333.4354896182115 L366.3118856554211,336.5184184105683 M366.3118856554211,336.5184184105683 L371.48319747996374,339.66062610925303 M371.48319747996374,339.66062610925303 L215.11351846964845,430.556745641838 M371.48319747996374,339.66062610925303 L371.54316426377966,338.1864162096549 M371.54316426377966,338.1864162096549 L215.06358043156428,429.0184146283966 M215.11351846964845,430.556745641838 L215.06358043156428,429.0184146283966 M306.45301849428006,304.3678659728654 L312.1104690575567,306.86870760661253 M312.1104690575567,306.86870760661253 L317.7282644556389,309.4264966112684 M317.7282644556389,309.4264966112684 L323.3056204446413,312.04145711039234 M323.3056204446413,312.04145711039234 L328.8417265968582,314.71381539106994 M328.8417265968582,314.71381539106994 L334.33576879416336,317.44379320024586 M334.33576879416336,317.44379320024586 L339.78689428664734,320.2316264617102 M339.78689428664734,320.2316264617102 L345.1942523221281,323.0775370612867 M345.1942523221281,323.0775370612867 L350.5569641225571,325.9817604147745 M350.5569641225571,325.9817604147745 L355.87413452391974,328.94452668955256 M355.87413452391974,328.94452668955256 L361.1448475815578,331.9660708952726 M361.1448475815578,331.9660708952726 L366.36817905894947,335.0466205064693 M366.36817905894947,335.0466205064693 L371.54316426377966,338.1864162096549 M177.46657354844348,403.12850183960524 L306.45301849428006,304.3678659728654 M215.06358043156428,429.0184146283966 L211.60856804982348,426.18016399589413 M211.60856804982348,426.18016399589413 L208.0823355785738,423.39676788104225 M208.0823355785738,423.39676788104225 L204.4862164180692,420.6684512878125 M204.4862164180692,420.6684512878125 L200.82153921002214,417.99542204602034 M200.82153921002214,417.99542204602034 L197.08961438527757,415.3778793458395 M197.08961438527757,415.3778793458395 L193.291748981919,412.8160074441938 M193.291748981919,412.8160074441938 L189.42924160557828,410.3099732331565 M189.42924160557828,410.3099732331565 L185.50336345135486,407.8599470840558 M185.50336345135486,407.8599470840558 L181.51538258958692,405.46607831621293 M181.51538258958692,405.46607831621293 L177.46657354844348,403.12850183960524 M306.43760063028935,305.8154088497114 L306.45301849428006,304.3678659728654 M177.54239289393837,404.64967045874295 L177.46657354844348,403.12850183960524" stroke="black"  stroke-width="4"  fill="red"/>
<path d="M278.45671483535455,284.24180090069234 L386.61005537116955,204.8143572110705 M386.61005537116955,204.8143572110705 L391.7078612659282,206.92612023249274 M391.7078612659282,206.92612023249274 L396.7687446121571,209.08240610375532 M396.7687446121571,209.08240610375532 L401.791919828112,211.28330659484735 M401.791919828112,211.28330659484735 L406.7765936980725,213.5289096821337 M406.7765936980725,213.5289096821337 L411.72190325650763,215.8193479563435 M411.72190325650763,215.8193479563435 L416.6270528914648,218.1546884834704 M416.6270528914648,218.1546884834704 L421.4911959998576,220.53503201223447 M421.4911959998576,220.53503201223447 L426.31344561244975,222.96047964857442 M426.31344561244975,222.96047964857442 L431.0929105586009,225.43112994738922 M431.0929105586009,225.43112994738922 L435.8287401867743,227.94706007993622 M435.8287401867743,227.94706007993622 L440.51999108198584,230.50836207071237 M440.51999108198584,230.50836207071237 L445.1657513598558,233.11512156622473 M445.1657513598558,233.11512156622473 L311.17885350331096,305.93656409921186 M311.17885350331096,305.93656409921186 L308.18687060749085,303.58286224680046 M308.18687060749085,303.58286224680046 L305.1293822423581,301.26937224782733 M305.1293822423581,301.26937224782733 L302.0076201981749,298.99639239856884 M302.0076201981749,298.99639239856884 L298.8228002775102,296.7641968868943 M298.8228002775102,296.7641968868943 L295.5761172302033,294.57305797913006 M295.5761172302033,294.57305797913006 L292.2687848439061,292.4232313202252 M292.2687848439061,292.4232313202252 L288.9019902068329,290.3149627033329 M288.9019902068329,290.3149627033329 L285.47692832361724,288.2484886654397 M285.47692832361724,288.2484886654397 L281.9947793836061,286.2240310961749 M281.9947793836061,286.2240310961749 L278.45671483535455,284.24180090069234 M278.45671483535455,284.24180090069234 L278.4538862208795,282.81204654552806 M311.1973761285487,304.4889230614844 L308.20339571201384,302.13713166980557 M308.20339571201384,302.13713166980557 L305.14387707865814,299.825526630732 M305.14387707865814,299.825526630732 L302.02005287975294,297.5544056270893 M302.02005287975294,297.5544056270893 L298.83313974799205,295.32404225601454 M298.83313974799205,295.32404225601454 L295.584333229947,293.13470819802217 M295.584333229947,293.13470819802217 L292.27484790278254,290.98665852951655 M292.27484790278254,290.98665852951655 L288.90587160784287,288.88013848712933 M288.90587160784287,288.88013848712933 L285.47860008928296,286.81538406312654 M285.47860008928296,286.81538406312654 L281.9942142480731,284.79261661898585 M281.9942142480731,284.79261661898585 L278.4538862208795,282.81204654552806 M311.17885350331096,305.93656409921186 L311.1973761285487,304.4889230614844 M445.26413616483217,231.72998091851778 L311.1973761285487,304.4889230614844 M386.6709984987218,203.4553980457506 L391.7719514673907,205.56517088510384 M391.7719514673907,205.56517088510384 L396.8359777033895,207.71943069799335 M396.8359777033895,207.71943069799335 L401.8622914567828,209.91826954935408 M401.8622914567828,209.91826954935408 L406.85009932883406,212.16177572298892 M406.85009932883406,212.16177572298892 L411.7985381229804,214.45008208456855 M411.7985381229804,214.45008208456855 L416.70681202015544,216.78325604528322 M416.70681202015544,216.78325604528322 L421.5740741716056,219.16139867677887 M421.5740741716056,219.16139867677887 L426.39943732695417,221.58461141688431 M426.39943732695417,221.58461141688431 L431.1820100197966,224.05299316408457 M431.1820100197966,224.05299316408457 L435.92094131289014,226.5666214621346 M435.92094131289014,226.5666214621346 L440.6152874385324,229.125588703669 M440.6152874385324,229.125588703669 L445.26413616483217,231.72998091851778 M278.4538862208795,282.81204654552806 L386.6709984987218,203.4553980457506 M445.1657513598558,233.11512156622473 L445.26413616483217,231.72998091851778 M386.61005537116955,204.8143572110705 L386.6709984987218,203.4553980457506" stroke="black"  stroke-width="4"  fill="red"/>
<path d="M741.4161150429161,474.09484163879654 L526.0204270196326,390.1192602526812 M526.0204270196326,390.1192602526812 L530.72785296437,386.9154428007306 M530.72785296437,386.9154428007306 L535.4974603315356,383.77646863157577 M535.4974603315356,383.77646863157577 L540.3283545763513,380.7020420565528 M540.3283545763513,380.7020420565528 L545.219587067869,377.6918582438234 M545.219587067869,377.6918582438234 L550.170300857502,374.7455896951607 M550.170300857502,374.7455896951607 L555.1795838694511,371.862950962477 M555.1795838694511,371.862950962477 L560.2466000371954,369.0436275660471 M560.2466000371954,369.0436275660471 L565.3705141226382,366.2873261763025 M565.3705141226382,366.2873261763025 L570.5505087544246,363.593746608381 M570.5505087544246,363.593746608381 L575.7857810727777,360.9626170342324 M575.7857810727777,360.9626170342324 L581.0755372940587,358.39363161249514 M581.0755372940587,358.39363161249514 L586.4190011412328,355.88652717301954 M586.4190011412328,355.88652717301954 L784.4913949802924,451.53376978150783 M784.4913949802924,451.53376978150783 L779.8352489381582,453.4678565795481 M779.8352489381582,453.4678565795481 L775.2529918976633,455.47358145788434 M775.2529918976633,455.47358145788434 L770.7459643484101,457.5509326511531 M770.7459643484101,457.5509326511531 L766.3155298063726,459.69989248750113 M766.3155298063726,459.69989248750113 L761.962954229398,461.9204032845495 M761.962954229398,461.9204032845495 L757.6896058159609,464.2124244414778 M757.6896058159609,464.2124244414778 L753.4968820381598,466.5759488683344 M753.4968820381598,466.5759488683344 L749.3861146915755,469.0109017353248 M749.3861146915755,469.0109017353248 L745.3587404054284,471.5172230405056 M745.3587404054284,471.5172230405056 L741.4161150429161,474.09484163879654 M741.4161150429161,474.09484163879654 L741.7672606171226,472.5296678247339 M784.8680327193882,449.9821927015672 L780.2090271155174,451.91508751291474 M780.2090271155174,451.91508751291474 L775.6239776151722,453.9195814795313 M775.6239776151722,453.9195814795313 L771.114225358414,455.99566341338226 M771.114225358414,455.99566341338226 L766.6811345560001,458.14331624376194 M766.6811345560001,458.14331624376194 L762.3259718035797,460.3624829337529 M762.3259718035797,460.3624829337529 L758.0501060505602,462.6531235373868 M758.0501060505602,462.6531235373868 L753.8549355838423,465.0152316193467 M753.8549355838423,465.0152316193467 L749.7417929744119,467.44873306494856 M749.7417929744119,467.44873306494856 L745.7121157440857,469.9535685978947 M745.7121157440857,469.9535685978947 L741.7672606171226,472.5296678247339 M784.4913949802924,451.53376978150783 L784.8680327193882,449.9821927015672 M586.6276912332594,354.4000698654255 L784.8680327193882,449.9821927015672 M526.1931036827772,388.6081059835167 L530.9033469448129,385.4065341704547 M530.9033469448129,385.4065341704547 L535.6758064013172,382.2697733548616 M535.6758064013172,382.2697733548616 L540.5095870540242,379.19752725077956 M540.5095870540242,379.19752725077956 L545.4037397982587,376.1894904570148 M545.4037397982587,376.1894904570148 L550.3574072909897,373.24533494357405 M550.3574072909897,373.24533494357405 L555.3696770486644,370.3647747215784 M555.3696770486644,370.3647747215784 L560.439712662674,367.54749481208034 M560.439712662674,367.54749481208034 L565.5666785740017,364.7932013914973 M565.5666785740017,364.7932013914973 L570.7497571178934,362.1015938060748 M570.7497571178934,362.1015938060748 L575.9881451724726,359.47239975790205 M575.9881451724726,359.47239975790205 L581.2810487071636,356.90531298026025 M581.2810487071636,356.90531298026025 L586.6276912332594,354.4000698654255 M741.7672606171226,472.5296678247339 L526.1931036827772,388.6081059835167 M586.4190011412328,355.88652717301954 L586.6276912332594,354.4000698654255 M526.0204270196326,390.1192602526812 L526.1931036827772,388.6081059835167" stroke="black"  stroke-width="4"  fill="red"/></svg>