<svg viewBox="0 0 800 800" xmlns="http://www.w3.org/2000/svg"><path d="M410.7401775992395,455.24419582008284 L409.1539418615106,451.3176615673367 M409.1539418615106,451.3176615673367 L650.4406212041413,414.9627030147682 M650.4406212041413,414.9627030147682 L652.6523855743844,419.03605112197897 M652.6523855743844,419.03605112197897 L654.9948654183802,423.126358563096 M654.9948654183802,423.126358563096 L657.4685425071867,427.23231185891075 M657.4685425071867,427.23231185891075 L660.0737809600465,431.3525050031918 M660.0737809600465,431.3525050031918 L662.8109659695216,435.4855576986954 M662.8109659695216,435.4855576986954 L665.6803540301386,439.62999999312524 M665.6803540301386,439.62999999312524 L668.6822130057923,443.7843923347659 M668.6822130057923,443.7843923347659 L671.816717957439,447.94721835628934 M671.816717957439,447.94721835628934 L675.083991179518,452.116945085044 M675.083991179518,452.116945085044 L678.484033378484,456.2919800022032 M678.484033378484,456.2919800022032 L448.07101016754257,524.5551290986671 M448.07101016754257,524.5551290986671 L444.15074809053306,518.6199338173036 M444.15074809053306,518.6199338173036 L440.3814043675743,512.7101076671769 M440.3814043675743,512.7101076671769 L436.761929123444,506.826794935811 M436.761929123444,506.826794935811 L433.291239313166,500.97115812660036 M433.291239313166,500.97115812660036 L429.96817859393013,495.14424856461835 M429.96817859393013,495.14424856461835 L426.79161602980616,489.3471419323606 M426.79161602980616,489.3471419323606 L423.7603482454699,483.58083103098943 M423.7603482454699,483.58083103098943 L420.87317421652176,477.846308116468 M420.87317421652176,477.846308116468 L418.1288220576977,472.14448780488544 M418.1288220576977,472.14448780488544 L415.52607537745087,466.4762927314581 M415.52607537745087,466.4762927314581 L413.06362714439524,460.84258719080617 M413.06362714439524,460.84258719080617 L410.7401775992395,455.24419582008284 M410.7401775992395,455.24419582008284 L410.87628979604176,453.5866510069528 M410.87628979604176,453.5866510069528 L409.28836826297686,449.66219492498783 M409.28836826297686,449.66219492498783 L409.1539418615106,451.3176615673367 M409.28836826297686,449.66219492498783 L650.7570973379252,413.32740731158026 M650.4406212041413,414.9627030147682 L650.7570973379252,413.32740731158026 M448.07101016754257,524.5551290986671 L448.2460250891222,522.8641230103005 M448.2460250891222,522.8641230103005 L444.32169756352766,516.9315542688747 M444.32169756352766,516.9315542688747 L440.54844690339826,511.02438787436256 M440.54844690339826,511.02438787436256 L436.9252206226523,505.14376701484696 M436.9252206226523,505.14376701484696 L433.4509330604893,499.29085305416606 M433.4509330604893,499.29085305416606 L430.1244252060244,493.46669619904947 M430.1244252060244,493.46669619904947 L426.94456350322423,487.67237097384225 M426.94456350322423,487.67237097384225 L423.910141912482,481.9088690338814 M423.910141912482,481.9088690338814 L421.0199567739038,476.17718146405286 M421.0199567739038,476.17718146405286 L418.27273352833083,470.478221723488 M418.27273352833083,470.478221723488 L415.66725318558406,464.8129112638652 M415.66725318558406,464.8129112638652 L413.20220606621456,459.1821132042694 M413.20220606621456,459.1821132042694 L410.87628979604176,453.5866510069528 M678.8336467325124,454.63388394384174 L448.2460250891222,522.8641230103005 M650.7570973379252,413.32740731158026 L652.9716352046312,417.3984119220052 M652.9716352046312,417.3984119220052 L655.3170058998538,421.48638730480945 M655.3170058998538,421.48638730480945 L657.7936923164642,425.59002098375606 M657.7936923164642,425.59002098375606 L660.4020595837111,429.7079079807364 M660.4020595837111,429.7079079807364 L663.1424939294694,433.83866898385395 M663.1424939294694,433.83866898385395 L666.0152527592446,437.98083504687406 M666.0152527592446,437.98083504687406 L669.0206048631372,442.13296757729233 M669.0206048631372,442.13296757729233 L672.1587261308575,446.29355117821626 M672.1587261308575,446.29355117821626 L675.4297396333819,450.46105382449457 M675.4297396333819,450.46105382449457 L678.8336467325124,454.63388394384174 M678.484033378484,456.2919800022032 L678.8336467325124,454.63388394384174" stroke="black"  stroke-width="4"  fill="red"/>
<path d="M768.5594731438996,380.7994485664249 L763.2043586466515,382.1134970491998 M763.2043586466515,382.1134970491998 L757.907288141808,383.49757383763375 M757.907288141808,383.49757383763375 L752.6693776953232,384.951665972854 M752.6693776953232,384.951665972854 L747.491736631799,386.4758160485782 M747.491736631799,386.4758160485782 L742.375524679687,388.0700280360724 M742.375524679687,388.0700280360724 L737.3218567534551,389.7343007928199 M737.3218567534551,389.7343007928199 L732.3318490503792,391.46863616653616 M732.3318490503792,391.46863616653616 L727.4066966471904,393.2730212312115 M727.4066966471904,393.2730212312115 L722.5475455025273,395.1474884041477 M722.5475455025273,395.1474884041477 L717.755618549739,397.09201102292656 M717.755618549739,397.09201102292656 L555.5328416374246,278.11375195776935 M555.5328416374246,278.11375195776935 L561.7391748139698,275.9127378351001 M561.7391748139698,275.9127378351001 L567.9947693792712,273.7771997860557 M567.9947693792712,273.7771997860557 L574.2989649965444,271.7068654060819 M574.2989649965444,271.7068654060819 L580.6510971348081,269.7014885171599 M580.6510971348081,269.7014885171599 L587.0505337176666,267.76080738364226 M587.0505337176666,267.76080738364226 L593.4966522069916,265.8845936784855 M593.4966522069916,265.8845936784855 L599.9888710390347,264.07259709483486 M599.9888710390347,264.07259709483486 L606.5265974309137,262.3245803304642 M606.5265974309137,262.3245803304642 L613.1092267280864,260.6403533555103 M613.1092267280864,260.6403533555103 L619.7362131581284,259.0196910750405 M619.7362131581284,259.0196910750405 L626.4070080366397,257.46237494397303 M626.4070080366397,257.46237494397303 L633.1210890356548,255.96820667117453 M633.1210890356548,255.96820667117453 L768.5594731438996,380.7994485664249 M633.1210890356548,255.96820667117453 L633.3844739922982,254.44083982091973 M633.3844739922982,254.44083982091973 L768.9555039201044,379.18463696653373 M768.5594731438996,380.7994485664249 L768.9555039201044,379.18463696653373 M555.7487115763487,276.5694289358895 L561.9588379770394,274.3700722062944 M561.9588379770394,274.3700722062944 L568.2182556053838,272.2361481227311 M568.2182556053838,272.2361481227311 L574.5263041981607,270.16738395519434 M574.5263041981607,270.16738395519434 L580.8823193120478,268.163533199322 M580.8823193120478,268.163533199322 L587.2856689882057,266.22433382363715 M587.2856689882057,266.22433382363715 L593.7357308306125,264.34955719819936 M593.7357308306125,264.34955719819936 L600.2319234510103,262.5389527482086 M600.2319234510103,262.5389527482086 L606.7736542473749,260.79228291150605 M606.7736542473749,260.79228291150605 L613.360318759102,259.10935737944936 M613.360318759102,259.10935737944936 L619.991371449174,257.48995082268283 M619.991371449174,257.48995082268283 L626.666263877515,255.93384447388155 M626.666263877515,255.93384447388155 L633.3844739922982,254.44083982091973 M718.1185465019831,395.46724568355853 L555.7487115763487,276.5694289358895 M768.9555039201044,379.18463696653373 L763.5968155711756,380.4978701548879 M763.5968155711756,380.4978701548879 L758.2962289018991,381.88109057047365 M758.2962289018991,381.88109057047365 L753.0548602588689,383.3342856315211 M753.0548602588689,383.3342856315211 L747.8738192801758,384.8574982933147 M747.8738192801758,384.8574982933147 L742.7542660531473,386.4507329313416 M742.7542660531473,386.4507329313416 L737.6973158366512,388.11398882915313 M737.6973158366512,388.11398882915313 L732.7040851956107,389.847268277402 M732.7040851956107,389.847268277402 L727.7757696513422,391.650558820673 M727.7757696513422,391.650558820673 L722.9135156066084,393.52389333809185 M722.9135156066084,393.52389333809185 L718.1185465019831,395.46724568355853 M555.5328416374246,278.11375195776935 L555.7487115763487,276.5694289358895 M717.755618549739,397.09201102292656 L718.1185465019831,395.46724568355853" stroke="black"  stroke-width="4"  fill="red"/>
<path d="M332.156424523095,427.4316947207527 L506.433410965912,332.5694482581452 M506.433410965912,332.5694482581452 L512.7531953963563,336.2855096217835 M512.7531953963563,336.2855096217835 L519.0318726061608,340.0733573044623 M519.0318726061608,340.0733573044623 L525.2684535685253,343.9333581101338 M525.2684535685253,343.9333581101338 L531.4618803672536,347.86589046804636 M531.4618803672536,347.86589046804636 L537.611104862285,351.8712877475274 M537.611104862285,351.8712877475274 L543.7150044472587,355.94993363665367 M543.7150044472587,355.94993363665367 L549.7725231253802,360.10218145160763 M549.7725231253802,360.10218145160763 L555.7824994920422,364.3283977985777 M555.7824994920422,364.3283977985777 L561.7437756607013,368.6289416740333 M561.7437756607013,368.6289416740333 L567.6551521983941,373.00417612048744 M567.6551521983941,373.00417612048744 L573.5154043297462,377.454455101336 M573.5154043297462,377.454455101336 L579.3232973171857,381.98013102407197 M579.3232973171857,381.98013102407197 L375.36016206695865,461.6335620983285 M375.36016206695865,461.6335620983285 L371.3620460733745,457.9155979424439 M371.3620460733745,457.9155979424439 L367.2881054534256,454.2631346885429 M367.2881054534256,454.2631346885429 L363.139955830806,450.67646212305056 M363.139955830806,450.67646212305056 L358.91919302028157,447.1558451355869 M358.91919302028157,447.1558451355869 L354.6273780639149,443.70151570059215 M354.6273780639149,443.70151570059215 L350.2660740062166,440.3137095871407 M350.2660740062166,440.3137095871407 L345.8368253732364,436.9926413499436 M345.8368253732364,436.9926413499436 L341.34112142096245,433.73849170802407 M341.34112142096245,433.73849170802407 L336.78050217475317,430.5514552057697 M336.78050217475317,430.5514552057697 L332.156424523095,427.4316947207527 M332.156424523095,427.4316947207527 L332.22832665845215,425.78929175114865 M375.46865105664995,459.9726774684717 L371.4670241689013,456.2566504427632 M371.4670241689013,456.2566504427632 L367.3895365310244,452.6061072807805 M367.3895365310244,452.6061072807805 L363.23780509034066,449.0213367032867 M363.23780509034066,449.0213367032867 L359.0134269311742,445.5026025587812 M359.0134269311742,445.5026025587812 L354.717964299786,442.05013581025594 M354.717964299786,442.05013581025594 L350.3529814124195,438.6641712259051 M350.3529814124195,438.6641712259051 L345.92002391708354,435.34492238399616 M345.92002391708354,435.34492238399616 L341.4205821134285,432.09256905917664 M341.4205821134285,432.09256905917664 L336.85619707950764,428.90730485779034 M336.85619707950764,428.90730485779034 L332.22832665845215,425.78929175114865 M375.36016206695865,461.6335620983285 L375.46865105664995,459.9726774684717 M579.5778450805672,380.3645867760609 L375.46865105664995,459.9726774684717 M506.62493677082693,330.9860772997013 L512.9499056002583,334.69961121628785 M512.9499056002583,334.69961121628785 L519.2337800786129,338.4849006662397 M519.2337800786129,338.4849006662397 L525.4755710909138,342.342313244024 M525.4755710909138,342.342313244024 L531.6742205694438,346.27222818865766 M531.6742205694438,346.27222818865766 L537.828680204818,350.274979736421 M537.828680204818,350.274979736421 L543.9378271588625,354.35095243644713 M543.9378271588625,354.35095243644713 L550.0006052277992,358.5005005139658 M550.0006052277992,358.5005005139658 L556.0158527062748,362.7239915037083 M556.0158527062748,362.7239915037083 L561.9824113879133,367.02178536418455 M561.9824113879133,367.02178536418455 L567.8990814689793,371.3942461262236 M567.8990814689793,371.3942461262236 L573.76463776053,375.8417287764782 M573.76463776053,375.8417287764782 L579.5778450805672,380.3645867760609 M332.22832665845215,425.78929175114865 L506.62493677082693,330.9860772997013 M579.3232973171857,381.98013102407197 L579.5778450805672,380.3645867760609 M506.433410965912,332.5694482581452 L506.62493677082693,330.9860772997013" stroke="black"  stroke-width="4"  fill="red"/>
<path d="M609.7648856886775,629.7076277586342 L750.6033112207829,482.80721543205084 M505.9717864472625,568.6277052044932 L513.7895702958617,573.9337645977562 M513.7895702958617,573.9337645977562 L521.7635233732441,579.208602632344 M521.7635233732441,579.208602632344 L529.8924422768737,584.4498604549922 M529.8924422768737,584.4498604549922 L538.1749695001828,589.6551301962872 M538.1749695001828,589.6551301962872 L546.6096139257768,594.8219910571838 M546.6096139257768,594.8219910571838 L555.1948595439866,599.9480291686107 M555.1948595439866,599.9480291686107 L563.9289914163867,605.0307621792467 M563.9289914163867,605.0307621792467 L572.8101935796079,610.0677239369622 M572.8101935796079,610.0677239369622 L581.8364910564643,615.0564005276798 M581.8364910564643,615.0564005276798 L591.0058716267833,619.9942985797942 M591.0058716267833,619.9942985797942 L600.3160942717926,624.8788805190234 M600.3160942717926,624.8788805190234 L609.7648856886775,629.7076277586342 M688.1328073037392,453.944778020737 L505.9717864472625,568.6277052044932 M750.6033112207829,482.80721543205084 L743.985758038365,480.15368221967356 M743.985758038365,480.15368221967356 L737.4435722494358,477.4438373200504 M737.4435722494358,477.4438373200504 L730.9795456905172,474.6794001296381 M730.9795456905172,474.6794001296381 L724.5962797867227,471.86203507108496 M724.5962797867227,471.86203507108496 L718.2964259263517,468.993508299901 M718.2964259263517,468.993508299901 L712.0825021326831,466.0755816647455 M712.0825021326831,466.0755816647455 L705.956885117723,463.10996774357216 M705.956885117723,463.10996774357216 L699.9219082475998,460.0984504517521 M699.9219082475998,460.0984504517521 L693.9798066518724,457.04277623389 M693.9798066518724,457.04277623389 L688.1328073037392,453.944778020737 M750.6033112207829,482.80721543205084 L751.0190114715465,481.1356335006444 M610.1005151877167,627.9775044676715 L751.0190114715465,481.1356335006444 M609.7648856886775,629.7076277586342 L610.1005151877167,627.9775044676715 M751.0190114715465,481.1356335006444 L744.395222267718,478.48340970237575 M744.395222267718,478.48340970237575 L737.8468660543639,475.77491123098923 M737.8468660543639,475.77491123098923 L731.3767377756272,473.01185720082117 M731.3767377756272,473.01185720082117 L724.9874417295243,470.19591176764675 M724.9874417295243,470.19591176764675 L718.6816321864709,467.32884075536515 M718.6816321864709,467.32884075536515 L712.461829879526,464.41240566770296 M712.461829879526,464.41240566770296 L706.330414039896,461.4483187465481 M706.330414039896,461.4483187465481 L700.2897204784142,458.4383635171423 M700.2897204784142,458.4383635171423 L694.3419866190053,455.3842860345617 M694.3419866190053,455.3842860345617 L688.489441687915,452.28791877484707 M688.489441687915,452.28791877484707 L506.2029168525153,566.918594690224 M506.2029168525153,566.918594690224 L514.0284137951788,572.222640777581 M514.0284137951788,572.222640777581 L522.0102637888937,577.495512790382 M522.0102637888937,577.495512790382 L530.147263035689,582.7348521038945 M530.147263035689,582.7348521038945 L538.4380534041455,587.9382510359784 M538.4380534041455,587.9382510359784 L546.88114294188,593.1032889204231 M546.88114294188,593.1032889204231 L555.4750146901018,598.227551960455 M555.4750146901018,598.227551960455 L564.2179524742658,603.308557843336 M564.2179524742658,603.308557843336 L573.1081389063949,608.3438403929418 M573.1081389063949,608.3438403929418 L582.1435973272405,613.3308856312522 M582.1435973272405,613.3308856312522 L591.3223136964457,618.2672000610534 M591.3223136964457,618.2672000610534 L600.64204484724,623.1502459431653 M600.64204484724,623.1502459431653 L610.1005151877167,627.9775044676715 M505.9717864472625,568.6277052044932 L506.2029168525153,566.918594690224 M688.1328073037392,453.944778020737 L688.489441687915,452.28791877484707" stroke="black"  stroke-width="4"  fill="red"/>
<path d="M465.1714911166324,179.58547504796212 L464.16506138217005,182.12623361352792 M464.16506138217005,182.12623361352792 L463.24938966186664,184.69481161985942 M463.24938966186664,184.69481161985942 L462.4254811881427,187.29065324014306 M462.4254811881427,187.29065324014306 L461.69429851265375,189.91320294814966 M461.69429851265375,189.91320294814966 L461.0567818135256,192.56189386398438 M461.0567818135256,192.56189386398438 L460.5139305576612,195.23609912363668 M460.5139305576612,195.23609912363668 L460.06663517240577,197.9352258145782 M460.06663517240577,197.9352258145782 L459.7158483773686,200.65862178798847 M459.7158483773686,200.65862178798847 L459.462451600329,203.4056434119733 M459.462451600329,203.4056434119733 L459.3073433661375,206.17560956062414 M459.3073433661375,206.17560956062414 L248.82002388305483,216.47854368211813 M248.82002388305483,216.47854368211813 L249.1250636320442,212.56181858462992 M249.1250636320442,212.56181858462992 L249.53713518036676,208.6782401800396 M249.53713518036676,208.6782401800396 L250.05491029999007,204.82823740445303 M250.05491029999007,204.82823740445303 L250.67708492306792,201.01221436789888 M250.67708492306792,201.01221436789888 L251.40235609090047,197.23055123917322 M251.40235609090047,197.23055123917322 L252.22940525807962,193.4836081138393 M252.22940525807962,193.4836081138393 L253.1569227901067,189.771743624556 M253.1569227901067,189.771743624556 L254.18360243605753,186.09528838655376 M254.18360243605753,186.09528838655376 L255.3081479160121,182.45456072582323 M255.3081479160121,182.45456072582323 L256.52926725593517,178.8498409433534 M256.52926725593517,178.8498409433534 L257.8456740785883,175.2814190294156 M257.8456740785883,175.2814190294156 L259.2560650381372,171.7495714081203 M259.2560650381372,171.7495714081203 L465.1714911166324,179.58547504796212 M259.2560650381372,171.7495714081203 L259.2680448545616,170.29237224136574 M259.2680448545616,170.29237224136574 L465.3114677285987,178.12136755112118 M465.1714911166324,179.58547504796212 L465.3114677285987,178.12136755112118 M248.82582953214114,214.98295733082398 L249.13104272482417,211.06949221191445 M249.13104272482417,211.06949221191445 L249.54335486027077,207.18916541823864 M249.54335486027077,207.18916541823864 L250.06143610059218,203.34240503340385 M250.06143610059218,203.34240503340385 L250.68398081034894,199.52961433191012 M250.68398081034894,199.52961433191012 L251.40968449059466,195.75117266401696 M251.40968449059466,195.75117266401696 L252.2372270724402,192.0074393211658 M252.2372270724402,192.0074393211658 L253.16529743029037,188.29877213087332 M253.16529743029037,188.29877213087332 L254.19258785063926,184.62550092546047 M254.19258785063926,184.62550092546047 L255.31780062355347,180.98794325731836 M255.31780062355347,180.98794325731836 L256.5396423735121,177.38637868616138 M256.5396423735121,177.38637868616138 L257.8568253513566,173.82109645222755 M257.8568253513566,173.82109645222755 L259.2680448545616,170.29237224136574 M459.44738617463906,204.68864032179158 L248.82582953214114,214.98295733082398 M465.3114677285987,178.12136755112118 L464.3047750742229,180.65990284723955 M464.3047750742229,180.65990284723955 L463.3888978006738,183.2262415675267 M463.3888978006738,183.2262415675267 L462.5648420868995,185.81982863906347 M462.5648420868995,185.81982863906347 L461.83357142169905,188.440109284804 M461.83357142169905,188.440109284804 L461.1960269215897,191.08651737916358 M461.1960269215897,191.08651737916358 L460.65320903748955,193.75842685885704 M460.65320903748955,193.75842685885704 L460.2060091334233,196.45524557712116 M460.2060091334233,196.45524557712116 L459.8553809128349,199.17632219552797 M459.8553809128349,199.17632219552797 L459.60220675932453,201.92101387863767 M459.60220675932453,201.92101387863767 L459.44738617463906,204.68864032179158 M248.82002388305483,216.47854368211813 L248.82582953214114,214.98295733082398 M459.3073433661375,206.17560956062414 L459.44738617463906,204.68864032179158" stroke="black"  stroke-width="4"  fill="red"/>
<path d="M312.7317143319778,257.53341610565667 L313.02537528293936,254.45478724115634 M313.02537528293936,254.45478724115634 L313.21376670969494,251.38950626275852 M313.21376670969494,251.38950626275852 L313.2977556403883,248.3385215984834 M313.2977556403883,248.3385215984834 L313.27820659406325,245.3027738352714 M313.27820659406325,245.3027738352714 L313.1560342849338,242.2831664041363 M313.1560342849338,242.2831664041363 L312.93216716196605,239.28059273569454 M312.93216716196605,239.28059273569454 L312.60754685213715,236.29592413221172 M312.60754685213715,236.29592413221172 L312.1831714098462,233.32999564318374 M312.1831714098462,233.32999564318374 L311.66001861828073,230.38363684699272 M311.66001861828073,230.38363684699272 L311.0391089077724,227.45765505625326 M311.0391089077724,227.45765505625326 L511.85547204126567,200.80887501112142 M511.85547204126567,200.80887501112142 L513.9408652720635,204.59839463334959 M513.9408652720635,204.59839463334959 L515.935873452595,208.4245101863675 M515.935873452595,208.4245101863675 L517.8390577760936,212.2868939280827 M517.8390577760936,212.2868939280827 L519.6489877539894,216.18517667851188 M519.6489877539894,216.18517667851188 L521.3641705415093,220.11902374350092 M521.3641705415093,220.11902374350092 L522.9832042879772,224.08800710236085 M522.9832042879772,224.08800710236085 L524.5045814477652,228.09173356915153 M524.5045814477652,228.09173356915153 L525.9268600079733,232.12976847007928 M525.9268600079733,232.12976847007928 L527.2485544877665,236.2016503982552 M527.2485544877665,236.2016503982552 L528.468164234528,240.30692645388706 M528.468164234528,240.30692645388706 L529.5842292203884,244.44508634830834 M529.5842292203884,244.44508634830834 L530.5952550812838,248.61561709273673 M530.5952550812838,248.61561709273673 L312.7317143319778,257.53341610565667 M530.5952550812838,248.61561709273673 L530.7886233481163,247.09401752576343 M530.7886233481163,247.09401752576343 L312.78061800655803,256.00483038109394 M312.7317143319778,257.53341610565667 L312.78061800655803,256.00483038109394 M512.0281141375312,199.32644773084883 L514.115490885745,203.11275642599293 M514.115490885745,203.11275642599293 L516.1124412562169,206.93564853162286 M516.1124412562169,206.93564853162286 L518.0175249407913,210.79479711255146 M518.0175249407913,210.79479711255146 L519.8293099191184,214.68983382872324 M519.8293099191184,214.68983382872324 L521.5463017518581,218.62042479509597 M521.5463017518581,218.62042479509597 L523.1670970068567,222.58614287480736 M523.1670970068567,222.58614287480736 L524.6901864656229,226.58659573347376 M524.6901864656229,226.58659573347376 L526.1141264479576,230.62134957910905 M526.1141264479576,230.62134957910905 L527.4374297429472,234.68994390376446 M527.4374297429472,234.68994390376446 L528.658593929542,238.79192669465834 M528.658593929542,238.79192669465834 L529.7761571977161,242.9267885905752 M529.7761571977161,242.9267885905752 L530.7886233481163,247.09401752576343 M311.0855161380941,225.95303431299334 L512.0281141375312,199.32644773084883 M312.78061800655803,256.00483038109394 L313.0743326719553,252.9286018913798 M313.0743326719553,252.9286018913798 L313.2627070990643,249.86572283100008 M313.2627070990643,249.86572283100008 L313.3466095566891,246.81714072343476 M313.3466095566891,246.81714072343476 L313.3269057903979,243.78379524336088 M313.3269057903979,243.78379524336088 L313.20451175974483,240.76658892550148 M313.20451175974483,240.76658892550148 L312.9803571541014,237.76641429930106 M312.9803571541014,237.76641429930106 L312.65538483437905,234.78414177111182 M312.65538483437905,234.78414177111182 L312.2305941095653,231.8206055118074 M312.2305941095653,231.8206055118074 L311.706963988467,228.87663421431995 M311.706963988467,228.87663421431995 L311.0855161380941,225.95303431299334 M511.85547204126567,200.80887501112142 L512.0281141375312,199.32644773084883 M311.0391089077724,227.45765505625326 L311.0855161380941,225.95303431299334" stroke="black"  stroke-width="4"  fill="red"/>
<path d="M264.54758325481885,267.4423271636375 L481.9584437466376,252.26220491667317 M481.9584437466376,252.26220491667317 L484.521012464348,256.40408388092123 M484.521012464348,256.40408388092123 L486.99406206367337,260.5914057824791 M486.99406206367337,260.5914057824791 L489.3760805708929,264.82393353607983 M489.3760805708929,264.82393353607983 L491.66550243292625,269.10143186470617 M491.66550243292625,269.10143186470617 L493.86080282841544,273.42361469512167 M493.86080282841544,273.42361469512167 L495.9603820363237,277.7902101262128 M495.9603820363237,277.7902101262128 L497.96268544958184,282.20090750866694 M497.96268544958184,282.20090750866694 L499.86609547564717,286.65537734252774 M499.86609547564717,286.65537734252774 L501.66898947225525,291.1532740879807 M501.66898947225525,291.1532740879807 L503.3698029769746,295.69422818596377 M503.3698029769746,295.69422818596377 L504.9668436889418,300.2778413835425 M504.9668436889418,300.2778413835425 L506.4585005655032,304.9037004186942 M506.4585005655032,304.9037004186942 L276.33323961888664,299.34760210256894 M276.33323961888664,299.34760210256894 L275.6004679982713,296.0261226628718 M275.6004679982713,296.0261226628718 L274.76541448516997,292.73171626286677 M274.76541448516997,292.73171626286677 L273.8292607501743,289.46518732353604 M273.8292607501743,289.46518732353604 L272.79320934038725,286.22731064877286 M272.79320934038725,286.22731064877286 L271.6584680270401,283.0188418908886 M271.6584680270401,283.0188418908886 L270.42626403231264,279.84050909276016 M270.42626403231264,279.84050909276016 L269.0978238466036,276.6930204446879 M269.0978238466036,276.6930204446879 L267.6743981236484,273.577054881657 M267.6743981236484,273.577054881657 L266.1572327371448,270.4932787327867 M266.1572327371448,270.4932787327867 L264.54758325481885,267.4423271636375 M264.54758325481885,267.4423271636375 L264.5643274892937,265.90609722769517 M276.3587027154862,297.7876054876225 L275.6253446408719,294.4685400150397 M275.6253446408719,294.4685400150397 L274.78963748643315,291.1765417376195 M274.78963748643315,291.1765417376195 L273.85276435591624,287.9124141436305 M273.85276435591624,287.9124141436305 L272.81592922092455,284.67693111577535 M272.81592922092455,284.67693111577535 L271.68034125758953,281.47084738978896 M271.68034125758953,281.47084738978896 L270.44722908272433,278.2948901035958 M270.44722908272433,278.2948901035958 L269.11782055713843,275.1497665491613 M269.11782055713843,275.1497665491613 L267.69336769742415,272.0361547775488 M267.69336769742415,272.0361547775488 L266.17511771293096,268.9547202365471 M266.17511771293096,268.9547202365471 L264.5643274892937,265.90609722769517 M276.33323961888664,299.34760210256894 L276.3587027154862,297.7876054876225 M506.6453561437014,303.339697074159 L276.3587027154862,297.7876054876225 M482.1200299778304,250.73773643435112 L484.6849528115679,254.87637728799 M484.6849528115679,254.87637728799 L487.1603169498253,259.06044768322397 M487.1603169498253,259.06044768322397 L489.54460886010565,263.28971144163904 M489.54460886010565,263.28971144163904 L491.83626136117823,267.5639341944166 M491.83626136117823,267.5639341944166 L494.03374798885204,271.88283081763035 M494.03374798885204,271.88283081763035 L496.1354672960316,276.2461303501887 M496.1354672960316,276.2461303501887 L498.13986293883136,280.6535231132498 M498.13986293883136,280.6535231132498 L500.0453155060443,285.10468059178834 M500.0453155060443,285.10468059178834 L501.8502004942054,289.5992582426049 M501.8502004942054,289.5992582426049 L503.5529515793488,294.13688752011115 M503.5529515793488,294.13688752011115 L505.1518744686473,298.71717120419856 M505.1518744686473,298.71717120419856 L506.6453561437014,303.339697074159 M264.5643274892937,265.90609722769517 L482.1200299778304,250.73773643435112 M506.4585005655032,304.9037004186942 L506.6453561437014,303.339697074159 M481.9584437466376,252.26220491667317 L482.1200299778304,250.73773643435112" stroke="black"  stroke-width="4"  fill="red"/>
<path d="M176.076348368507,243.24301840501914 L162.2567085464181,375.18831213644444 M162.2567085464181,375.18831213644444 L153.61852345669604,375.29198592582685 M153.61852345669604,375.29198592582685 L144.98352857350682,375.31792811688683 M144.98352857350682,375.31792811688683 L136.35531384266858,375.2661277452891 M136.35531384266858,375.2661277452891 L127.73747328402982,375.13661812798307 M127.73747328402982,375.13661812798307 L119.13360782900605,374.9294715701452 M119.13360782900605,374.9294715701452 L110.54727852087012,374.6448244645964 M110.54727852087012,374.6448244645964 L101.98207659322287,374.28283499628026 M101.98207659322287,374.28283499628026 L93.44151204566697,373.84374705279123 M93.44151204566697,373.84374705279123 L84.92911427231934,373.3278225033841 M84.92911427231934,373.3278225033841 L76.44840975250446,372.7353639704055 M76.44840975250446,372.7353639704055 L68.00283900178204,372.0667525887831 M68.00283900178204,372.0667525887831 L59.59585020562258,371.3223836820456 M59.59585020562258,371.3223836820456 L120.51385816528853,242.37565321809763 M120.51385816528853,242.37565321809763 L126.01404495795043,242.7116341494566 M126.01404495795043,242.7116341494566 L131.5340621399826,242.99255736023952 M131.5340621399826,242.99255736023952 L137.07114909499654,243.21822721089245 M137.07114909499654,243.21822721089245 L142.62255320596796,243.38849375271894 M142.62255320596796,243.38849375271894 L148.1855256592595,243.5032562411227 M148.1855256592595,243.5032562411227 L153.75727047664526,243.56242746708853 M153.75727047664526,243.56242746708853 L159.33501544365544,243.56597399625912 M159.33501544365544,243.56597399625912 L164.91597179338356,243.5138938648588 M164.91597179338356,243.5138938648588 L170.49734592153754,243.40621782364622 M170.49734592153754,243.40621782364622 L176.076348368507,243.24301840501914 M176.076348368507,243.24301840501914 L176.03418149374437,241.72567642251715 M120.43499805148952,240.85900202457134 L125.93879632581059,241.19471525993714 M125.93879632581059,241.19471525993714 L131.46244424342308,241.47541475245532 M131.46244424342308,241.47541475245532 L137.00317880562193,241.7009049593956 M137.00317880562193,241.7009049593956 L142.55824500741357,241.8710360039014 M142.55824500741357,241.8710360039014 L148.12489164031996,241.98570718560774 M148.12489164031996,241.98570718560774 L153.70032029445366,242.0448313406202 M153.70032029445366,242.0448313406202 L159.2817563329474,242.04837504865338 M159.2817563329474,242.04837504865338 L164.8664085520782,241.9963363467428 M164.8664085520782,241.9963363467428 L170.4514809055578,241.88874597220985 M170.4514809055578,241.88874597220985 L176.03418149374437,241.72567642251715 M120.51385816528853,242.37565321809763 L120.43499805148952,240.85900202457134 M59.46195315195564,369.7135169867937 L120.43499805148952,240.85900202457134 M162.1988954905019,373.57700659990655 L153.55426553192171,373.68061524734037 M153.55426553192171,373.68061524734037 L144.9128317049669,373.70654114012837 M144.9128317049669,373.70654114012837 L136.27818791238923,373.6547733131448 M136.27818791238923,373.6547733131448 L127.65393212896402,373.5253450777367 M127.65393212896402,373.5253450777367 L119.04366923855969,373.3183287319461 M119.04366923855969,373.3183287319461 L110.45096419465233,373.0338606440346 M110.45096419465233,373.0338606440346 L101.87941215123288,372.6720989833702 M101.87941215123288,372.6720989833702 L93.3325269472009,372.23328759049025 M93.3325269472009,372.23328759049025 L84.8138418125103,371.71768829839044 M84.8138418125103,371.71768829839044 L76.32688703770464,371.1256036892703 M76.32688703770464,371.1256036892703 L67.87510685632049,370.4574148297162 M67.87510685632049,370.4574148297162 L59.46195315195564,369.7135169867937 M176.03418149374437,241.72567642251715 L162.1988954905019,373.57700659990655 M59.59585020562258,371.3223836820456 L59.46195315195564,369.7135169867937 M162.2567085464181,375.18831213644444 L162.1988954905019,373.57700659990655" stroke="black"  stroke-width="4"  fill="red"/>
<path d="M764.7467758062546,488.0078180484803 L758.8213229487862,484.5498781726634 M758.8213229487862,484.5498781726634 L752.85561599834,481.16619079204975 M752.85561599834,481.16619079204975 L746.8512070688308,477.8568869289277 M746.8512070688308,477.8568869289277 L740.8096389206521,474.62206926040676 M740.8096389206521,474.62206926040676 L734.7323921210007,471.4618087096477 M734.7323921210007,471.4618087096477 L728.6209133394021,468.37617537843084 M728.6209133394021,468.37617537843084 L722.4767500288212,465.36527830983505 M722.4767500288212,465.36527830983505 L716.3012735474216,462.4291441111775 M716.3012735474216,462.4291441111775 L710.095878921758,459.56780651757003 M710.095878921758,459.56780651757003 L703.86204153298,456.781359828678 M703.86204153298,456.781359828678 L811.3875258122428,338.7367477823747 M811.3875258122428,338.7367477823747 L819.4308042969571,341.90123085455906 M819.4308042969571,341.90123085455906 L827.4679145895838,345.1398279950598 M827.4679145895838,345.1398279950598 L835.4981964075656,348.4528830425942 M835.4981964075656,348.4528830425942 L843.5209549917219,351.8408537220505 M843.5209549917219,351.8408537220505 L851.5355957138472,355.30410333486526 M851.5355957138472,355.30410333486526 L859.5414360358039,358.8431097849744 M859.5414360358039,358.8431097849744 L867.5376919320607,362.45823833393865 M867.5376919320607,362.45823833393865 L875.5237073747129,366.14996916102666 M875.5237073747129,366.14996916102666 L883.4987396123169,369.91870057386996 M883.4987396123169,369.91870057386996 L891.462028648698,373.76487986802806 M891.462028648698,373.76487986802806 L899.4127418112276,377.6889536910717 M899.4127418112276,377.6889536910717 L907.350082591225,381.69136739735416 M907.350082591225,381.69136739735416 L764.7467758062546,488.0078180484803 M907.350082591225,381.69136739735416 L907.8504458697265,380.0760021721778 M907.8504458697265,380.0760021721778 L765.1757218766547,486.33369575502786 M764.7467758062546,488.0078180484803 L765.1757218766547,486.33369575502786 M811.8003546557372,337.1491917827826 L819.8506082372891,340.3115462235964 M819.8506082372891,340.3115462235964 L827.8947491847755,343.5479780398615 M827.8947491847755,343.5479780398615 L835.9321179630081,346.8588317566502 M835.9321179630081,346.8588317566502 L843.9620205782951,350.2445657371067 M843.9620205782951,350.2445657371067 L851.983863205889,353.70554401181323 M851.983863205889,353.70554401181323 L859.9969640915584,357.2422451673691 M859.9969640915584,357.2422451673691 L868.000539875054,360.8550352509676 M868.000539875054,360.8550352509676 L875.9939353324104,364.54439518269123 M875.9939353324104,364.54439518269123 L883.9764084189777,368.3107240942495 M883.9764084189777,368.3107240942495 L891.9471998506702,372.15447010454625 M891.9471998506702,372.15447010454625 L899.9054776106574,376.0760807164072 M899.9054776106574,376.0760807164072 L907.8504458697265,380.0760021721778 M704.2320250807217,455.12300678233134 L811.8003546557372,337.1491917827826 M765.1757218766547,486.33369575502786 L759.2442862522579,482.87744116933186 M759.2442862522579,482.87744116933186 L753.2726140879136,479.495417586857 M753.2726140879136,479.495417586857 L747.2622582125829,476.18775500754475 M747.2622582125829,476.18775500754475 L741.2147620589532,472.9545551192509 M741.2147620589532,472.9545551192509 L735.131606781414,469.7958878913947 M735.131606781414,469.7958878913947 L729.014239585895,466.7118224924659 M729.014239585895,466.7118224924659 L722.864208532319,463.702467032351 M722.864208532319,463.702467032351 L716.6828853968182,460.76784724744493 M716.6828853968182,460.76784724744493 L710.4716656252629,457.9079960191183 M710.4716656252629,457.9079960191183 L704.2320250807217,455.12300678233134 M811.3875258122428,338.7367477823747 L811.8003546557372,337.1491917827826 M703.86204153298,456.781359828678 L704.2320250807217,455.12300678233134" stroke="black"  stroke-width="4"  fill="red"/>
<path d="M731.3053680499303,409.5918828968857 L726.4096744666593,411.5369571895502 M726.4096744666593,411.5369571895502 L721.582556578477,413.5540629014333 M721.582556578477,413.5540629014333 L716.8251600973786,415.6431793190601 M716.8251600973786,415.6431793190601 L712.1386830730363,417.8042950201565 M712.1386830730363,417.8042950201565 L707.5244479078509,420.0374436737973 M707.5244479078509,420.0374436737973 L702.9835958123614,422.34257699797644 M702.9835958123614,422.34257699797644 L698.5174511813149,424.71969037755264 M698.5174511813149,424.71969037755264 L694.1272545094145,427.1687589275117 M694.1272545094145,427.1687589275117 L689.8142912802239,429.6897732540283 M689.8142912802239,429.6897732540283 L685.57985467737,432.28267443825564 M685.57985467737,432.28267443825564 L490.9253562766447,321.2663165578479 M490.9253562766447,321.2663165578479 L496.5856963574322,318.2306636767309 M496.5856963574322,318.2306636767309 L502.30443337454415,315.26578584318827 M502.30443337454415,315.26578584318827 L508.0807527405841,312.37134275649186 M508.0807527405841,312.37134275649186 L513.9137524865018,309.5469741067655 M513.9137524865018,309.5469741067655 L519.8026623509654,306.7923452480697 M519.8026623509654,306.7923452480697 L525.7466383471755,304.1071099203959 M525.7466383471755,304.1071099203959 L531.7448888404105,301.49094786462024 M531.7448888404105,301.49094786462024 L537.7966660271077,298.94353523852095 M537.7966660271077,298.94353523852095 L543.9012173260915,296.46455973853824 M543.9012173260915,296.46455973853824 L550.0577809791001,294.0537061749924 M550.0577809791001,294.0537061749924 L556.2656557502477,291.71067867206546 M556.2656557502477,291.71067867206546 L562.5241404622595,289.43517174956014 M562.5241404622595,289.43517174956014 L731.3053680499303,409.5918828968857 M562.5241404622595,289.43517174956014 L562.7471124505877,287.88242069799685 M562.7471124505877,287.88242069799685 L731.6824899070526,407.9597093541304 M731.3053680499303,409.5918828968857 L731.6824899070526,407.9597093541304 M491.10393805434524,319.69074106676607 L496.7678081825775,316.65720941844734 M496.7678081825775,316.65720941844734 L502.4901065198351,313.69441465262383 M502.4901065198351,313.69441465262383 L508.2700182875643,310.8020159104623 M508.2700182875643,310.8020159104623 L514.1066412771363,307.9796523621832 M514.1066412771363,307.9796523621832 L519.9992051010414,305.22698884752526 M519.9992051010414,305.22698884752526 L525.946865607904,302.5436786237708 M525.946865607904,302.5436786237708 L531.948831055018,299.9294009534412 M531.948831055018,299.9294009534412 L538.0043535754704,297.3838315410415 M538.0043535754704,297.3838315410415 L544.1126805376182,294.90665764358374 M544.1126805376182,294.90665764358374 L550.273050139546,292.4975636558953 M550.273050139546,292.4975636558953 L556.4847611608312,290.15625329407044 M556.4847611608312,290.15625329407044 L562.7471124505877,287.88242069799685 M685.9283204335314,430.63755976493087 L491.10393805434524,319.69074106676607 M731.6824899070526,407.9597093541304 L726.7836414355885,409.9036487084019 M726.7836414355885,409.9036487084019 L721.9534314003977,411.9195825249821 M721.9534314003977,411.9195825249821 L717.1930059915828,414.0074906557207 M717.1930059915828,414.0074906557207 L712.5035638055235,416.1673622578694 M712.5035638055235,416.1673622578694 L707.8864279270588,418.39923157388546 M707.8864279270588,418.39923157388546 L703.3427401113779,420.7030509618792 M703.3427401113779,420.7030509618792 L698.8738254802191,423.0788164413155 M698.8738254802191,423.0788164413155 L694.4809252125539,425.5265037928698 M694.4809252125539,425.5265037928698 L690.1653255444722,428.04610429916374 M690.1653255444722,428.04610429916374 L685.9283204335314,430.63755976493087 M490.9253562766447,321.2663165578479 L491.10393805434524,319.69074106676607 M685.57985467737,432.28267443825564 L685.9283204335314,430.63755976493087" stroke="black"  stroke-width="4"  fill="red"/>
<path d="M241.89171111234924,340.33473969253464 L246.29821839948102,342.8403305706986 M246.29821839948102,342.8403305706986 L250.80118429092653,345.30824826301824 M250.80118429092653,345.30824826301824 L255.39912121427437,347.73708928035944 M255.39912121427437,347.73708928035944 L260.09046390797073,350.1254571523009 M260.09046390797073,350.1254571523009 L264.8735689222077,352.47196357424923 M264.8735689222077,352.47196357424923 L269.74672108715225,354.77523363197867 M269.74672108715225,354.77523363197867 L274.7081213178282,357.03390197676913 M274.7081213178282,357.03390197676913 L279.75590005920117,359.2466180949664 M279.75590005920117,359.2466180949664 L284.88811730795095,361.41204758182613 M284.88811730795095,361.41204758182613 L290.10274908177104,363.5288734248774 M290.10274908177104,363.5288734248774 L173.23927004188596,510.28726616241136 M173.23927004188596,510.28726616241136 L165.21472176073826,506.89020226401476 M165.21472176073826,506.89020226401476 L157.31140190595022,503.4294175808716 M157.31140190595022,503.4294175808716 L149.5315491090622,499.9068302955262 M149.5315491090622,499.9068302955262 L141.87728366982327,496.3243527200141 M141.87728366982327,496.3243527200141 L134.35061575212012,492.6838949353463 M134.35061575212012,492.6838949353463 L126.95344273238874,488.98740370100234 M126.95344273238874,488.98740370100234 L119.68759199352786,485.23680449556343 M119.68759199352786,485.23680449556343 L112.55473477288939,481.4340454671906 M112.55473477288939,481.4340454671906 L105.55651140562912,477.5810553929606 M105.55651140562912,477.5810553929606 L98.69437800938914,473.67978210438116 M98.69437800938914,473.67978210438116 L91.96974014449756,469.73217799612246 M91.96974014449756,469.73217799612246 L85.38389848957274,465.7401592171907 M85.38389848957274,465.7401592171907 L241.89171111234924,340.33473969253464 M85.38389848957274,465.7401592171907 L85.25989363354427,464.0771553697339 M85.25989363354427,464.0771553697339 L241.89321457954105,338.74610719385845 M241.89171111234924,340.33473969253464 L241.89321457954105,338.74610719385845 M173.1839268899693,508.60264960232075 L165.1528688471613,505.2071450971563 M165.1528688471613,505.2071450971563 L157.2431774832234,501.7479641251899 M157.2431774832234,501.7479641251899 L149.45709332585943,498.22702480720034 M149.45709332585943,498.22702480720034 L141.7967383868001,494.6462393767697 M141.7967383868001,494.6462393767697 L134.26412436637344,491.0075178166787 M134.26412436637344,491.0075178166787 L126.86114999905067,487.31280674819084 M126.86114999905067,487.31280674819084 L119.58964388800996,483.5640314977536 M119.58964388800996,483.5640314977536 L112.45127828181325,479.76314002493973 M112.45127828181325,479.76314002493973 L105.447694425267,475.91206090088315 M105.447694425267,475.91206090088315 L98.58034911869458,472.01274171366583 M98.58034911869458,472.01274171366583 L91.85064849021694,468.06713458273293 M91.85064849021694,468.06713458273293 L85.25989363354427,464.0771553697339 M290.13986403420796,361.924980979879 L173.1839268899693,508.60264960232075 M241.89321457954105,338.74610719385845 L246.30291933958404,341.25001668766646 M246.30291933958404,341.25001668766646 L250.80916654884447,343.71628606629935 M250.80916654884447,343.71628606629935 L255.41046766857392,346.1435124174741 M255.41046766857392,346.1435124174741 L260.10525637465287,348.53029983135394 M260.10525637465287,348.53029983135394 L264.89188805719357,350.87526054772195 M264.89188805719357,350.87526054772195 L269.76864629274826,353.17702017795176 M269.76864629274826,353.17702017795176 L274.7337306394939,355.43421388357905 M274.7337306394939,355.43421388357905 L279.78527009160007,357.64549164334386 M279.78527009160007,357.64549164334386 L284.92132310057,359.80951952720255 M284.92132310057,359.80951952720255 L290.13986403420796,361.924980979879 M173.23927004188596,510.28726616241136 L173.1839268899693,508.60264960232075 M290.10274908177104,363.5288734248774 L290.13986403420796,361.924980979879" stroke="black"  stroke-width="4"  fill="red"/>
<path d="M78.37084395218466,450.24804686839013 L-107.59503754227921,359.05993637068394 M-107.59503754227921,359.05993637068394 L-100.76039012471392,355.28114530001505 M-100.76039012471392,355.28114530001505 L-93.8929301441841,351.5774931138232 M-93.8929301441841,351.5774931138232 L-86.99357552331435,347.9485654878173 M-86.99357552331435,347.9485654878173 L-80.06320506063355,344.3939631174117 M-80.06320506063355,344.3939631174117 L-73.10266607861604,340.91327805757203 M-73.10266607861604,340.91327805757203 L-66.11276882344669,337.5061181521271 M-66.11276882344669,337.5061181521271 L-59.09434041885788,334.1721071048029 M-59.09434041885788,334.1721071048029 L-52.0481862075593,330.9108378663841 M-52.0481862075593,330.9108378663841 L-44.97502799376133,327.7219359317205 M-44.97502799376133,327.7219359317205 L-37.8756707218098,324.60503584682186 M-37.8756707218098,324.60503584682186 L-30.750825183297536,321.5597585060638 M-30.750825183297536,321.5597585060638 L-23.6011814641451,318.58573484554705 M-23.6011814641451,318.58573484554705 L133.01615889037106,423.95580163010726 M133.01615889037106,423.95580163010726 L127.35418713673914,426.25887749161666 M127.35418713673914,426.25887749161666 L121.732623954536,428.6344927051704 M121.732623954536,428.6344927051704 L116.15272537389058,431.08264857892175 M116.15272537389058,431.08264857892175 L110.61578184869768,433.6033209777987 M110.61578184869768,433.6033209777987 L105.12309900198181,436.19648472145036 M105.12309900198181,436.19648472145036 L99.67602632280392,438.8620918744647 M99.67602632280392,438.8620918744647 L94.27589277247705,441.6001057419538 M94.27589277247705,441.6001057419538 L88.92406425768797,444.4104792142484 M88.92406425768797,444.4104792142484 L83.62190887292587,447.29314908963124 M83.62190887292587,447.29314908963124 L78.37084395218466,450.24804686839013 M78.37084395218466,450.24804686839013 L78.24279747831946,448.5931497262367 M132.9332386577288,422.3153600612583 L127.26670615834098,424.6171346128036 M127.26670615834098,424.6171346128036 L121.64059170150506,426.991414584622 M121.64059170150506,426.991414584622 L116.05615170349722,429.4382019404858 M116.05615170349722,429.4382019404858 L110.51467705258693,431.9574732351075 M110.51467705258693,431.9574732351075 L105.01747383852086,434.54920399822674 M105.01747383852086,434.54920399822674 L99.56589207465038,437.21334703667594 M99.56589207465038,437.21334703667594 L94.16126125164976,439.9498664110513 M94.16126125164976,439.9498664110513 L88.80494785831792,442.75871579226873 M88.80494785831792,442.75871579226873 L83.49832059818345,445.63983278712203 M83.49832059818345,445.63983278712203 L78.24279747831946,448.5931497262367 M133.01615889037106,423.95580163010726 L132.9332386577288,422.3153600612583 M-23.78806314745748,317.0120318690141 L132.9332386577288,422.3153600612583 M-107.85044586972657,357.4589310299739 L-101.00995580383778,353.68260098363567 M-101.00995580383778,353.68260098363567 L-94.13667797802486,349.9813784742326 M-94.13667797802486,349.9813784742326 L-87.2315301446049,346.35484839230463 M-87.2315301446049,346.35484839230463 L-80.29539089608227,342.8026106670627 M-80.29539089608227,342.8026106670627 L-73.3291073146367,339.3242566214067 M-73.3291073146367,339.3242566214067 L-66.33348937362149,335.91939338452823 M-66.33348937362149,335.91939338452823 L-59.309363930740744,332.58764396217936 M-59.309363930740744,332.58764396217936 L-52.257536033022745,329.3286006550521 M-52.257536033022745,329.3286006550521 L-45.17872712798908,326.1418883124676 M-45.17872712798908,326.1418883124676 L-38.07374185756731,323.02714085472314 M-38.07374185756731,323.02714085472314 L-30.943290634566324,319.9839785855919 M-30.943290634566324,319.9839785855919 L-23.78806314745748,317.0120318690141 M78.24279747831946,448.5931497262367 L-107.85044586972657,357.4589310299739 M-23.6011814641451,318.58573484554705 L-23.78806314745748,317.0120318690141 M-107.59503754227921,359.05993637068394 L-107.85044586972657,357.4589310299739" stroke="black"  stroke-width="4"  fill="red"/>
<path d="M207.04690082251898,290.6775669046492 L434.7737437675404,325.3505752829817 M434.7737437675404,325.3505752829817 L432.31798098215086,329.7305210407224 M432.31798098215086,329.7305210407224 L429.7291361724849,334.1166636499517 M429.7291361724849,334.1166636499517 L427.0063858099678,338.50781764639294 M427.0063858099678,338.50781764639294 L424.14898522101714,342.90277577460677 M424.14898522101714,342.90277577460677 L421.1561707211696,347.30026902986447 M421.1561707211696,347.30026902986447 L418.02729379303173,351.69903786963926 M418.02729379303173,351.69903786963926 L414.761699495127,356.09777259569944 M414.761699495127,356.09777259569944 L411.3588113094079,360.49514727537746 M411.3588113094079,360.49514727537746 L407.8180797452968,364.88980160618985 M407.8180797452968,364.88980160618985 L404.139023334081,369.28035109297446 M404.139023334081,369.28035109297446 L400.32121999524963,373.6653945850742 M400.32121999524963,373.6653945850742 L396.36429510860273,378.043487347971 M396.36429510860273,378.043487347971 L171.3585170534567,319.95297651642886 M171.3585170534567,319.95297651642886 L175.44210214718572,317.13553914553887 M175.44210214718572,317.13553914553887 L179.41373519428384,314.2894250864161 M179.41373519428384,314.2894250864161 L183.27235688426254,311.4162265719248 M183.27235688426254,311.4162265719248 L187.01698908147245,308.5175270274894 M187.01698908147245,308.5175270274894 L190.64674275665197,305.59490577276097 M190.64674275665197,305.59490577276097 L194.16081168719091,302.64993241896985 M194.16081168719091,302.64993241896985 L197.55846827188537,299.68416743589296 M197.55846827188537,299.68416743589296 L200.83906661387624,296.6991622613346 M200.83906661387624,296.6991622613346 L204.00204154633968,293.69645447880725 M204.00204154633968,293.69645447880725 L207.04690082251898,290.6775669046492 M207.04690082251898,290.6775669046492 L207.02423572363244,289.1239008795962 M171.3098918722132,318.37831731660674 L175.39649291179404,315.5628530017949 M175.39649291179404,315.5628530017949 L179.3710492595365,312.71874231075594 M179.3710492595365,312.71874231075594 L183.23250119143677,309.8475766576271 M183.23250119143677,309.8475766576271 L186.97987025091254,306.95093863506236 M186.97987025091254,306.95093863506236 L190.61226718393863,304.0304067121613 M190.61226718393863,304.0304067121613 L194.128885633189,301.0875496354382 M194.128885633189,301.0875496354382 L197.52899794794473,298.1239269950986 M197.52899794794473,298.1239269950986 L200.81195826728566,295.1410893341839 M200.81195826728566,295.1410893341839 L203.97720154327789,292.1405733295576 M203.97720154327789,292.1405733295576 L207.02423572363244,289.1239008795962 M171.3585170534567,319.95297651642886 L171.3098918722132,318.37831731660674 M396.48127769223265,376.43039278898743 L171.3098918722132,318.37831731660674 M434.9128986530794,323.77216427638814 L432.4559189036863,328.149092764384 M432.4559189036863,328.149092764384 L429.86574847982456,332.53223823663797 M429.86574847982456,332.53223823663797 L427.14156197358045,336.92041613271954 M427.14156197358045,336.92041613271954 L424.2826128828848,341.31242008930633 M424.2826128828848,341.31242008930633 L421.2881356721141,345.7069820079065 M421.2881356721141,345.7069820079065 L418.1574800574946,350.102843217704 M418.1574800574946,350.102843217704 L414.88998932275376,354.4986948967931 M414.88998932275376,354.4986948967931 L411.4850852343303,358.893211970088 M411.4850852343303,358.893211970088 L407.94221660792255,363.2850349851339 M407.94221660792255,363.2850349851339 L404.2609003362984,367.672780281849 M404.2609003362984,367.672780281849 L400.4407127524204,372.05504752434103 M400.4407127524204,372.05504752434103 L396.48127769223265,376.43039278898743 M207.02423572363244,289.1239008795962 L434.9128986530794,323.77216427638814 M396.36429510860273,378.043487347971 L396.48127769223265,376.43039278898743 M434.7737437675404,325.3505752829817 L434.9128986530794,323.77216427638814" stroke="black"  stroke-width="4"  fill="red"/></svg>