<svg viewBox="0 0 800 800" xmlns="http://www.w3.org/2000/svg"><path d="M367.7647398064413,372.029087861844 L363.7365067950626,374.0750174460984 M363.7365067950626,374.0750174460984 L210.92753199771482,282.60833953309333 M210.92753199771482,282.60833953309333 L215.39657366114238,280.8246531801232 M215.39657366114238,280.8246531801232 L219.79027122298743,279.00459869444006 M219.79027122298743,279.00459869444006 L224.10700603384993,277.1492178268922 M224.10700603384993,277.1492178268922 L228.34520045067597,275.2595490594595 M228.34520045067597,275.2595490594595 L232.50334667366928,273.3366492196828 M232.50334667366928,273.3366492196828 L236.580006884439,271.3815861514591 M236.580006884439,271.3815861514591 L240.57380426234505,269.3954299631502 M240.57380426234505,269.3954299631502 L244.48340748450198,267.3792601571284 M244.48340748450198,267.3792601571284 L248.30756627394726,265.3341585290948 M248.30756627394726,265.3341585290948 L252.0450868714915,263.2612146786342 M252.0450868714915,263.2612146786342 L428.4655918630916,335.2568329042944 M428.4655918630916,335.2568329042944 L424.0062023902925,338.45423149562765 M424.0062023902925,338.45423149562765 L419.43608319283624,341.631322049595 M419.43608319283624,341.631322049595 L414.7556507782425,344.7869507187275 M414.7556507782425,344.7869507187275 L409.9653704442603,347.9199658326532 M409.9653704442603,347.9199658326532 L405.06578698197757,351.02920036590734 M405.06578698197757,351.02920036590734 L400.0574763406589,354.11348708008705 M400.0574763406589,354.11348708008705 L394.9410772306811,357.1716481631432 M394.9410772306811,357.1716481631432 L389.71731214003864,360.2024994746102 M389.71731214003864,360.2024994746102 L384.38693810996085,363.2048662154783 M384.38693810996085,363.2048662154783 L378.9507855080438,366.177544312068 M378.9507855080438,366.177544312068 L373.4097314810394,369.1193498283805 M373.4097314810394,369.1193498283805 L367.7647398064413,372.029087861844 M367.7647398064413,372.029087861844 L367.8332145667898,370.4589339168331 M367.8332145667898,370.4589339168331 L363.80223336386456,372.5034442702725 M363.80223336386456,372.5034442702725 L363.7365067950626,374.0750174460984 M363.80223336386456,372.5034442702725 L210.8877862710885,281.1054271325816 M210.92753199771482,282.60833953309333 L210.8877862710885,281.1054271325816 M428.4655918630916,335.2568329042944 L428.5736105197459,333.71309692016797 M428.5736105197459,333.71309692016797 L424.1114611289901,336.90813002711957 M424.1114611289901,336.90813002711957 L419.538485198794,340.0828830256634 M419.538485198794,340.0828830256634 L414.85509892470316,343.23620266370426 M414.85509892470316,343.23620266370426 L410.06176735272527,346.36693784779885 M410.06176735272527,346.36693784779885 L405.1590351036019,349.47392212398773 M405.1590351036019,349.47392212398773 L400.1474780067854,352.5559888091189 M400.1474780067854,352.5559888091189 L395.02773472579815,355.61196063789373 M395.02773472579815,355.61196063789373 L389.8005277913637,358.64065400525874 M389.8005277913637,358.64065400525874 L384.466614344988,361.6408946254903 M384.466614344988,361.6408946254903 L379.0268249377574,364.6114789437927 M379.0268249377574,364.6114789437927 L373.48203696934564,367.55122351401127 M373.48203696934564,367.55122351401127 L367.8332145667898,370.4589339168331 M252.03251598732817,261.77419150096904 L428.5736105197459,333.71309692016797 M210.8877862710885,281.1054271325816 L215.359819278528,279.3231857090369 M215.359819278528,279.3231857090369 L219.75645003270586,277.50460979282167 M219.75645003270586,277.50460979282167 L224.07605875467073,275.65074053784076 M224.07605875467073,275.65074053784076 L228.31706672815517,273.7626158268171 M228.31706672815517,273.7626158268171 L232.47796515421447,271.8412918675602 M232.47796515421447,271.8412918675602 L236.55731528924463,269.887835869119 M236.55731528924463,269.887835869119 L240.5537394551585,267.9033172965381 M240.5537394551585,267.9033172965381 L244.4659055286295,265.8888149940382 M244.4659055286295,265.8888149940382 L248.29256251177446,263.8454100896959 M248.29256251177446,263.8454100896959 L252.03251598732817,261.77419150096904 M252.0450868714915,263.2612146786342 L252.03251598732817,261.77419150096904" stroke="black"  stroke-width="4"  fill="red"/>
<path d="M424.68769405340015,429.0292761734315 L419.5733413299042,426.5552164660565 M419.5733413299042,426.5552164660565 L414.4136139283444,424.14570124696326 M414.4136139283444,424.14570124696326 L409.20977543059814,421.8007884305039 M409.20977543059814,421.8007884305039 L403.9631367241982,419.5205637849165 M403.9631367241982,419.5205637849165 L398.67496815904155,417.3050913547425 M398.67496815904155,417.3050913547425 L393.3465299912848,415.1544309313417 M393.3465299912848,415.1544309313417 L387.97908041044775,413.0686428007396 M387.97908041044775,413.0686428007396 L382.573839503374,411.047768351515 M382.573839503374,411.047768351515 L377.13203520681515,409.0918543862452 M377.13203520681515,409.0918543862452 L371.65486663984336,407.20093425911597 M371.65486663984336,407.20093425911597 L466.6323830943203,294.13306796100846 M466.6323830943203,294.13306796100846 L473.6445171444328,296.2139305228044 M473.6445171444328,296.2139305228044 L480.63784074843977,298.35622616542923 M480.63784074843977,298.35622616542923 L487.6117940143563,300.56018602418425 M487.6117940143563,300.56018602418425 L494.5657622328803,302.82605457613647 M494.5657622328803,302.82605457613647 L501.499145499493,305.15408789714144 M501.499145499493,305.15408789714144 L508.4113133732052,307.54453153333594 M508.4113133732052,307.54453153333594 L515.3016345025522,309.9976471484661 M515.3016345025522,309.9976471484661 L522.1694661446727,312.51369541448696 M522.1694661446727,312.51369541448696 L529.0141283750696,315.0929356067388 M529.0141283750696,315.0929356067388 L535.8349525683913,317.7356493701798 M535.8349525683913,317.7356493701798 L542.6312351877432,320.44210613911577 M542.6312351877432,320.44210613911577 L549.4022793334857,323.21258336955503 M549.4022793334857,323.21258336955503 L424.68769405340015,429.0292761734315 M549.4022793334857,323.21258336955503 L549.5914433753213,321.6778748773596 M549.5914433753213,321.6778748773596 L424.80227168623946,427.42157821571783 M424.68769405340015,429.0292761734315 L424.80227168623946,427.42157821571783 M466.76156681745965,292.6209173245213 L473.7786138732647,294.70012990275217 M473.7786138732647,294.70012990275217 L480.7768647884982,296.8407326139595 M480.7768647884982,296.8407326139595 L487.75576007527036,299.04295691490285 M487.75576007527036,299.04295691490285 L494.71468539011073,301.30704761075975 M494.71468539011073,301.30704761075975 L501.65304120205667,303.63326111388835 M501.65304120205667,303.63326111388835 L508.57019741773036,306.0218433328878 M508.57019741773036,306.0218433328878 L515.4655230306571,308.47305629933993 M515.4655230306571,308.47305629933993 L522.3383756306044,310.98716107205075 M522.3383756306044,310.98716107205075 L529.1880755954437,313.56441733273203 M529.1880755954437,313.56441733273203 L536.0139546081417,316.20510713425796 M536.0139546081417,316.20510713425796 L542.815309408975,318.9095003472969 M542.815309408975,318.9095003472969 L549.5914433753213,321.6778748773596 M371.7283571506056,405.6071245947506 L466.76156681745965,292.6209173245213 M424.80227168623946,427.42157821571783 L419.6838574036267,424.9490621138333 M419.6838574036267,424.9490621138333 L414.52005665798004,422.54105772910447 M414.52005665798004,422.54105772910447 L409.3121335477714,420.1976223445877 M409.3121335477714,420.1976223445877 L404.06139949526334,417.9188410948153 M404.06139949526334,417.9188410948153 L398.769125333807,415.70477741946223 M398.769125333807,415.70477741946223 L393.43657177677744,413.55549052304696 M393.43657177677744,413.55549052304696 L388.06499745160534,411.4710401198369 M388.06499745160534,411.4710401198369 L382.6556228363158,409.4514670542916 M382.6556228363158,409.4514670542916 L377.2096762486325,407.4968175970458 M377.2096762486325,407.4968175970458 L371.7283571506056,405.6071245947506 M466.6323830943203,294.13306796100846 L466.76156681745965,292.6209173245213 M371.65486663984336,407.20093425911597 L371.7283571506056,405.6071245947506" stroke="black"  stroke-width="4"  fill="red"/>
<path d="M503.6435470671223,382.6329133775435 L654.7833024288668,301.6170695326108 M654.7833024288668,301.6170695326108 L660.9866479794506,304.8089278360098 M660.9866479794506,304.8089278360098 L667.1559618787148,308.0609098073207 M667.1559618787148,308.0609098073207 L673.2902958546243,311.37324992672296 M673.2902958546243,311.37324992672296 L679.3886893878454,314.74615628136405 M679.3886893878454,314.74615628136405 L685.45009008264,318.1798646134442 M685.45009008264,318.1798646134442 L691.4734810114999,321.67458305116605 M691.4734810114999,321.67458305116605 L697.4578564489366,325.2305257882741 M697.4578564489366,325.2305257882741 L703.402121094535,328.84791281982893 M703.402121094535,328.84791281982893 L709.3051936796026,332.5269483517951 M709.3051936796026,332.5269483517951 L715.1659713883034,336.2678269403808 M715.1659713883034,336.2678269403808 L720.9832704993246,340.07077591717893 M720.9832704993246,340.07077591717893 L726.7559585186573,343.93597623779243 M726.7559585186573,343.93597623779243 L546.8851989749305,411.6071534086421 M546.8851989749305,411.6071534086421 L542.8344741231289,408.463462876136 M542.8344741231289,408.463462876136 L538.7190113201076,405.37373806832136 M538.7190113201076,405.37373806832136 L534.5403447014783,402.33828903889076 M534.5403447014783,402.33828903889076 L530.2999647025374,399.3574221775823 M530.2999647025374,399.3574221775823 L525.9993440713963,396.4314049622717 M525.9993440713963,396.4314049622717 L521.6399550061329,393.56051113850856 M521.6399550061329,393.56051113850856 L517.2232621727513,390.74498952949347 M517.2232621727513,390.74498952949347 L512.7506758791665,387.98506127588746 M512.7506758791665,387.98506127588746 L508.2236369681224,385.2809718853838 M508.2236369681224,385.2809718853838 L503.6435470671223,382.6329133775435 M503.6435470671223,382.6329133775435 L503.81035034295815,381.0554615447533 M547.0881769087872,410.0104913628964 L543.0339211133543,406.86883338007004 M543.0339211133543,406.86883338007004 L538.9149053463664,403.7811185042551 M538.9149053463664,403.7811185042551 L534.7326648751198,400.74765594800607 M534.7326648751198,400.74765594800607 L530.4886912057042,397.7687512687714 M530.4886912057042,397.7687512687714 L526.1844581102081,394.8446711446709 M526.1844581102081,394.8446711446709 L521.8214387846226,391.975688524797 M521.8214387846226,391.975688524797 L517.4010988571896,389.16205146019996 M517.4010988571896,389.16205146019996 L512.9248495289802,386.40398034618937 M512.9248495289802,386.40398034618937 L508.3941325371394,383.7017199372649 M508.3941325371394,383.7017199372649 L503.81035034295815,381.0554615447533 M546.8851989749305,411.6071534086421 L547.0881769087872,410.0104913628964 M727.0719090096544,342.3858496066407 L547.0881769087872,410.0104913628964 M655.0389447485475,300.0990103524535 L661.2472219796182,303.288370427445 M661.2472219796182,303.288370427445 L667.4214851625709,306.53782046409464 M667.4214851625709,306.53782046409464 L673.5607859454489,309.8475955090482 M673.5607859454489,309.8475955090482 L679.6641637015241,313.21790425404924 M679.6641637015241,313.21790425404924 L685.7305658594341,316.6489830423555 M685.7305658594341,316.6489830423555 L691.7589753186861,320.1410406424238 M691.7589753186861,320.1410406424238 L697.7483861754503,323.69429190159195 M697.7483861754503,323.69429190159195 L703.6977028763554,327.30895748235326 M703.6977028763554,327.30895748235326 L709.6058438888809,330.9852422883408 M709.6058438888809,330.9852422883408 L715.4717060990921,334.7233415989171 M715.4717060990921,334.7233415989171 L721.2941054234927,338.52348346302966 M721.2941054234927,338.52348346302966 L727.0719090096544,342.3858496066407 M503.81035034295815,381.0554615447533 L655.0389447485475,300.0990103524535 M726.7559585186573,343.93597623779243 L727.0719090096544,342.3858496066407 M654.7833024288668,301.6170695326108 L655.0389447485475,300.0990103524535" stroke="black"  stroke-width="4"  fill="red"/>
<path d="M80.67072808911786,401.3895163156716 L243.28694929523516,304.4797817563318 M16.123271414306032,361.56963892242413 L20.804146807975485,365.05527506598656 M20.804146807975485,365.05527506598656 L25.614082071296025,368.5153794235803 M25.614082071296025,368.5153794235803 L30.552590177745913,371.94849621926573 M30.552590177745913,371.94849621926573 L35.61915389807399,375.3531644264122 M35.61915389807399,375.3531644264122 L40.81314267660025,378.72793421567314 M40.81314267660025,378.72793421567314 L46.13386747468837,382.07131789711315 M46.13386747468837,382.07131789711315 L51.58054016250344,385.3818525142637 M51.58054016250344,385.3818525142637 L57.152331857668,388.65803486938114 M57.152331857668,388.65803486938114 L62.84830628987186,391.8983848129414 M62.84830628987186,391.8983848129414 L68.667445332169,395.10141127880496 M68.667445332169,395.10141127880496 L74.60863284275888,398.26562114274435 M74.60863284275888,398.26562114274435 L80.67072808911786,401.3895163156716 M201.91662333482424,284.9729083164531 L16.123271414306032,361.56963892242413 M243.28694929523516,304.4797817563318 L238.7812940256805,302.69290424387793 M238.7812940256805,302.69290424387793 L234.3534192105359,300.86674704390435 M234.3534192105359,300.86674704390435 L230.00499558551985,299.00236959199503 M230.00499558551985,299.00236959199503 L225.73760505235032,297.1008409251124 M225.73760505235032,297.1008409251124 L221.55279865658724,295.16324709267593 M221.55279865658724,295.16324709267593 L217.45204197956446,293.19068024722077 M217.45204197956446,293.19068024722077 L213.4367364853037,291.1842460417811 M213.4367364853037,291.1842460417811 L209.50822601946135,289.14505939259817 M209.50822601946135,289.14505939259817 L205.66778541114826,287.0742370696818 M205.66778541114826,287.0742370696818 L201.91662333482424,284.9729083164531 M243.28694929523516,304.4797817563318 L243.26800488470406,302.95948136601197 M80.53118775956716,399.79950653419087 L243.26800488470406,302.95948136601197 M80.67072808911786,401.3895163156716 L80.53118775956716,399.79950653419087 M243.26800488470406,302.95948136601197 L238.75937280456031,301.17400157058677 M238.75937280456031,301.17400157058677 L234.32858424376593,299.34927701661576 M234.32858424376593,299.34927701661576 L229.9773110827773,297.4863665789973 M229.9773110827773,297.4863665789973 L225.70713627739934,295.58633872203785 M225.70713627739934,295.58633872203785 L221.51961187539501,293.65027890402655 M221.51961187539501,293.65027890402655 L217.4162043728163,291.67927867585894 M217.4162043728163,291.67927867585894 L213.39831607543817,289.67444307194756 M213.39831607543817,289.67444307194756 L209.4672916026749,287.63688637566844 M209.4672916026749,287.63688637566844 L205.62440648278982,285.56772471528177 M205.62440648278982,285.56772471528177 L201.87087001698404,283.4680866745345 M201.87087001698404,283.4680866745345 L15.943049904206987,360.0068238911437 M15.943049904206987,360.0068238911437 L20.62666942131034,363.48999883435124 M20.62666942131034,363.48999883435124 L25.43946525209992,366.9476753341021 M25.43946525209992,366.9476753341021 L30.380950867193235,370.3783982886846 M30.380950867193235,370.3783982886846 L35.450609478022955,373.7807073265272 M35.450609478022955,373.7807073265272 L40.64781084964909,377.1531532432834 M40.64781084964909,377.1531532432834 L45.97186618858018,380.4942489782076 M45.97186618858018,380.4942489782076 L51.42198749415019,383.8025321655409 M51.42198749415019,383.8025321655409 L56.997345946572864,387.0765002046736 M56.997345946572864,387.0765002046736 L62.69700521266731,390.31467350705236 M62.69700521266731,390.31467350705236 L68.51994699842942,393.51556155509405 M68.51994699842942,393.51556155509405 L74.4650548759389,396.6776717553228 M74.4650548759389,396.6776717553228 L80.53118775956716,399.79950653419087 M16.123271414306032,361.56963892242413 L15.943049904206987,360.0068238911437 M201.91662333482424,284.9729083164531 L201.87087001698404,283.4680866745345" stroke="black"  stroke-width="4"  fill="red"/>
<path d="M303.55160268602486,340.6904459024117 L304.89237154760707,343.9117943044316 M304.89237154760707,343.9117943044316 L306.3456848071346,347.13865823855605 M306.3456848071346,347.13865823855605 L307.911992214687,350.3698602676979 M307.911992214687,350.3698602676979 L309.5916984587602,353.6042011739131 M309.5916984587602,353.6042011739131 L311.38516331662936,356.84045732408777 M311.38516331662936,356.84045732408777 L313.29269479030336,360.07738317157344 M313.29269479030336,360.07738317157344 L315.3145550183137,363.3137137913772 M315.3145550183137,363.3137137913772 L317.450947020393,366.54816399092664 M317.450947020393,366.54816399092664 L319.70202555940784,369.7794226650604 M319.70202555940784,369.7794226650604 L322.0678859468325,373.0061642000217 M322.0678859468325,373.0061642000217 L119.27188200976889,458.2867862515287 M119.27188200976889,458.2867862515287 L115.84000764794712,453.3777350211508 M115.84000764794712,453.3777350211508 L112.55651482496273,448.47200747612254 M112.55651482496273,448.47200747612254 L109.4206226380121,443.5710567472446 M109.4206226380121,443.5710567472446 L106.43145858617015,438.67632414511075 M106.43145858617015,438.67632414511075 L103.58810603905351,433.78921240034134 M103.58810603905351,433.78921240034134 L100.889639185428,428.9110708557881 M100.889639185428,428.9110708557881 L98.33503430424685,424.04324618197137 M98.33503430424685,424.04324618197137 L95.92327349766902,419.1870207095829 M95.92327349766902,419.1870207095829 L93.65327813740805,414.34365925675485 M93.65327813740805,414.34365925675485 L91.52394209670132,409.5143751693312 M91.52394209670132,409.5143751693312 L89.53410077444312,404.70038101747303 M89.53410077444312,404.70038101747303 L87.68258846848141,399.90281746858074 M87.68258846848141,399.90281746858074 L303.55160268602486,340.6904459024117 M87.68258846848141,399.90281746858074 L87.54834711004855,398.3137867019893 M87.54834711004855,398.3137867019893 L303.5737128417038,339.1426977907057 M303.55160268602486,340.6904459024117 L303.5737128417038,339.1426977907057 M119.15502118750345,456.66142574412646 L115.72100210480471,451.7552618940798 M115.72100210480471,451.7552618940798 L112.4354986241832,446.8524504614748 M112.4354986241832,446.8524504614748 L109.29772768594262,441.9544436370662 M109.29772768594262,441.9544436370662 L106.30681456497723,437.0626817623752 M106.30681456497723,437.0626817623752 L103.46184038085079,432.17856658688504 M103.46184038085079,432.17856658688504 L100.76187707649888,427.30344647079187 M100.76187707649888,427.30344647079187 L98.20589861936082,422.43866707036267 M98.20589861936082,422.43866707036267 L95.79288482102504,417.5855097098393 M95.79288482102504,417.5855097098393 L93.52175473060652,412.74523818086436 M93.52175473060652,412.74523818086436 L91.39139989721832,407.9190648054703 M91.39139989721832,407.9190648054703 L89.40065336730584,403.1082011013608 M89.40065336730584,403.1082011013608 L87.54834711004855,398.3137867019893 M322.1038517538798,371.4353318062354 L119.15502118750345,456.66142574412646 M303.5737128417038,339.1426977907057 L304.91547806818255,342.361685345615 M304.91547806818255,342.361685345615 L306.36987168142645,345.5861976490876 M306.36987168142645,345.5861976490876 L307.9373444288922,348.81505818297023 M307.9373444288922,348.81505818297023 L309.6183019654171,352.04706864459496 M309.6183019654171,352.04706864459496 L311.41310500219186,355.2810063138416 M311.41310500219186,355.2810063138416 L313.32206243646965,358.51562655245436 M313.32206243646965,358.51562655245436 L315.3454372660406,361.749665336969 M315.3454372660406,361.749665336969 L317.48343332297867,364.9818383697014 M317.48343332297867,364.9818383697014 L319.73620614143783,368.21083543727985 M319.73620614143783,368.21083543727985 L322.1038517538798,371.4353318062354 M119.27188200976889,458.2867862515287 L119.15502118750345,456.66142574412646 M322.0678859468325,373.0061642000217 L322.1038517538798,371.4353318062354" stroke="black"  stroke-width="4"  fill="red"/>
<path d="M786.660707822856,530.6089419331604 L787.8777849148055,535.1458424158286 M787.8777849148055,535.1458424158286 L789.2326317338099,539.7220047290289 M789.2326317338099,539.7220047290289 L790.7262515811803,544.3363223729225 M790.7262515811803,544.3363223729225 L792.3596639873679,548.9877021606335 M792.3596639873679,548.9877021606335 L794.1337816891426,553.6749513102639 M794.1337816891426,553.6749513102639 L796.0496182042828,558.3969196314497 M796.0496182042828,558.3969196314497 L798.1080647405574,563.152365178775 M798.1080647405574,563.152365178775 L800.3099139620747,567.9399828565083 M800.3099139620747,567.9399828565083 L802.6560254516996,572.7584768884333 M802.6560254516996,572.7584768884333 L805.1471555591927,577.6064866424904 M805.1471555591927,577.6064866424904 L546.4785520288701,624.8651280746769 M546.4785520288701,624.8651280746769 L543.6258055293089,617.7828706879002 M543.6258055293089,617.7828706879002 L540.945498871532,610.7593581237545 M540.945498871532,610.7593581237545 L538.4356876287114,603.7954642373795 M538.4356876287114,603.7954642373795 L536.0943159054025,596.8919103640781 M536.0943159054025,596.8919103640781 L533.9194174641437,590.0494687413573 M533.9194174641437,590.0494687413573 L531.9089003375457,583.268781115783 M531.9089003375457,583.268781115783 L530.0608343394133,576.5505357976388 M530.0608343394133,576.5505357976388 L528.3730880648471,569.8952610932479 M528.3730880648471,569.8952610932479 L526.843709490599,563.3035712189583 M526.843709490599,563.3035712189583 L525.4706408116843,556.775951602174 M525.4706408116843,556.775951602174 L524.2518345829155,550.3128676159588 M524.2518345829155,550.3128676159588 L523.1852975092344,543.9147792927854 M523.1852975092344,543.9147792927854 L786.660707822856,530.6089419331604 M523.1852975092344,543.9147792927854 L523.3920442184498,542.2439958306572 M523.3920442184498,542.2439958306572 L787.0796022369431,528.9446034156588 M786.660707822856,530.6089419331604 L787.0796022369431,528.9446034156588 M546.7186440541689,623.1599987094812 L543.8621760092772,616.0804126917665 M543.8621760092772,616.0804126917665 L541.1783327716802,609.0596125009697 M541.1783327716802,609.0596125009697 L538.6651657697113,602.0984700639804 M538.6651657697113,602.0984700639804 L536.3206149098733,595.197704832601 M536.3206149098733,595.197704832601 L534.1427099123964,588.3580871280701 M534.1427099123964,588.3580871280701 L532.1293547084802,581.5802568234963 M532.1293547084802,581.5802568234963 L530.2786152263952,574.864900327819 M530.2786152263952,574.864900327819 L528.5883560495495,568.2125441081259 M528.5883560495495,568.2125441081259 L527.0566213793411,561.6238004999602 M527.0566213793411,561.6238004999602 L525.681349595856,555.0991531038576 M525.681349595856,555.0991531038576 L524.4604895153554,548.6390654748959 M524.4604895153554,548.6390654748959 L523.3920442184498,542.2439958306572 M805.59709010054,575.9203933057922 L546.7186440541689,623.1599987094812 M787.0796022369431,528.9446034156588 L788.2991641781525,533.4792810013423 M788.2991641781525,533.4792810013423 L789.6566287213445,538.0532277638699 M789.6566287213445,538.0532277638699 L791.1530009353346,542.6653384167803 M791.1530009353346,542.6653384167803 L792.7893021639264,547.3145209599777 M792.7893021639264,547.3145209599777 L794.5664468631444,551.9995838239397 M794.5664468631444,551.9995838239397 L796.4854503930599,556.7193779877284 M796.4854503930599,556.7193779877284 L798.5472056964938,561.4726626937966 M798.5472056964938,561.4726626937966 L800.752507091575,566.2581340366853 M800.752507091575,566.2581340366853 L803.1022158948093,571.0744973985729 M803.1022158948093,571.0744973985729 L805.59709010054,575.9203933057922 M546.4785520288701,624.8651280746769 L546.7186440541689,623.1599987094812 M805.1471555591927,577.6064866424904 L805.59709010054,575.9203933057922" stroke="black"  stroke-width="4"  fill="red"/>
<path d="M331.1443230305138,261.1891342449248 L535.9732403410576,247.6077384818821 M535.9732403410576,247.6077384818821 L538.4792898363711,251.31542680588137 M538.4792898363711,251.31542680588137 L540.9007714903951,255.06225040008837 M540.9007714903951,255.06225040008837 L543.2362762972183,258.8479523589648 M543.2362762972183,258.8479523589648 L545.4843672800641,262.6722649747984 M545.4843672800641,262.6722649747984 L547.6436168856587,266.5349045448525 M547.6436168856587,266.5349045448525 L549.7125872685011,270.43556122049756 M549.7125872685011,270.43556122049756 L551.6898306092004,274.37389794110277 M551.6898306092004,274.37389794110277 L553.5738521010304,278.34959901684505 M553.5738521010304,278.34959901684505 L555.3632126360042,282.3622837414447 M555.3632126360042,282.3622837414447 L557.0563995312485,286.4115787048942 M557.0563995312485,286.4115787048942 L558.6519436997036,290.4970820142177 M558.6519436997036,290.4970820142177 L560.1483375955781,294.61836881557264 M560.1483375955781,294.61836881557264 L343.2359952640989,289.6680808619547 M343.2359952640989,289.6680808619547 L342.44460885345285,286.70746664086494 M342.44460885345285,286.70746664086494 L341.5573917547217,283.7700283836916 M341.5573917547217,283.7700283836916 L340.57544296645835,280.85650860643347 M340.57544296645835,280.85650860643347 L339.49987974017927,277.96761992009704 M339.49987974017927,277.96761992009704 L338.33182541881763,275.10405863443697 M338.33182541881763,275.10405863443697 L337.07242008959685,272.2664989259689 M337.07242008959685,272.2664989259689 L335.7228081030633,269.4555998170866 M335.7228081030633,269.4555998170866 L334.2841341987684,266.6720041135105 M334.2841341987684,266.6720041135105 L332.7575856053468,263.9163124733183 M332.7575856053468,263.9163124733183 L331.1443230305138,261.1891342449248 M331.1443230305138,261.1891342449248 L331.18250965233295,259.7038410823941 M343.28323871167777,288.159489280766 L342.49119652980846,285.201248981713 M342.49119652980846,285.201248981713 L341.603264842825,282.26617710177686 M341.603264842825,282.26617710177686 L340.62054390005903,279.3550152943342 M340.62054390005903,279.3550152943342 L339.5441521957587,276.4684753232563 M339.5441521957587,276.4684753232563 L338.3752142998819,273.60725265629065 M338.3752142998819,273.60725265629065 L337.11487151739925,270.7720206383896 M337.11487151739925,270.7720206383896 L335.7642693992631,267.96343746568954 M335.7642693992631,267.96343746568954 L334.32455386538146,265.18214512433536 M334.32455386538146,265.18214512433536 L332.7969133306552,262.42874348161666 M332.7969133306552,262.42874348161666 L331.18250965233295,259.7038410823941 M343.2359952640989,289.6680808619547 L343.28323871167777,288.159489280766 M560.3395544487959,293.1058328749031 L343.28323871167777,288.159489280766 M536.1405066059309,246.1339201022177 L538.6487730124288,249.83845251495677 M538.6487730124288,249.83845251495677 L541.0724362554691,253.58210468120387 M541.0724362554691,253.58210468120387 L543.4100859580916,257.3646204716638 M543.4100859580916,257.3646204716638 L545.6602837247152,261.1857329647349 M545.6602837247152,261.1857329647349 L547.8216005580769,265.04515925757295 M547.8216005580769,265.04515925757295 L549.8925971287485,268.94259032306303 M549.8925971287485,268.94259032306303 L551.8718240930091,272.8776899437907 M551.8718240930091,272.8776899437907 L553.7577850635379,276.85014325444774 M553.7577850635379,276.85014325444774 L555.549039346467,280.85957042486325 M555.549039346467,280.85957042486325 L557.2440725961364,284.9055989127582 M557.2440725961364,284.9055989127582 L558.8414140555517,288.9878277131006 M558.8414140555517,288.9878277131006 L560.3395544487959,293.1058328749031 M331.18250965233295,259.7038410823941 L536.1405066059309,246.1339201022177 M560.1483375955781,294.61836881557264 L560.3395544487959,293.1058328749031 M535.9732403410576,247.6077384818821 L536.1405066059309,246.1339201022177" stroke="black"  stroke-width="4"  fill="red"/>
<path d="M788.0366047336096,362.2605269591644 L713.6259466473886,488.61322435840754 M713.6259466473886,488.61322435840754 L704.694075837974,485.8033028157046 M704.694075837974,485.8033028157046 L695.8423908752209,482.93171540087263 M695.8423908752209,482.93171540087263 L687.0737949105961,480.0000110383883 M687.0737949105961,480.0000110383883 L678.3911863750134,477.009776590242 M678.3911863750134,477.009776590242 L669.7973532670983,473.9626256231476 M669.7973532670983,473.9626256231476 L661.2950351540625,470.86019196793126 M661.2950351540625,470.86019196793126 L652.886768192866,467.704069409379 M652.886768192866,467.704069409379 L644.5751823185221,464.49593682354293 M644.5751823185221,464.49593682354293 L636.362652399246,461.2374254997318 M636.362652399246,461.2374254997318 L628.2515827242612,457.93020767903425 M628.2515827242612,457.93020767903425 L620.2441698792454,454.5759148499164 M620.2441698792454,454.5759148499164 L612.3426218400853,451.1762295327086 M612.3426218400853,451.1762295327086 L730.2452908868609,344.62562469086265 M730.2452908868609,344.62562469086265 L735.7756175960214,346.5945632986861 M735.7756175960214,346.5945632986861 L741.3677344136099,348.5208207832247 M741.3677344136099,348.5208207832247 L747.0193632009361,350.40325329080997 M747.0193632009361,350.40325329080997 L752.7280414120174,352.24072396495825 M752.7280414120174,352.24072396495825 L758.4913572711513,354.0321408315586 M758.4913572711513,354.0321408315586 L764.3067055211922,355.77636931162135 M764.3067055211922,355.77636931162135 L770.1715792119612,357.4723662499571 M770.1715792119612,357.4723662499571 L776.0833117856068,359.11906270724205 M776.0833117856068,359.11906270724205 L782.0392543220621,360.71546909435546 M782.0392543220621,360.71546909435546 L788.0366047336096,362.2605269591644 M788.0366047336096,362.2605269591644 L788.4011329671714,360.6972228628949 M730.5638653905843,343.07499437323065 L736.0986166884774,345.04249829731566 M736.0986166884774,345.04249829731566 L741.6952022737987,346.9673569791501 M741.6952022737987,346.9673569791501 L747.351341840932,348.848427077245 M747.351341840932,348.848427077245 L753.064570512656,350.68457223849464 M753.064570512656,350.68457223849464 L758.8324741935494,352.47470095689323 M758.8324741935494,352.47470095689323 L764.652445120789,354.2176791500568 M764.652445120789,354.2176791500568 L770.5219738987732,355.91246409245537 M770.5219738987732,355.91246409245537 L776.4383913678815,357.5579872925146 M776.4383913678815,357.5579872925146 L782.3990460082707,359.15325955275625 M782.3990460082707,359.15325955275625 L788.4011329671714,360.6972228628949 M730.2452908868609,344.62562469086265 L730.5638653905843,343.07499437323065 M612.6024692545715,449.55506125261235 L730.5638653905843,343.07499437323065 M713.9735941449745,486.9707076604706 L705.0339217677584,484.1623264581263 M705.0339217677584,484.1623264581263 L696.1745133579209,481.29232358639564 M696.1745133579209,481.29232358639564 L687.3982753492547,478.3622477835716 M687.3982753492547,478.3622477835716 L678.7081093856912,475.3736856950698 M678.7081093856912,475.3736856950698 L670.1068065232998,472.328250645079 M670.1068065232998,472.328250645079 L661.5971092778086,469.2275761979166 M661.5971092778086,469.2275761979166 L653.1815565111428,466.0732558808761 M653.1815565111428,466.0732558808761 L644.8627808818419,462.86696824899667 M644.8627808818419,462.86696824899667 L636.6431596979601,459.61034428133627 M636.6431596979601,459.61034428133627 L628.5250996473181,456.3050558675625 M628.5250996473181,456.3050558675625 L620.5107994723563,452.95273414983257 M620.5107994723563,452.95273414983257 L612.6024692545715,449.55506125261235 M788.4011329671714,360.6972228628949 L713.9735941449745,486.9707076604706 M612.3426218400853,451.1762295327086 L612.6024692545715,449.55506125261235 M713.6259466473886,488.61322435840754 L713.9735941449745,486.9707076604706" stroke="black"  stroke-width="4"  fill="red"/>
<path d="M709.0505326962688,489.47959633145393 L708.3336210292262,493.5145709187388 M708.3336210292262,493.5145709187388 L707.7371473594425,497.6010686989985 M707.7371473594425,497.6010686989985 L707.2623633441125,501.73839376006987 M707.2623633441125,501.73839376006987 L706.910692312992,505.92590889739944 M706.910692312992,505.92590889739944 L706.6834720327388,510.1629070726844 M706.6834720327388,510.1629070726844 L706.5820304305038,514.4486427128377 M706.5820304305038,514.4486427128377 L706.6076976610545,518.7823692190505 M706.6076976610545,518.7823692190505 L706.7617720919721,523.1632648546324 M706.7617720919721,523.1632648546324 L707.0455397741678,527.5905141817157 M707.0455397741678,527.5905141817157 L707.4602882405023,532.0632432206669 M707.4602882405023,532.0632432206669 L442.5258928951066,502.5875655643245 M442.5258928951066,502.5875655643245 L443.2628179371842,496.7347689003581 M443.2628179371842,496.7347689003581 L444.1271536551808,490.95186269312927 M444.1271536551808,490.95186269312927 L445.1169449070113,485.23889311874115 M445.1169449070113,485.23889311874115 L446.230297010021,479.5959007552256 M446.230297010021,479.5959007552256 L447.4653343894163,474.02290975329316 M447.4653343894163,474.02290975329316 L448.82017724099546,468.51990578564886 M448.82017724099546,468.51990578564886 L450.2930002144127,463.0868767662133 M450.2930002144127,463.0868767662133 L451.8819737558871,457.72377533257475 M451.8819737558871,457.72377533257475 L453.58529289220974,452.43054024220135 M453.58529289220974,452.43054024220135 L455.4011971500415,447.20710307712835 M455.4011971500415,447.20710307712835 L457.3279211552692,442.05336537440263 M457.3279211552692,442.05336537440263 L459.3637572202766,436.96923387214997 M459.3637572202766,436.96923387214997 L709.0505326962688,489.47959633145393 M459.3637572202766,436.96923387214997 L459.5052401985339,435.356634744903 M459.5052401985339,435.356634744903 L709.3948235360837,487.83660673656203 M709.0505326962688,489.47959633145393 L709.3948235360837,487.83660673656203 M442.66184589394857,500.93753792249964 L443.39871586953745,495.0878567283756 M443.39871586953745,495.0878567283756 L444.26309910829434,489.308071676926 M444.26309910829434,489.308071676926 L445.2530376445493,483.59822737267456 M445.2530376445493,483.59822737267456 L446.366634081058,477.9583628425816 M446.366634081058,477.9583628425816 L447.60201020214504,472.3885007131529 M447.60201020214504,472.3885007131529 L448.95728361466206,466.8886251729793 M448.95728361466206,466.8886251729793 L450.4306264801651,461.45872266973663 M450.4306264801651,461.45872266973663 L452.020206806558,456.0987444145254 M452.020206806558,456.0987444145254 L453.72421725561037,450.8086277665823 M453.72421725561037,450.8086277665823 L455.54089507684137,445.58830293436966 M455.54089507684137,445.58830293436966 L457.46847266515226,440.43767012005327 M457.46847266515226,440.43767012005327 L459.5052401985339,435.356634744903 M707.8151736004769,530.3981892969546 L442.66184589394857,500.93753792249964 M709.3948235360837,487.83660673656203 L708.6784723146172,491.869391495152 M708.6784723146172,491.869391495152 L708.0826651563908,495.95369263834044 M708.0826651563908,495.95369263834044 L707.6086554037253,500.08881542793785 M707.6086554037253,500.08881542793785 L707.257868262514,504.27412379788433 M707.257868262514,504.27412379788433 L707.0316433271546,508.5089118807319 M707.0316433271546,508.5089118807319 L706.9313103724382,512.7924352882242 M706.9313103724382,512.7924352882242 L706.9582014405245,517.123948599801 M706.9582014405245,517.123948599801 L707.1136167778923,521.5026312871817 M707.1136167778923,521.5026312871817 L707.3988443435666,525.9276691080415 M707.3988443435666,525.9276691080415 L707.8151736004769,530.3981892969546 M442.5258928951066,502.5875655643245 L442.66184589394857,500.93753792249964 M707.4602882405023,532.0632432206669 L707.8151736004769,530.3981892969546" stroke="black"  stroke-width="4"  fill="red"/>
<path d="M335.15060513401147,379.48976600676656 L338.2142131942817,382.5951714701665 M338.2142131942817,382.5951714701665 L341.39022930405883,385.6857939729132 M341.39022930405883,385.6857939729132 L344.6782192345755,388.7601887328429 M344.6782192345755,388.7601887328429 L348.0776888992264,391.8169007647142 M348.0776888992264,391.8169007647142 L351.58806141773675,394.85445807174915 M351.58806141773675,394.85445807174915 L355.20870296801144,397.8713841272059 M355.20870296801144,397.8713841272059 L358.9388901630773,400.866184653657 M358.9388901630773,400.866184653657 L362.7778483281358,403.8373653072242 M362.7778483281358,403.8373653072242 L366.7247101673973,406.7834154211895 M366.7247101673973,406.7834154211895 L370.77853617683843,409.7028203350818 M370.77853617683843,409.7028203350818 L184.5007659491846,514.2150878977798 M184.5007659491846,514.2150878977798 L178.96165528589137,509.5404174465503 M178.96165528589137,509.5404174465503 L173.57336744083182,504.84461701289405 M173.57336744083182,504.84461701289405 L168.33606908529498,500.12956907549784 M168.33606908529498,500.12956907549784 L163.2498968281455,495.39711762188443 M163.2498968281455,495.39711762188443 L158.31484797921348,490.6490912959501 M158.31484797921348,490.6490912959501 L153.53089119200308,485.8872768337897 M153.53089119200308,485.8872768337897 L148.89790550763854,481.11343515753725 M148.89790550763854,481.11343515753725 L144.4156711592592,476.32931220576785 M144.4156711592592,476.32931220576785 L140.0839301004902,471.5365994556372 M140.0839301004902,471.5365994556372 L135.90232208680334,466.7369862054803 M135.90232208680334,466.7369862054803 L131.87044701719833,461.9321024425982 M131.87044701719833,461.9321024425982 L127.98782224588564,457.1235656096998 M127.98782224588564,457.1235656096998 L335.15060513401147,379.48976600676656 M127.98782224588564,457.1235656096998 L127.87775439156667,455.4988865023446 M127.87775439156667,455.4988865023446 L335.196158130294,377.9144624438612 M335.15060513401147,379.48976600676656 L335.196158130294,377.9144624438612 M184.4308356481081,512.5590004274193 L178.88755440140977,507.8867455219261 M178.88755440140977,507.8867455219261 L173.4952505323149,503.1933995996321 M173.4952505323149,503.1933995996321 L168.25408958195254,498.4808445175095 M168.25408958195254,498.4808445175095 L163.16420696926565,493.750923618312 M163.16420696926565,493.750923618312 L158.22559866952957,489.0054648662505 M158.22559866952957,489.0054648662505 L153.4382319500068,484.2462542975051 M153.4382319500068,484.2462542975051 L148.80198436780432,479.47505210605215 M148.80198436780432,479.47505210605215 L144.31663456969187,474.6936034684732 M144.31663456969187,474.6936034684732 L139.98192287425638,469.90359908873296 M139.98192287425638,469.90359908873296 L135.79748730236082,465.1067274522105 M135.79748730236082,465.1067274522105 L131.76292597512162,460.30461772654684 M131.76292597512162,460.30461772654684 L127.87775439156667,455.4988865023446 M370.8515413321076,408.1073880297145 L184.4308356481081,512.5590004274193 M335.196158130294,377.9144624438612 L338.26209435011856,381.01774535842503 M338.26209435011856,381.01774535842503 L341.4405311296412,384.1062676196328 M341.4405311296412,384.1062676196328 L344.731034434153,387.1785852439993 M344.731034434153,387.1785852439993 L348.1331103049388,390.2332440300982 M348.1331103049388,390.2332440300982 L351.6461819047534,393.2687727547511 M351.6461819047534,393.2687727547511 L355.2696153872039,396.28369564635085 M355.2696153872039,396.28369564635085 L359.0026872475584,399.2765191731289 M359.0026872475584,399.2765191731289 L362.84462262684576,402.24574971588214 M362.84462262684576,402.24574971588214 L366.7945539459341,405.18987732259586 M366.7945539459341,405.18987732259586 L370.8515413321076,408.1073880297145 M184.5007659491846,514.2150878977798 L184.4308356481081,512.5590004274193 M370.77853617683843,409.7028203350818 L370.8515413321076,408.1073880297145" stroke="black"  stroke-width="4"  fill="red"/>
<path d="M807.5039761587229,374.99964455240547 L812.9953414529365,377.4312731581689 M812.9953414529365,377.4312731581689 L818.5638234257048,379.8261948882096 M818.5638234257048,379.8261948882096 L824.2072619879489,382.1830781453993 M824.2072619879489,382.1830781453993 L829.9235342544397,384.5005518908511 M829.9235342544397,384.5005518908511 L835.7103012416743,386.77728419026135 M835.7103012416743,386.77728419026135 L841.5653111258478,389.01195247945543 M841.5653111258478,389.01195247945543 L847.4861528961045,391.20322888984725 M847.4861528961045,391.20322888984725 L853.4703599599986,393.34982868817855 M853.4703599599986,393.34982868817855 L859.5153973053498,395.4504324185648 M859.5153973053498,395.4504324185648 L865.6187272832124,397.5038140440535 M865.6187272832124,397.5038140440535 L818.6282317459941,539.6242163222937 M818.6282317459941,539.6242163222937 L809.1853544746068,536.3398111841091 M809.1853544746068,536.3398111841091 L799.831297333204,532.9935554041831 M799.831297333204,532.9935554041831 L790.569104867276,529.5872743283751 M790.569104867276,529.5872743283751 L781.4017350464705,526.1227882724945 M781.4017350464705,526.1227882724945 L772.3320261643742,522.6019406677945 M772.3320261643742,522.6019406677945 L763.3627984637694,519.0266105855424 M763.3627984637694,519.0266105855424 L754.496681401888,515.3986518396357 M754.496681401888,515.3986518396357 L745.7362597054569,511.7199211531783 M745.7362597054569,511.7199211531783 L737.0839549569058,507.99227652916676 M737.0839549569058,507.99227652916676 L728.5421748653696,504.2175995451067 M728.5421748653696,504.2175995451067 L720.1131447643874,500.39773611071536 M720.1131447643874,500.39773611071536 L711.7990651272984,496.5345620363424 M711.7990651272984,496.5345620363424 L807.5039761587229,374.99964455240547 M711.7990651272984,496.5345620363424 L712.1475012703579,494.88775720779694 M712.1475012703579,494.88775720779694 L807.8866020891194,373.4274317268418 M807.5039761587229,374.99964455240547 L807.8866020891194,373.4274317268418 M819.0762729876258,537.955486422271 L809.6245345429916,534.6726691350673 M809.6245345429916,534.6726691350673 L800.2617073471007,531.3280452513652 M800.2617073471007,531.3280452513652 L790.9908395629279,527.923440006505 M790.9908395629279,527.923440006505 L781.8148926150518,524.4606735906316 M781.8148926150518,524.4606735906316 L772.7367080727427,520.941589278767 M772.7367080727427,520.941589278767 L763.7591093617888,517.3680659471677 M763.7591093617888,517.3680659471677 L754.884728871538,513.7419572050057 M754.884728871538,513.7419572050057 L746.1161541386966,510.06511954569675 M746.1161541386966,510.06511954569675 L737.4558093392792,506.3394107171445 M737.4558093392792,506.3394107171445 L728.9061046873743,502.5667120034088 M728.9061046873743,502.5667120034088 L720.4692677821856,498.74886901217775 M720.4692677821856,498.74886901217775 L712.1475012703579,494.88775720779694 M866.0513771305793,395.91636900000196 L819.0762729876258,537.955486422271 M807.8866020891194,373.4274317268418 L813.3827282433564,375.85738335177433 M813.3827282433564,375.85738335177433 L818.9560306085783,378.25066078206936 M818.9560306085783,378.25066078206936 L824.6043470361698,380.6059329927203 M824.6043470361698,380.6059329927203 L830.3255525510255,382.92182953314966 M830.3255525510255,382.92182953314966 L836.1173058943929,385.1970190205226 M836.1173058943929,385.1970190205226 L841.9773529893666,387.4301794265715 M841.9773529893666,387.4301794265715 L847.9032804111266,389.61998341372987 M847.9032804111266,389.61998341372987 L853.8926190844271,391.76514674316957 M853.8926190844271,391.76514674316957 L859.9428314074975,393.86435046995695 M859.9428314074975,393.86435046995695 L866.0513771305793,395.91636900000196 M818.6282317459941,539.6242163222937 L819.0762729876258,537.955486422271 M865.6187272832124,397.5038140440535 L866.0513771305793,395.91636900000196" stroke="black"  stroke-width="4"  fill="red"/>
<path d="M413.05908962185094,195.47545832781304 L301.35303964048273,281.4038445765616 M301.35303964048273,281.4038445765616 L295.69944396708854,278.6987160068908 M295.69944396708854,278.6987160068908 L290.14989634141335,275.964391419701 M290.14989634141335,275.964391419701 L284.7054685425098,273.20203921975235 M284.7054685425098,273.20203921975235 L279.3671761068146,270.41283808081437 M279.3671761068146,270.41283808081437 L274.13594890722806,267.59794761547283 M274.13594890722806,267.59794761547283 L269.0126741602855,264.7585361795167 M269.0126741602855,264.7585361795167 L263.99816735475747,261.8957581098974 M263.99816735475747,261.8957581098974 L259.09316164512956,259.01076566283314 M259.09316164512956,259.01076566283314 L254.2983444668152,256.104702149853 M254.2983444668152,256.104702149853 L249.61435239755156,253.17871055916055 M249.61435239755156,253.17871055916055 L245.04172589137323,250.2339085360806 M245.04172589137323,250.2339085360806 L240.58097405374957,247.2714335573952 M240.58097405374957,247.2714335573952 L379.65998738451964,176.54481797674612 M379.65998738451964,176.54481797674612 L382.62626320662105,178.5219495108764 M382.62626320662105,178.5219495108764 L385.67781366470854,180.48288915584627 M385.67781366470854,180.48288915584627 L388.8138629119667,182.4267075762861 M388.8138629119667,182.4267075762861 L392.03364927553855,184.35246474470205 M392.03364927553855,184.35246474470205 L395.33631707298593,186.25922083468515 M395.33631707298593,186.25922083468515 L398.72093589681856,188.14606604736625 M398.72093589681856,188.14606604736625 L402.1865761434534,190.01203611587124 M402.1865761434534,190.01203611587124 L405.732191269757,191.85621916946877 M405.732191269757,191.85621916946877 L409.3567576149446,193.67766022714687 M409.3567576149446,193.67766022714687 L413.05908962185094,195.47545832781304 M413.05908962185094,195.47545832781304 L413.1438829783914,194.04786846573515 M379.7234549359175,175.1348719253231 L382.6916130773383,177.11013937332118 M382.6916130773383,177.11013937332118 L385.74510246213936,179.06923511740146 M385.74510246213936,179.06923511740146 L388.88314694089445,181.01123057126318 M388.88314694089445,181.01123057126318 L392.1049845289699,182.93518645834345 M392.1049845289699,182.93518645834345 L395.409759159194,184.84016369495558 M395.409759159194,184.84016369495558 L398.7965399793003,186.72525318924983 M398.7965399793003,186.72525318924983 L402.264396918359,188.58949142458061 M402.264396918359,188.58949142458061 L405.81228288119166,190.43196722444563 M405.81228288119166,190.43196722444563 L409.4391736450891,192.25172633501387 M409.4391736450891,192.25172633501387 L413.1438829783914,194.04786846573515 M379.65998738451964,176.54481797674612 L379.7234549359175,175.1348719253231 M240.5613518193736,245.79790230030858 L379.7234549359175,175.1348719253231 M301.37250280820956,279.90190746937134 L295.7151665958763,277.1989760114911 M295.7151665958763,277.1989760114911 L290.16196531840365,274.46688172528843 M290.16196531840365,274.46688172528843 L284.71397122568965,271.70679236146964 M284.71397122568965,271.70679236146964 L279.3722002534757,268.9198859179177 M279.3722002534757,268.9198859179177 L274.1375825843236,266.10732133319465 M274.1375825843236,266.10732133319465 L269.01100568414137,263.270266267754 M269.01100568414137,263.270266267754 L263.9932852131327,260.4098743603839 M263.9932852131327,260.4098743603839 L259.0851544139459,257.527297156197 M259.0851544139459,257.527297156197 L254.2873007518083,254.62367724816175 M254.2873007518083,254.62367724816175 L249.60036077380022,251.7001568910183 M249.60036077380022,251.7001568910183 L245.02487481573502,248.75785300270388 M245.02487481573502,248.75785300270388 L240.5613518193736,245.79790230030858 M413.1438829783914,194.04786846573515 L301.37250280820956,279.90190746937134 M240.58097405374957,247.2714335573952 L240.5613518193736,245.79790230030858 M301.35303964048273,281.4038445765616 L301.37250280820956,279.90190746937134" stroke="black"  stroke-width="4"  fill="red"/>
<path d="M88.96110456159664,515.7101964330132 L-65.80437908857374,403.29078095767466 M-65.80437908857374,403.29078095767466 L-58.297281168836605,400.3195775027811 M-58.297281168836605,400.3195775027811 L-50.77395120496084,397.42128911682113 M-50.77395120496084,397.42128911682113 L-43.23494459713311,394.5955621648359 M-43.23494459713311,394.5955621648359 L-35.680783757857284,391.84199104683324 M-35.680783757857284,391.84199104683324 L-28.11204347556867,389.1602301057348 M-28.11204347556867,389.1602301057348 L-20.529222652370095,386.549914254529 M-20.529222652370095,386.549914254529 L-12.932845394688457,384.0106832386271 M-12.932845394688457,384.0106832386271 L-5.323374584718749,381.54220521774965 M-5.323374584718749,381.54220521774965 L2.2986629290804785,379.1441455873694 M2.2986629290804785,379.1441455873694 L9.932834102798381,376.8161674115706 M9.932834102798381,376.8161674115706 L17.578670717183854,374.55797018570735 M17.578670717183854,374.55797018570735 L25.23570979281294,372.3692283172853 M25.23570979281294,372.3692283172853 L153.984831785751,495.72688343286717 M153.984831785751,495.72688343286717 L147.36092658114381,497.34345614724106 M147.36092658114381,497.34345614724106 L140.76059201518865,499.04474156129464 M140.76059201518865,499.04474156129464 L134.18509312760983,500.8307801509814 M134.18509312760983,500.8307801509814 L127.63569810379528,502.7016227260228 M127.63569810379528,502.7016227260228 L121.11370206809272,504.65732517115276 M121.11370206809272,504.65732517115276 L114.62040497611304,506.6979310899616 M114.62040497611304,506.6979310899616 L108.15714955809813,508.8234757334174 M108.15714955809813,508.8234757334174 L101.72527173997958,511.03401169684395 M101.72527173997958,511.03401169684395 L95.32613310789378,513.329567294963 M95.32613310789378,513.329567294963 L88.96110456159664,515.7101964330132 M88.96110456159664,515.7101964330132 L88.81429733400978,514.0533422739713 M153.8917901257176,494.08051217026645 L147.2625169868134,495.69621793373705 M147.2625169868134,495.69621793373705 L140.6568124372199,497.39659456420105 M140.6568124372199,497.39659456420105 L134.07594152403203,499.18168306730803 M134.07594152403203,499.18168306730803 L127.52117245456054,501.0515348048489 M127.52117245456054,501.0515348048489 L120.99380040958613,503.00620623893957 M120.99380040958613,503.00620623893957 L114.49512542052327,505.04574158506995 M114.49512542052327,505.04574158506995 L108.02649034370819,507.17017673847346 M108.02649034370819,507.17017673847346 L101.58923124015303,509.3795649577307 M101.58923124015303,509.3795649577307 L95.18470987112079,511.67393526153427 M95.18470987112079,511.67393526153427 L88.81429733400978,514.0533422739713 M153.984831785751,495.72688343286717 L153.8917901257176,494.08051217026645 M25.06021849511808,370.7988380521852 L153.8917901257176,494.08051217026645 M-66.05137713057928,401.69952326807817 L-58.538158163882485,398.7302720088982 M-58.538158163882485,398.7302720088982 L-51.00873880360342,395.83389875160793 M-51.00873880360342,395.83389875160793 L-43.463673821903626,393.0100492887458 M-43.463673821903626,393.0100492887458 L-35.90348496756894,390.25831750792076 M-35.90348496756894,390.25831750792076 L-28.328746414576585,387.5783572249886 M-28.328746414576585,387.5783572249886 L-20.739956390901625,384.96980286353033 M-20.739956390901625,384.96980286353033 L-13.137638347717655,382.4322937007144 M-13.137638347717655,382.4322937007144 L-5.522254472880945,379.9654974326719 M-5.522254472880945,379.9654974326719 L2.1056690341719104,377.56907901656507 M2.1056690341719104,377.56907901656507 L9.745699846165053,375.2427011028908 M9.745699846165053,375.2427011028908 L17.397370428763566,372.98606277105733 M17.397370428763566,372.98606277105733 L25.06021849511808,370.7988380521852 M88.81429733400978,514.0533422739713 L-66.05137713057928,401.69952326807817 M25.23570979281294,372.3692283172853 L25.06021849511808,370.7988380521852 M-65.80437908857374,403.29078095767466 L-66.05137713057928,401.69952326807817" stroke="black"  stroke-width="4"  fill="red"/></svg>