<svg viewBox="0 0 800 800" xmlns="http://www.w3.org/2000/svg"><path d="M-14.613448987785318,255.98546593149132 L-10.100259825665717,254.02235078265744 M-10.100259825665717,254.02235078265744 L130.83674353258766,358.5373852133696 M130.83674353258766,358.5373852133696 L125.5715196648236,360.9827461355394 M125.5715196648236,360.9827461355394 L120.3494040450289,363.49730136501796 M120.3494040450289,363.49730136501796 L115.17166231740396,366.0810184427668 M115.17166231740396,366.0810184427668 L110.03960033605193,368.7338396084342 M110.03960033605193,368.7338396084342 L104.95449679987564,371.45573017770243 M104.95449679987564,371.45573017770243 L99.91771223165836,374.2466172062408 M99.91771223165836,374.2466172062408 L94.93056863787729,377.10644026926263 M94.93056863787729,377.10644026926263 L89.99445708429079,380.03510758345124 M89.99445708429079,380.03510758345124 L85.11074991101225,383.0325313179185 M85.11074991101225,383.0325313179185 L80.28082266007851,386.09862234882553 M80.28082266007851,386.09862234882553 L-89.72775292345239,293.8972940460667 M-89.72775292345239,293.8972940460667 L-83.61585525811643,290.38973135612116 M-83.61585525811643,290.38973135612116 L-77.47476735515386,286.94656150462947 M-77.47476735515386,286.94656150462947 L-71.30518272405914,283.56745704162313 M-71.30518272405914,283.56745704162313 L-65.10789389944227,280.25210118754933 M-65.10789389944227,280.25210118754933 L-58.88357234215516,277.0001420547541 M-58.88357234215516,277.0001420547541 L-52.63294016154913,273.8112929031187 M-52.63294016154913,273.8112929031187 L-46.35665827095954,270.6852097272035 M-46.35665827095954,270.6852097272035 L-40.05540450132821,267.62158346924724 M-40.05540450132821,267.62158346924724 L-33.72983956070283,264.6201095253338 M-33.72983956070283,264.6201095253338 L-27.380574608139398,261.68045827171494 M-27.380574608139398,261.68045827171494 L-21.008242393988724,258.80235004749125 M-21.008242393988724,258.80235004749125 L-14.613448987785318,255.98546593149132 M-14.613448987785318,255.98546593149132 L-14.802623963480642,254.47672431993738 M-14.802623963480642,254.47672431993738 L-10.285876011088817,252.51497192047674 M-10.285876011088817,252.51497192047674 L-10.100259825665717,254.02235078265744 M-10.285876011088817,252.51497192047674 L130.7431299237835,356.964568217563 M130.83674353258766,358.5373852133696 L130.7431299237835,356.964568217563 M-89.72775292345239,293.8972940460667 L-89.97907232717387,292.3632382257139 M-89.97907232717387,292.3632382257139 L-83.86188268946034,288.85793748799375 M-83.86188268946034,288.85793748799375 L-77.71552394075388,285.417003947489 M-77.71552394075388,285.417003947489 L-71.5406894393168,282.0401094860876 M-71.5406894393168,282.0401094860876 L-65.33817163478909,278.726936671331 M-65.33817163478909,278.726936671331 L-59.108641798924225,275.47713300783073 M-59.108641798924225,275.47713300783073 L-52.852821894957685,272.29041112628687 M-52.852821894957685,272.29041112628687 L-46.57137262653231,269.16642645141275 M-46.57137262653231,269.16642645141275 L-40.264971627621435,266.1048693533909 M-40.264971627621435,266.1048693533909 L-33.93427939122245,263.1054346738354 M-33.93427939122245,263.1054346738354 L-27.57990681497023,260.1677922719716 M-27.57990681497023,260.1677922719716 L-21.202486407152378,257.2916619558688 M-21.202486407152378,257.2916619558688 L-14.802623963480642,254.47672431993738 M80.14458785168398,384.51096516732105 L-89.97907232717387,292.3632382257139 M130.7431299237835,356.964568217563 L125.47358896158852,359.40857167974525 M125.47358896158852,359.40857167974525 L120.2471669584674,361.921739317312 M120.2471669584674,361.921739317312 L115.06513005221905,364.5040393819995 M115.06513005221905,364.5040393819995 L109.92878464585533,367.1554148565939 M109.92878464585533,367.1554148565939 L104.83940998596472,369.8758318056873 M104.83940998596472,369.8758318056873 L99.79836723416685,372.665218072876 M99.79836723416685,372.665218072876 L94.80697902814916,375.5235140325399 M94.80697902814916,375.5235140325399 L89.8666371475469,378.45062873512165 M89.8666371475469,378.45062873512165 L84.97871465689667,381.44647519889736 M84.97871465689667,381.44647519889736 L80.14458785168398,384.51096516732105 M80.28082266007851,386.09862234882553 L80.14458785168398,384.51096516732105" stroke="black"  stroke-width="4"  fill="red"/>
<path d="M394.1086279313042,317.6583771537322 L400.17835613220666,318.3194249324594 M400.17835613220666,318.3194249324594 L406.2645761430804,318.9129955321917 M406.2645761430804,318.9129955321917 L412.3641248758844,319.4386647762114 M412.3641248758844,319.4386647762114 L418.47385222010234,319.8960668833152 M418.47385222010234,319.8960668833152 L424.5905870678762,320.28488364917587 M424.5905870678762,320.28488364917587 L430.71114584960173,320.60484074062515 M430.71114584960173,320.60484074062515 L436.8323289536306,320.85571218657645 M436.8323289536306,320.85571218657645 L442.950932270693,321.03731447791915 M442.950932270693,321.03731447791915 L449.0637895971871,321.14953473033313 M449.0637895971871,321.14953473033313 L455.16766432889096,321.1922781151699 M455.16766432889096,321.1922781151699 L489.498590607604,488.8079107389657 M489.498590607604,488.8079107389657 L479.88633664072927,488.7935186778766 M479.88633664072927,488.7935186778766 L470.25865580266054,488.6783718244196 M470.25865580266054,488.6783718244196 L460.6199615779433,488.46259419734577 M460.6199615779433,488.46259419734577 L450.97457967604623,488.1463290244882 M450.97457967604623,488.1463290244882 L441.3268203409399,487.729776660591 M441.3268203409399,487.729776660591 L431.68104199688,487.21323776618226 M431.68104199688,487.21323776618226 L422.0415048834857,486.5970313419331 M422.0415048834857,486.5970313419331 L412.4125968314429,485.8816028600652 M412.4125968314429,485.8816028600652 L402.7985786470464,485.0674312665126 M402.7985786470464,485.0674312665126 L393.20370870305624,484.1550716915933 M393.20370870305624,484.1550716915933 L383.632227025848,483.14511676112613 M383.632227025848,483.14511676112613 L374.08834221411007,482.03824979129854 M374.08834221411007,482.03824979129854 L394.1086279313042,317.6583771537322 M374.08834221411007,482.03824979129854 L374.1949178309279,480.4068004176845 M374.1949178309279,480.4068004176845 L394.21681411725376,316.1094283681443 M394.1086279313042,317.6583771537322 L394.21681411725376,316.1094283681443 M489.70588743482074,487.17383294753097 L480.0852887049772,487.15944640981286 M480.0852887049772,487.15944640981286 L470.4492351892992,487.04434375720587 M470.4492351892992,487.04434375720587 L460.80214615734155,486.82864900702805 M460.80214615734155,486.82864900702805 L451.14835302930453,486.5125054185256 M451.14835302930453,486.5125054185256 L441.4921717496718,486.09611339587457 M441.4921717496718,486.09611339587457 L431.8379664886635,485.57977365000613 M431.8379664886635,485.57977365000613 L422.1900031349735,484.9638052639847 M422.1900031349735,484.9638052639847 L412.5526752753759,484.2486537820116 M412.5526752753759,484.2486537820116 L402.93024934232074,483.43479824663336 M402.93024934232074,483.43479824663336 L393.3269893130541,482.5227938919684 M393.3269893130541,482.5227938919684 L383.7471407744431,481.51323346882646 M383.7471407744431,481.51323346882646 L374.1949178309279,480.4068004176845 M455.3223780406221,319.6411783749082 L489.70588743482074,487.17383294753097 M394.21681411725376,316.1094283681443 L400.291185449188,316.77007253104057 M400.291185449188,316.77007253104057 L406.3820593974416,317.3632812087684 M406.3820593974416,317.3632812087684 L412.4862696398461,317.88863032327527 M412.4862696398461,317.88863032327527 L418.60066283289257,318.34575417361714 M418.60066283289257,318.34575417361714 L424.7220646125362,318.7343346244271 M424.7220646125362,318.7343346244271 L430.8472881381597,319.0540974028816 M430.8472881381597,319.0540974028816 L436.9731305124442,319.3048165872622 M436.9731305124442,319.3048165872622 L443.0963843361982,319.48630871073755 M443.0963843361982,319.48630871073755 L449.2138801497747,319.59846090733964 M449.2138801497747,319.59846090733964 L455.3223780406221,319.6411783749082 M489.498590607604,488.8079107389657 L489.70588743482074,487.17383294753097 M455.16766432889096,321.1922781151699 L455.3223780406221,319.6411783749082" stroke="black"  stroke-width="4"  fill="red"/>
<path d="M248.75318005074786,120.46283169209488 L437.65884624652915,104.53725443585205 M437.65884624652915,104.53725443585205 L439.6037220863914,107.88811936463026 M439.6037220863914,107.88811936463026 L441.46531134389613,111.27252462814158 M441.46531134389613,111.27252462814158 L443.24238475019695,114.69016826200738 M443.24238475019695,114.69016826200738 L444.9335965747483,118.1407951338062 M444.9335965747483,118.1407951338062 L446.5377187260567,121.62406282599585 M446.5377187260567,121.62406282599585 L448.0534268842531,125.13966382415538 M448.0534268842531,125.13966382415538 L449.47943915801875,128.68724708197323 M449.47943915801875,128.68724708197323 L450.8144369635395,132.26646207515307 M450.8144369635395,132.26646207515307 L452.0571056122815,135.8769359035981 M452.0571056122815,135.8769359035981 L453.20613659923697,139.5182731981012 M453.20613659923697,139.5182731981012 L454.260204610854,143.190065340908 M454.260204610854,143.190065340908 L455.2180052777437,146.89187555288663 M455.2180052777437,146.89187555288663 L255.07045528832697,146.52549367779454 M255.07045528832697,146.52549367779454 L254.84727233726858,143.83216891840948 M254.84727233726858,143.83216891840948 L254.53087298626036,141.15631328381227 M254.53087298626036,141.15631328381227 L254.12213517457536,138.498670862055 M254.12213517457536,138.498670862055 L253.62196856728974,135.859950366222 M253.62196856728974,135.859950366222 L253.0312575530097,133.24085491401638 M253.0312575530097,133.24085491401638 L252.35098326021466,130.64205920588324 M252.35098326021466,130.64205920588324 L251.58206040620848,128.06422456279154 M251.58206040620848,128.06422456279154 L250.72547039523232,125.50799362722898 M250.72547039523232,125.50799362722898 L249.78217680950615,122.97399372160066 M249.78217680950615,122.97399372160066 L248.75318005074786,120.46283169209488 M248.75318005074786,120.46283169209488 L248.75199657014502,119.06017826957276 M255.0732845607405,145.1005451851339 L254.84995117366998,142.40948264414664 M254.84995117366998,142.40948264414664 L254.53334286750078,139.73588408788316 M254.53334286750078,139.73588408788316 L254.1243386270006,137.0804927866663 M254.1243386270006,137.0804927866663 L253.6238491691152,134.44401665679254 M253.6238491691152,134.44401665679254 L253.0327599041887,131.8271580154306 M253.0327599041887,131.8271580154306 L252.3520530290524,129.2305907786333 M252.3520530290524,129.2305907786333 L251.58264427244455,126.6549754868185 M251.58264427244455,126.6549754868185 L250.7255160768379,124.10095401076529 M250.7255160768379,124.10095401076529 L249.78163303592163,121.56915290759343 M249.78163303592163,121.56915290759343 L248.75199657014502,119.06017826957276 M255.07045528832697,146.52549367779454 L255.0732845607405,145.1005451851339 M455.3490608743235,145.4666200669961 L255.0732845607405,145.1005451851339 M437.7733893937807,103.14866807379167 L439.71987719669085,106.49654522769606 M439.71987719669085,106.49654522769606 L441.5830399476987,109.87794793407471 M441.5830399476987,109.87794793407471 L443.3616471407671,113.29257494638034 M443.3616471407671,113.29257494638034 L445.0543517180447,116.74017180795937 M445.0543517180447,116.74017180795937 L446.65992429800815,120.22039685276712 M446.65992429800815,120.22039685276712 L448.17703919092685,123.73294328558126 M448.17703919092685,123.73294328558126 L449.6044131315431,127.27746081526215 M449.6044131315431,127.27746081526215 L450.94072611417675,130.85359966973584 M450.94072611417675,130.85359966973584 L452.1846620026432,134.46098771755823 M452.1846620026432,134.46098771755823 L453.3349108198405,138.0992303739971 M453.3349108198405,138.0992303739971 L454.39014574220755,141.76791981312533 M454.39014574220755,141.76791981312533 L455.3490608743235,145.4666200669961 M248.75199657014502,119.06017826957276 L437.7733893937807,103.14866807379167 M455.2180052777437,146.89187555288663 L455.3490608743235,145.4666200669961 M437.65884624652915,104.53725443585205 L437.7733893937807,103.14866807379167" stroke="black"  stroke-width="4"  fill="red"/>
<path d="M796.7422825807707,270.31850261983493 L684.4482237125817,379.70287515611244 M889.5003384209549,310.48066556968405 L881.8166022241896,306.72848238864486 M881.8166022241896,306.72848238864486 L874.1221801499494,303.0513879337744 M874.1221801499494,303.0513879337744 L866.4177746093603,299.448967580259 M866.4177746093603,299.448967580259 L858.7041413010653,295.9207901226362 M858.7041413010653,295.9207901226362 L850.9820024012225,292.46644032559715 M850.9820024012225,292.46644032559715 L843.2519786145526,289.0854877310886 M843.2519786145526,289.0854877310886 L835.5147640884173,285.7775187431756 M835.5147640884173,285.7775187431756 L827.7709704753624,282.5421366611431 M827.7709704753624,282.5421366611431 L820.0212493150625,279.3789463597788 M820.0212493150625,279.3789463597788 L812.2661737737343,276.2875242221149 M812.2661737737343,276.2875242221149 L804.5063391503564,273.26751056164875 M804.5063391503564,273.26751056164875 L796.7422825807707,270.31850261983493 M744.295091720335,407.2952166139795 L889.5003384209549,310.48066556968405 M684.4482237125817,379.70287515611244 L690.5472988785679,382.13661816994 M690.5472988785679,382.13661816994 L696.6243817483128,384.64273249915925 M696.6243817483128,384.64273249915925 L702.6782842668802,387.22124413611607 M702.6782842668802,387.22124413611607 L708.707688956261,389.8721295984251 M708.707688956261,389.8721295984251 L714.711237861124,392.5953328457516 M714.711237861124,392.5953328457516 L720.68770402197,395.39086240319443 M720.68770402197,395.39086240319443 L726.6356797108876,398.2586647900215 M726.6356797108876,398.2586647900215 L732.5538363735111,401.1986934205506 M732.5538363735111,401.1986934205506 L738.4407996551815,404.2109175507967 M738.4407996551815,404.2109175507967 L744.295091720335,407.2952166139795 M684.4482237125817,379.70287515611244 L684.7932567235921,378.11857186574764 M797.1369295250095,268.7999663600693 L684.7932567235921,378.11857186574764 M796.7422825807707,270.31850261983493 L797.1369295250095,268.7999663600693 M684.7932567235921,378.11857186574764 L690.8978946137088,380.55103223843946 M690.8978946137088,380.55103223843946 L696.9805638338958,383.055834003256 M696.9805638338958,383.055834003256 L703.0400761535752,385.63300386150536 M703.0400761535752,385.63300386150536 L709.0751137859282,388.282519086486 M709.0751137859282,388.282519086486 L715.0843184076386,391.00432443074556 M715.0843184076386,391.00432443074556 L721.0664627989154,393.79842919951784 M721.0664627989154,393.79842919951784 L727.0201387892657,396.66478074442637 M727.0201387892657,396.66478074442637 L732.9440174284153,399.60333332870664 M732.9440174284153,399.60333332870664 L738.836723914194,402.614057069502 M738.836723914194,402.614057069502 L744.6967798295254,405.69683232563875 M744.6967798295254,405.69683232563875 L889.979072327174,308.93613662345484 M889.979072327174,308.93613662345484 L882.2880041170833,305.1862911552833 M882.2880041170833,305.1862911552833 L874.5863115230381,301.51150576293117 M874.5863115230381,301.51150576293117 L866.8746962332822,297.91136498524446 M866.8746962332822,297.91136498524446 L859.1539132550413,294.38543682126533 M859.1539132550413,294.38543682126533 L851.4246840536867,290.9333052600267 M851.4246840536867,290.9333052600267 L843.6876285419029,287.55453910711407 M843.6876285419029,287.55453910711407 L835.943440136326,284.24872404849225 M835.943440136326,284.24872404849225 L828.1927297052384,281.0154626828055 M828.1927297052384,281.0154626828055 L820.4361480346822,277.8543592110441 M820.4361480346822,277.8543592110441 L812.6742674705756,274.76498938889324 M812.6742674705756,274.76498938889324 L804.90768253363,271.7469928872313 M804.90768253363,271.7469928872313 L797.1369295250095,268.7999663600693 M889.5003384209549,310.48066556968405 L889.979072327174,308.93613662345484 M744.295091720335,407.2952166139795 L744.6967798295254,405.69683232563875" stroke="black"  stroke-width="4"  fill="red"/>
<path d="M585.1084595460304,189.95318180674207 L590.5507399047738,190.84926351189563 M590.5507399047738,190.84926351189563 L596.0141804753075,191.69475337814708 M596.0141804753075,191.69475337814708 L601.4961448550434,192.48911288196416 M601.4961448550434,192.48911288196416 L606.9939237224033,193.23183636818789 M606.9939237224033,193.23183636818789 L612.5048221833483,193.92242553383738 M612.5048221833483,193.92242553383738 L618.0261514750806,194.560429058389 M618.0261514750806,194.560429058389 L623.5551550574696,195.14543014471383 M623.5551550574696,195.14543014471383 L629.0890534316852,195.67706668091193 M629.0890534316852,195.67706668091193 L634.6251597386671,196.15495309390116 M634.6251597386671,196.15495309390116 L640.1606303585816,196.57880522357897 M640.1606303585816,196.57880522357897 L713.3150598886386,328.9927675227227 M713.3150598886386,328.9927675227227 L704.7919565890659,328.75279030674307 M704.7919565890659,328.75279030674307 L696.2489134984303,328.43543822615106 M696.2489134984303,328.43543822615106 L687.6895680867568,328.04092358550577 M687.6895680867568,328.04092358550577 L679.1174704231189,327.56947281671614 M679.1174704231189,327.56947281671614 L670.5363212441234,327.02139317244684 M670.5363212441234,327.02139317244684 L661.9496864511877,326.3970387649186 M661.9496864511877,326.3970387649186 L653.3612080636115,325.6967683796494 M653.3612080636115,325.6967683796494 L644.7744433139703,324.92102852019275 M644.7744433139703,324.92102852019275 L636.1929882271195,324.07029432878926 M636.1929882271195,324.07029432878926 L627.6204108313569,323.1450773676907 M627.6204108313569,323.1450773676907 L619.0603128699356,322.1459581581412 M619.0603128699356,322.1459581581412 L610.5161655168606,321.07354383853243 M610.5161655168606,321.07354383853243 L585.1084595460304,189.95318180674207 M610.5161655168606,321.07354383853243 L610.7883704710562,319.52251609827937 M610.7883704710562,319.52251609827937 L585.3323004643821,188.49308589139883 M585.1084595460304,189.95318180674207 L585.3323004643821,188.49308589139883 M713.6674583732589,327.4369785984454 L705.1377908014468,327.19714443800916 M705.1377908014468,327.19714443800916 L696.5881480599863,326.8799816551695 M696.5881480599863,326.8799816551695 L688.0221717795498,326.4857025254838 M688.0221717795498,326.4857025254838 L679.4434161241462,326.0145334667248 M679.4434161241462,326.0145334667248 L670.8555860571092,325.466781692096 M670.8555860571092,325.466781692096 L662.2622516076748,324.8428012688224 M662.2622516076748,324.8428012688224 L653.6670589700548,324.1429509566885 M653.6670589700548,324.1429509566885 L645.0735694963229,323.3676772024534 M645.0735694963229,323.3676772024534 L636.4853833499031,322.51745509524187 M636.4853833499031,322.51745509524187 L627.9060726653681,321.59279614254814 M627.9060726653681,321.59279614254814 L619.3392433119332,320.5942807888162 M619.3392433119332,320.5942807888162 L610.7883704710562,319.52251609827937 M640.4230309932099,195.11356703878323 L713.6674583732589,327.4369785984454 M585.3323004643821,188.49308589139883 L590.7784255758453,189.38846872396516 M590.7784255758453,189.38846872396516 L596.2457199567742,190.23330015235683 M596.2457199567742,190.23330015235683 L601.7315447947067,191.02704190124877 M601.7315447947067,191.02704190124877 L607.2331882996564,191.76918854624256 M607.2331882996564,191.76918854624256 L612.7479531044706,192.45924201797072 M612.7479531044706,192.45924201797072 L618.2731479736791,193.0967512020655 M618.2731479736791,193.0967512020655 L623.806013843889,193.68129949026417 M623.806013843889,193.68129949026417 L629.3437686790854,194.21252492709726 M629.3437686790854,194.21252492709726 L634.8837231289306,194.69004212429724 M634.8837231289306,194.69004212429724 L640.4230309932099,195.11356703878323 M713.3150598886386,328.9927675227227 L713.6674583732589,327.4369785984454 M640.1606303585816,196.57880522357897 L640.4230309932099,195.11356703878323" stroke="black"  stroke-width="4"  fill="red"/>
<path d="M683.7884686852093,375.69088877488866 L678.6152027875318,377.4333852819582 M678.6152027875318,377.4333852819582 L673.5018918109789,379.25031729246996 M673.5018918109789,379.25031729246996 L668.4496922121181,381.14174957897956 M668.4496922121181,381.14174957897956 L663.4597570920157,383.10770960763193 M663.4597570920157,383.10770960763193 L658.5331937535843,385.14822330607865 M658.5331937535843,385.14822330607865 L653.6711828517414,387.2633098235998 M653.6711828517414,387.2633098235998 L648.8749298638018,389.4530226481236 M648.8749298638018,389.4530226481236 L644.1456298656324,391.71738430258574 M644.1456298656324,391.71738430258574 L639.4844863452622,394.0564179352025 M639.4844863452622,394.0564179352025 L634.8926886864089,396.4701184677525 M634.8926886864089,396.4701184677525 L440.29691772178603,286.7666236283698 M440.29691772178603,286.7666236283698 L446.1465281491288,283.7603687628312 M446.1465281491288,283.7603687628312 L452.0478297925166,280.826707318141 M452.0478297925166,280.826707318141 L458.0000669012452,277.9652584312747 M458.0000669012452,277.9652584312747 L464.0024440692964,275.17562644911635 M464.0024440692964,275.17562644911635 L470.0542229648605,272.45743967828133 M470.0542229648605,272.45743967828133 L476.1546985298603,269.8103313744202 M476.1546985298603,269.8103313744202 L482.3031382858327,267.23392879804845 M482.3031382858327,267.23392879804845 L488.4988447610391,264.7278799416572 M488.4988447610391,264.7278799416572 L494.7411659572973,262.29184601984787 M494.7411659572973,262.29184601984787 L501.0294404216121,259.925486759371 M501.0294404216121,259.925486759371 L507.3630416718032,257.6284645114696 M507.3630416718032,257.6284645114696 L513.7413195207708,255.40046661004772 M513.7413195207708,255.40046661004772 L683.7884686852093,375.69088877488866 M513.7413195207708,255.40046661004772 L513.9288395168635,253.8921305565193 M513.9288395168635,253.8921305565193 L684.1318218528837,374.1087170646458 M683.7884686852093,375.69088877488866 L684.1318218528837,374.1087170646458 M440.4360426491621,285.23718337212017 L446.2895538027758,282.23289463123996 M446.2895538027758,282.23289463123996 L452.1947802299469,279.3011633997894 M452.1947802299469,279.3011633997894 L458.15096612930836,276.44160821938664 M458.15096612930836,276.44160821938664 L464.1573160277784,273.6538328780638 M464.1573160277784,273.6538328780638 L470.21309158534405,270.9374651339913 M470.21309158534405,270.9374651339913 L476.3175877740207,268.29213771680656 M476.3175877740207,268.29213771680656 L482.47007213765426,265.7174773904268 M482.47007213765426,265.7174773904268 L488.6698472677962,263.2131316617052 M488.6698472677962,263.2131316617052 L494.91626127650954,260.77876127502117 M494.91626127650954,260.77876127502117 L501.20865282572004,258.41402551189884 M501.20865282572004,258.41402551189884 L507.546395584911,256.11858630021766 M507.546395584911,256.11858630021766 L513.9288395168635,253.8921305565193 M635.2025886847441,394.8771379792115 L440.4360426491621,285.23718337212017 M684.1318218528837,374.1087170646458 L678.9549507193108,375.8502851530568 M678.9549507193108,375.8502851530568 L673.8380911118842,377.6662533780983 M673.8380911118842,377.6662533780983 L668.7823998844373,379.5566870168983 M668.7823998844373,379.5566870168983 L663.7890305453737,381.52161408247537 M663.7890305453737,381.52161408247537 L658.8590907919861,383.56106107256596 M658.8590907919861,383.56106107256596 L653.9937617548674,385.67504773246935 M653.9937617548674,385.67504773246935 L649.194249441473,387.8636281507911 M649.194249441473,387.8636281507911 L644.4617494671384,390.12682548981843 M644.4617494671384,390.12682548981843 L639.7974658930183,392.46466355926816 M639.7974658930183,392.46466355926816 L635.2025886847441,394.8771379792115 M440.29691772178603,286.7666236283698 L440.4360426491621,285.23718337212017 M634.8926886864089,396.4701184677525 L635.2025886847441,394.8771379792115" stroke="black"  stroke-width="4"  fill="red"/>
<path d="M517.1861171973867,229.57356335120778 L300.8717422741909,245.35529970991996 M300.8717422741909,245.35529970991996 L299.050011048249,240.95692642697486 M299.050011048249,240.95692642697486 L297.3549565897499,236.5816745972361 M297.3549565897499,236.5816745972361 L295.78544370455774,232.23036128787982 M295.78544370455774,232.23036128787982 L294.34032018322563,227.9037799285706 M294.34032018322563,227.9037799285706 L293.01840986233816,223.6026944032826 M293.01840986233816,223.6026944032826 L291.8185177758167,219.32784504355504 M291.8185177758167,219.32784504355504 L290.7394438292908,215.0799391570314 M290.7394438292908,215.0799391570314 L289.7799655910355,210.85966166835163 M289.7799655910355,210.85966166835163 L288.93884966933706,206.66767115491086 M288.93884966933706,206.66767115491086 L288.2148473812108,202.50460399113882 M288.2148473812108,202.50460399113882 L287.6067077304492,198.3710650456211 M287.6067077304492,198.3710650456211 L287.1131630836015,194.26764274742146 M287.1131630836015,194.26764274742146 L499.22612825860267,199.20446593433354 M499.22612825860267,199.20446593433354 L500.53891836284754,202.20300075681843 M500.53891836284754,202.20300075681843 L501.9581238484708,205.21280295848482 M501.9581238484708,205.21280295848482 L503.48417346202996,208.23288445686688 M503.48417346202996,208.23288445686688 L505.1174766174711,211.26222609314 M505.1174766174711,211.26222609314 L506.858373285119,214.2998008367141 M506.858373285119,214.2998008367141 L508.7071876722076,217.34455341542042 M508.7071876722076,217.34455341542042 L510.6641640705403,220.3954170633824 M510.6641640705403,220.3954170633824 L512.7295311109253,223.45128593762 M512.7295311109253,223.45128593762 L514.9034792875632,226.5110526772367 M514.9034792875632,226.5110526772367 L517.1861171973867,229.57356335120778 M517.1861171973867,229.57356335120778 L517.3715176660575,228.08358482216755 M499.3940190161029,197.73720604446885 L500.7081937446495,200.73344324748268 M500.7081937446495,200.73344324748268 L502.12886326907346,203.7409511964779 M502.12886326907346,203.7409511964779 L503.656457132554,206.75874269132822 M503.656457132554,206.75874269132822 L505.2913855311414,209.78579946353318 M505.2913855311414,209.78579946353318 L507.0339891712989,212.82109536269604 M507.0339891712989,212.82109536269604 L508.884592982389,215.86357600159022 M508.884592982389,215.86357600159022 L510.8434419219333,218.9121754909582 M510.8434419219333,218.9121754909582 L512.9107652680431,221.96578887609212 M512.9107652680431,221.96578887609212 L515.0867541336144,225.0233096676551 M515.0867541336144,225.0233096676551 L517.3715176660575,228.08358482216755 M499.22612825860267,199.20446593433354 L499.3940190161029,197.73720604446885 M287.13766957482903,192.8041916818932 L499.3940190161029,197.73720604446885 M300.90720140592276,243.85399845975638 L299.0840424076618,239.45874759409935 M299.0840424076618,239.45874759409935 L297.38766024978963,235.0866272429555 M297.38766024978963,235.0866272429555 L295.8169177877713,230.7384534785781 M295.8169177877713,230.7384534785781 L294.3706608708756,226.41501873632978 M294.3706608708756,226.41501873632978 L293.04771139939413,222.11708591179115 M293.04771139939413,222.11708591179115 L291.8468724805762,217.84539435067416 M291.8468724805762,217.84539435067416 L290.7669421128978,213.6006503853651 M290.7669421128978,213.6006503853651 L289.80669596608243,209.38353796899332 M289.80669596608243,209.38353796899332 L288.9648987668266,205.19471471507524 M288.9648987668266,205.19471471507524 L288.24029996521574,201.03481603960995 M288.24029996521574,201.03481603960995 L287.631646721837,196.90444586621766 M287.631646721837,196.90444586621766 L287.13766957482903,192.8041916818932 M517.3715176660575,228.08358482216755 L300.90720140592276,243.85399845975638 M287.1131630836015,194.26764274742146 L287.13766957482903,192.8041916818932 M300.8717422741909,245.35529970991996 L300.90720140592276,243.85399845975638" stroke="black"  stroke-width="4"  fill="red"/>
<path d="M759.4935610655382,433.05274059758983 L551.7133050352153,523.881636447426 M551.7133050352153,523.881636447426 L545.2606045374491,517.7550804191313 M545.2606045374491,517.7550804191313 L538.9792411067498,511.6309739360415 M538.9792411067498,511.6309739360415 L532.868940107448,505.51132288190104 M532.868940107448,505.51132288190104 L526.9293612570227,499.3980769631429 M526.9293612570227,499.3980769631429 L521.1601461797942,493.2931959679628 M521.1601461797942,493.2931959679628 L515.5607700093249,487.1985168682636 M515.5607700093249,487.1985168682636 L510.13068109018286,481.1158489504953 M510.13068109018286,481.1158489504953 L504.86921402439066,475.04694652953447 M504.86921402439066,475.04694652953447 L499.77572320194224,468.9935518888203 M499.77572320194224,468.9935518888203 L494.8494339569702,462.95732078493825 M494.8494339569702,462.95732078493825 L490.0894883629072,456.93984026933356 M490.0894883629072,456.93984026933356 L485.49499374375966,450.94268927859855 M485.49499374375966,450.94268927859855 L712.9712592719219,394.3176376595634 M712.9712592719219,394.3176376595634 L717.074540932724,398.2442267269787 M717.074540932724,398.2442267269787 L721.3017636356205,402.1637427160333 M721.3017636356205,402.1637427160333 L725.6523398099873,406.07447366978397 M725.6523398099873,406.07447366978397 L730.1255675371017,409.97462667061836 M730.1255675371017,409.97462667061836 L734.7207561395626,413.86247162595384 M734.7207561395626,413.86247162595384 L739.4370547215938,417.73618384236715 M739.4370547215938,417.73618384236715 L744.2735315833844,421.59392560082233 M744.2735315833844,421.59392560082233 L749.2291724040682,425.43384708851204 M749.2291724040682,425.43384708851204 L754.3029317609854,429.2540923495487 M754.3029317609854,429.2540923495487 L759.4935610655382,433.05274059758983 M759.4935610655382,433.05274059758983 L759.9163289886494,431.4421239186207 M713.3434702477724,392.72575021586067 L717.4512728521757,396.65034995835504 M717.4512728521757,396.65034995835504 L721.6831361436246,400.56790062140044 M721.6831361436246,400.56790062140044 L726.038472442568,404.4766909828527 M726.038472442568,404.4766909828527 L730.5165795723408,408.3749288641567 M730.5165795723408,408.3749288641567 L735.116766593511,412.2608848446845 M735.116766593511,412.2608848446845 L739.8381821520518,416.1327349130239 M739.8381821520518,416.1327349130239 L744.6798939809089,419.9886420015007 M744.6798939809089,419.9886420015007 L749.640887079162,423.8267569176138 M749.640887079162,423.8267569176138 L754.7201152733433,427.64522429207796 M754.7201152733433,427.64522429207796 L759.9163289886494,431.4421239186207 M712.9712592719219,394.3176376595634 L713.3434702477724,392.72575021586067 M485.6929042633376,449.3240949690022 L713.3434702477724,392.72575021586067 M551.9816186891079,522.2349152494155 L545.5219673854072,516.110449968713 M545.5219673854072,516.110449968713 L539.233857498002,509.9884832144294 M539.233857498002,509.9884832144294 L533.117012402054,503.87102008462955 M533.117012402054,503.87102008462955 L527.1710897325999,497.76000945569274 M527.1710897325999,497.76000945569274 L521.3957289962558,491.65741021877704 M521.3957289962558,491.65741021877704 L515.7904030239501,485.5650584328358 M515.7904030239501,485.5650584328358 L510.3545578174103,479.4847624231825 M510.3545578174103,479.4847624231825 L505.0875255193862,473.41827550772814 M505.0875255193862,473.41827550772814 L499.98865807061713,467.36733892203154 M499.98865807061713,467.36733892203154 L495.05717822897907,461.3336073558522 M495.05717822897907,461.3336073558522 L490.2922254120823,455.3186667711095 M490.2922254120823,455.3186667711095 L485.6929042633376,449.3240949690022 M759.9163289886494,431.4421239186207 L551.9816186891079,522.2349152494155 M485.49499374375966,450.94268927859855 L485.6929042633376,449.3240949690022 M551.7133050352153,523.881636447426 L551.9816186891079,522.2349152494155" stroke="black"  stroke-width="4"  fill="red"/>
<path d="M299.5625618268272,602.992761312336 L292.3117800887606,601.094230016858 M292.3117800887606,601.094230016858 L285.0387509259307,599.3028335252616 M285.0387509259307,599.3028335252616 L277.7444284136605,597.6184189187646 M277.7444284136605,597.6184189187646 L270.42983815779905,596.040800799496 M270.42983815779905,596.040800799496 L263.095947227736,594.5698131286734 M263.095947227736,594.5698131286734 L255.74359947144188,593.2053095436042 M255.74359947144188,593.2053095436042 L248.37374923842287,591.94713830822 M248.37374923842287,591.94713830822 L240.9873304414137,590.7951428171474 M240.9873304414137,590.7951428171474 L233.58529075702467,589.7492378644043 M233.58529075702467,589.7492378644043 L226.1684946180476,588.8092832933985 M226.1684946180476,588.8092832933985 L272.66600627110967,398.88028871187555 M272.66600627110967,398.88028871187555 L281.51162689008663,399.8777772416497 M281.51162689008663,399.8777772416497 L290.35129679098026,400.96318205625244 M290.35129679098026,400.96318205625244 L299.1849422632558,402.1367271266703 M299.1849422632558,402.1367271266703 L308.0124719014277,403.398659497223 M308.0124719014277,403.398659497223 L316.8338185172241,404.7492397823986 M316.8338185172241,404.7492397823986 L325.6488969940813,406.1887707653524 M325.6488969940813,406.1887707653524 L334.45760038337835,407.7175401839735 M334.45760038337835,407.7175401839735 L343.25982954884466,409.33585871900925 M343.25982954884466,409.33585871900925 L352.0554958257908,411.04409854562095 M352.0554958257908,411.04409854562095 L360.8444622310121,412.8425924799867 M360.8444622310121,412.8425924799867 L369.62662109424764,414.7317203242163 M369.62662109424764,414.7317203242163 L378.40183454900216,416.7118898133499 M378.40183454900216,416.7118898133499 L299.5625618268272,602.992761312336 M378.40183454900216,416.7118898133499 L378.50658669658674,415.10893133896343 M378.50658669658674,415.10893133896343 L299.6087243868837,601.3235205397926 M299.5625618268272,602.992761312336 L299.6087243868837,601.3235205397926 M272.683795984282,397.28609162222597 L281.53658546691446,398.2830788981652 M281.53658546691446,398.2830788981652 L290.3834334649843,399.3679397804392 M290.3834334649843,399.3679397804392 L299.22426775239313,400.5408985083999 M299.22426775239313,400.5408985083999 L308.05899839755233,401.8022024155497 M308.05899839755233,401.8022024155497 L316.8875597097082,403.1521124315551 M316.8875597097082,403.1521124315551 L325.70986806105,404.5909316670517 M325.70986806105,404.5909316670517 L334.5258179776725,406.1189482285657 M334.5258179776725,406.1189482285657 L343.3353118098663,407.73647318824703 M343.3353118098663,407.73647318824703 L352.13826239675615,409.44387911725096 M352.13826239675615,409.44387911725096 L360.93453422255106,411.2414992823245 M360.93453422255106,411.2414992823245 L369.7240211168639,413.129713949043 M369.7240211168639,413.129713949043 L378.50658669658674,415.10893133896343 M226.14561682213906,587.1434683987862 L272.683795984282,397.28609162222597 M299.6087243868837,601.3235205397926 L292.35104658155643,599.4254323261757 M292.35104658155643,599.4254323261757 L285.0711211654898,597.6344583031087 M285.0711211654898,597.6344583031087 L277.76990163347074,595.9504448236273 M277.76990163347074,595.9504448236273 L270.44841306704603,594.3732058165413 M270.44841306704603,594.3732058165413 L263.1076219470746,592.9025746120967 M263.1076219470746,592.9025746120967 L255.748371408681,591.5384042584616 M255.748371408681,591.5384042584616 L248.37161518386438,590.2805424780418 M248.37161518386438,590.2805424780418 L240.97828654098885,589.1288321712608 M240.97828654098885,589.1288321712608 L233.56933251742475,588.0831876660295 M233.56933251742475,588.0831876660295 L226.14561682213906,587.1434683987862 M272.66600627110967,398.88028871187555 L272.683795984282,397.28609162222597 M226.1684946180476,588.8092832933985 L226.14561682213906,587.1434683987862" stroke="black"  stroke-width="4"  fill="red"/>
<path d="M126.61881960550181,182.65212363678165 L131.48666823801221,181.2613624197466 M131.48666823801221,181.2613624197466 L136.29843711108708,179.82788077902933 M136.29843711108708,179.82788077902933 L141.0520672630775,178.35254703387926 M141.0520672630775,178.35254703387926 L145.74555195103483,176.83624947032985 M145.74555195103483,176.83624947032985 L150.37694926667416,175.27990125979898 M150.37694926667416,175.27990125979898 L154.9443405667501,173.68441336517054 M154.9443405667501,173.68441336517054 L159.4459057004854,172.05073895438204 M159.4459057004854,172.05073895438204 L163.87983777184365,170.37982090170846 M163.87983777184365,170.37982090170846 L168.24440886852437,168.67262898018726 M168.24440886852437,168.67262898018726 L172.53796379762986,166.93015027581265 M172.53796379762986,166.93015027581265 L313.579941188043,256.00252351734605 M313.579941188043,256.00252351734605 L307.63799325531016,258.93767820235183 M307.63799325531016,258.93767820235183 L301.5870592482815,261.83549615019973 M301.5870592482815,261.83549615019973 L295.4284981770838,264.6946084179838 M295.4284981770838,264.6946084179838 L289.1637305676207,267.51364392980014 M289.1637305676207,267.51364392980014 L282.7942677832125,270.29124004729204 M282.7942677832125,270.29124004729204 L276.32168668890273,273.0260324227447 M276.32168668890273,273.0260324227447 L269.7476547364846,275.7166681872732 M269.7476547364846,275.7166681872732 L263.0739090752009,278.3618006751036 M263.0739090752009,278.3618006751036 L256.3022701651692,280.9600863968004 M256.3022701651692,280.9600863968004 L249.43462955515884,283.5102013752147 M249.43462955515884,283.5102013752147 L242.47296664208613,286.01082464263516 M242.47296664208613,286.01082464263516 L235.41933413812234,288.46065200087435 M235.41933413812234,288.46065200087435 L126.61881960550181,182.65212363678165 M235.41933413812234,288.46065200087435 L235.40814175510343,286.9301091156311 M235.40814175510343,286.9301091156311 L126.53640948776683,181.19776168074964 M126.61881960550181,182.65212363678165 L126.53640948776683,181.19776168074964 M313.62481869730306,254.49377008722502 L307.67874434719363,257.42689686349036 M307.67874434719363,257.42689686349036 L301.6235813271819,260.3227239166335 M301.6235813271819,260.3227239166335 L295.4606894043122,263.17988280565555 M295.4606894043122,263.17988280565555 L289.19148995491906,265.99700294304586 M289.19148995491906,265.99700294304586 L282.81749530891466,268.77272215888104 M282.81749530891466,268.77272215888104 L276.3402833967868,271.50567656161576 M276.3402833967868,271.50567656161576 L269.76152285415424,274.19451371820855 M269.76152285415424,274.19451371820855 L263.08295211822934,276.83788738289144 M263.08295211822934,276.83788738289144 L256.3063930520368,279.4344544733063 M256.3063930520368,279.4344544733063 L249.43373871422347,281.98289139660966 M249.43373871422347,281.98289139660966 L242.46697013136088,284.4818775585722 M242.46697013136088,284.4818775585722 L235.40814175510343,286.9301091156311 M172.48687925788545,165.48837591867186 L313.62481869730306,254.49377008722502 M126.53640948776683,181.19776168074964 L131.40760253591043,179.80810073341968 M131.40760253591043,179.80810073341968 L136.22267291632642,178.37575584617224 M136.22267291632642,178.37575584617224 L140.97955999246375,176.90159489096027 M140.97955999246375,176.90159489096027 L145.6762554082734,175.38650569085848 M145.6762554082734,175.38650569085848 L150.3108157124276,173.83140093404472 M150.3108157124276,173.83140093404472 L154.88132076325917,172.23719110087296 M154.88132076325917,172.23719110087296 L159.3859490029206,170.6048288412843 M159.3859490029206,170.6048288412843 L163.82289216691942,168.93525651749428 M163.82289216691942,168.93525651749428 L168.19042105394738,167.22944336597908 M168.19042105394738,167.22944336597908 L172.48687925788545,165.48837591867186 M313.579941188043,256.00252351734605 L313.62481869730306,254.49377008722502 M172.53796379762986,166.93015027581265 L172.48687925788545,165.48837591867186" stroke="black"  stroke-width="4"  fill="red"/>
<path d="M363.2810589585413,299.1362959874876 L362.1960465143626,302.66780812178774 M362.1960465143626,302.66780812178774 L361.2135675453483,306.2373798978942 M361.2135675453483,306.2373798978942 L360.3348971006542,309.84429971763143 M360.3348971006542,309.84429971763143 L359.5613184035698,313.487838672587 M359.5613184035698,313.487838672587 L358.89406395509076,317.16721800146274 M358.89406395509076,317.16721800146274 L358.33442092779967,320.8816687371172 M358.33442092779967,320.8816687371172 L357.8835822088286,324.63034426901373 M357.8835822088286,324.63034426901373 L357.5428019301903,328.41241790005745 M357.5428019301903,328.41241790005745 L357.31327660439666,332.22700097139403 M357.31327660439666,332.22700097139403 L357.1961868249229,336.07318379930666 M357.1961868249229,336.07318379930666 L116.24303634262333,344.3573831685466 M116.24303634262333,344.3573831685466 L117.06745158450877,338.98921250904755 M117.06745158450877,338.98921250904755 L118.00905599998976,333.67285323010225 M118.00905599998976,333.67285323010225 L119.06602824369475,328.40871344571525 M119.06602824369475,328.40871344571525 L120.23660428711304,323.1971498782223 M120.23660428711304,323.1971498782223 L121.51898626125336,318.03851606454356 M121.51898626125336,318.03851606454356 L122.91140495003282,312.9331323143842 M122.91140495003282,312.9331323143842 L124.41211797652096,307.88128578239247 M124.41211797652096,307.88128578239247 L126.01939603693415,302.8832399616734 M126.01939603693415,302.8832399616734 L127.73148922594578,297.9392560565834 M127.73148922594578,297.9392560565834 L129.5467203352465,293.0495429077659 M129.5467203352465,293.0495429077659 L131.46339363860596,288.2143015472369 M131.46339363860596,288.2143015472369 L133.47983278617994,283.43371598699633 M133.47983278617994,283.43371598699633 L363.2810589585413,299.1362959874876 M133.47983278617994,283.43371598699633 L133.3941333124988,281.90645621258966 M133.3941333124988,281.90645621258966 L363.3646102656686,297.598892060444 M363.2810589585413,299.1362959874876 L363.3646102656686,297.598892060444 M116.13928732585521,342.7925942132651 L116.96481556780435,337.42753241231395 M116.96481556780435,337.42753241231395 L117.9076121494607,332.1142896908507 M117.9076121494607,332.1142896908507 L118.96585315832999,326.8532728219359 M118.96585315832999,326.8532728219359 L120.13777209741,321.6448372174038 M120.13777209741,321.6448372174038 L121.42156865341576,316.48933510672697 M121.42156865341576,316.48933510672697 L122.81547123985877,311.3870855141201 M122.81547123985877,311.3870855141201 L124.31773518090665,306.33837433201575 M124.31773518090665,306.33837433201575 L125.92662893332545,301.34346380991735 M125.92662893332545,301.34346380991735 L127.6404003843216,296.40261391455675 M127.6404003843216,296.40261391455675 L129.4573702228525,291.51603228742357 M129.4573702228525,291.51603228742357 L131.3758406522025,286.6839187727548 M131.3758406522025,286.6839187727548 L133.3941333124988,281.90645621258966 M357.2778398623128,334.51320849162795 L116.13928732585521,342.7925942132651 M363.3646102656686,297.598892060444 L362.2790547389322,301.12816785694855 M362.2790547389322,301.12816785694855 L361.29610693572397,304.6954960179821 M361.29610693572397,304.6954960179821 L360.41704346349763,308.30016592869646 M360.41704346349763,308.30016592869646 L359.64314913811893,311.9414496666841 M359.64314913811893,311.9414496666841 L358.97565804065704,315.6185694784624 M358.97565804065704,315.6185694784624 L358.41585899450746,319.3307573887462 M358.41585899450746,319.3307573887462 L357.96494648950073,323.0771678153889 M357.96494648950073,323.0771678153889 L357.62417633621425,326.85697506570085 M357.62417633621425,326.85697506570085 L357.3947467054106,330.669291509815 M357.3947467054106,330.669291509815 L357.2778398623128,334.51320849162795 M116.24303634262333,344.3573831685466 L116.13928732585521,342.7925942132651 M357.1961868249229,336.07318379930666 L357.2778398623128,334.51320849162795" stroke="black"  stroke-width="4"  fill="red"/>
<path d="M351.091672327392,148.15319629563533 L555.8396943922953,158.28148503132758 M555.8396943922953,158.28148503132758 L555.4836268850358,162.01517197605347 M555.4836268850358,162.01517197605347 L555.0166671877137,165.765068364027 M555.0166671877137,165.765068364027 L554.4376853700493,169.530359732512 M554.4376853700493,169.530359732512 L553.7455206390737,173.31025796975774 M553.7455206390737,173.31025796975774 L552.9390716852307,177.1039144233211 M552.9390716852307,177.1039144233211 L552.0171950077535,180.91050079373179 M552.0171950077535,180.91050079373179 L550.9788498534939,184.72912390190072 M550.9788498534939,184.72912390190072 L549.8229681813841,188.5588722044144 M549.8229681813841,188.5588722044144 L548.5485004688695,192.39884823803777 M548.5485004688695,192.39884823803777 L547.1544546818187,196.24807465823136 M547.1544546818187,196.24807465823136 L545.6398509062004,200.10559426581364 M545.6398509062004,200.10559426581364 L544.0037203529558,203.97040152648856 M544.0037203529558,203.97040152648856 L334.2190477187451,174.00238704754003 M334.2190477187451,174.00238704754003 L336.35851831450725,171.44770962197902 M336.35851831450725,171.44770962197902 L338.3973982313762,168.88339235946603 M338.3973982313762,168.88339235946603 L340.3356397298521,166.31055046584623 M340.3356397298521,166.31055046584623 L342.1732291043244,163.73029817376442 M342.1732291043244,163.73029817376442 L343.91023860347417,161.1437168710778 M343.91023860347417,161.1437168710778 L345.54675902518704,158.55189190367838 M345.54675902518704,158.55189190367838 L347.0829376057016,155.95588548276697 M347.0829376057016,155.95588548276697 L348.5189883420934,153.35674280499381 M348.5189883420934,153.35674280499381 L349.8551321554621,150.75550847585453 M349.8551321554621,150.75550847585453 L351.091672327392,148.15319629563533 M351.091672327392,148.15319629563533 L351.15610319724993,146.726885304951 M334.27409037904295,172.55490980169742 L336.41482467879223,170.002284751106 M336.41482467879223,170.002284751106 L338.45489455949286,167.44003631831174 M338.45489455949286,167.44003631831174 L340.3942527920004,164.86927890210416 M340.3942527920004,164.86927890210416 L342.23288621282256,162.2911259139501 M342.23288621282256,162.2911259139501 L343.9708676752597,159.70665793240062 M343.9708676752597,159.70665793240062 L345.6082886012688,157.1169594761173 M345.6082886012688,157.1169594761173 L347.1452968925125,154.52309193336475 M347.1452968925125,154.52309193336475 L348.5821072585742,151.926099677408 M348.5821072585742,151.926099677408 L349.9189413413754,149.3270264764784 M349.9189413413754,149.3270264764784 L351.15610319724993,146.726885304951 M334.2190477187451,174.00238704754003 L334.27409037904295,172.55490980169742 M544.2027837517818,202.49949534060414 L334.27409037904295,172.55490980169742 M556.0375234452465,156.8467749776836 L555.6819814417704,160.57740003841513 M555.6819814417704,160.57740003841513 L555.2154763305277,164.32423987028625 M555.2154763305277,164.32423987028625 L554.6368764318815,168.08648091047172 M554.6368764318815,168.08648091047172 L553.9450191714582,171.86333591068444 M553.9450191714582,171.86333591068444 L553.1388014685265,175.6539571153005 M553.1388014685265,175.6539571153005 L552.2170780115615,179.4575170892375 M552.2170780115615,179.4575170892375 L551.1788062765081,183.27312355284312 M551.1788062765081,183.27312355284312 L550.0229164156804,187.09986585901203 M550.0229164156804,187.09986585901203 L548.7483571016922,190.93684741186433 M548.7483571016922,190.93684741186433 L547.3541345059101,194.78309177804647 M547.3541345059101,194.78309177804647 L545.8392669208478,198.63764263450713 M545.8392669208478,198.63764263450713 L544.2027837517818,202.49949534060414 M351.15610319724993,146.726885304951 L556.0375234452465,156.8467749776836 M544.0037203529558,203.97040152648856 L544.2027837517818,202.49949534060414 M555.8396943922953,158.28148503132758 L556.0375234452465,156.8467749776836" stroke="black"  stroke-width="4"  fill="red"/>
<path d="M313.67283056655543,636.9150980329966 L500.9770526655583,483.697496089458 M500.9770526655583,483.697496089458 L507.6719729508976,489.0493558328611 M507.6719729508976,489.0493558328611 L514.3227972835534,494.5037656216898 M514.3227972835534,494.5037656216898 L520.9284428101247,500.0615989318852 M520.9284428101247,500.0615989318852 L527.4877413555502,505.7236738413982 M527.4877413555502,505.7236738413982 L533.9996253423336,511.49090739319286 M533.9996253423336,511.49090739319286 L540.4628579304122,517.3641767480575 M540.4628579304122,517.3641767480575 L546.8761969068089,523.3443335482892 M546.8761969068089,523.3443335482892 L553.2384444608861,529.4323232337016 M553.2384444608861,529.4323232337016 L559.5482602613721,535.6290188002552 M559.5482602613721,535.6290188002552 L565.8043231631183,541.935351938326 M565.8043231631183,541.935351938326 L572.005283712227,548.3522432128714 M572.005283712227,548.3522432128714 L578.1497363057339,554.8806244108121 M578.1497363057339,554.8806244108121 L353.39983120118853,696.8513319262084 M353.39983120118853,696.8513319262084 L349.92627115277435,690.3879745709565 M349.92627115277435,690.3879745709565 L346.3354492006244,684.0281159343006 M346.3354492006244,684.0281159343006 L342.6297972307774,677.7721491677218 M342.6297972307774,677.7721491677218 L338.81166099885036,671.6204429916116 M338.81166099885036,671.6204429916116 L334.88354331750793,665.5733158478429 M334.88354331750793,665.5733158478429 L330.8476869397583,659.6310948911705 M330.8476869397583,659.6310948911705 L326.706448898025,653.7939235533706 M326.706448898025,653.7939235533706 L322.46207630155726,648.0621264454351 M322.46207630155726,648.0621264454351 L318.11678915228697,642.4357956672036 M318.11678915228697,642.4357956672036 L313.67283056655543,636.9150980329966 M313.67283056655543,636.9150980329966 L313.73373223698877,635.2387474331838 M353.50321936624135,695.1661555879194 L350.0257374083348,688.7035204116817 M350.0257374083348,688.7035204116817 L346.4309130092751,682.344426561119 M346.4309130092751,682.344426561119 L342.72118124114814,676.089264511472 M342.72118124114814,676.089264511472 L338.89889086675,669.9384003402398 M338.89889086675,669.9384003402398 L334.9665477686947,663.8921498851234 M334.9665477686947,663.8921498851234 L330.92639742539177,657.950837728667 M330.92639742539177,657.950837728667 L326.7807996127837,652.1146047941821 M326.7807996127837,652.1146047941821 L322.532004002606,646.3837731925348 M322.532004002606,646.3837731925348 L318.1822330410098,640.7584325995559 M318.1822330410098,640.7584325995559 L313.73373223698877,635.2387474331838 M353.39983120118853,696.8513319262084 L353.50321936624135,695.1661555879194 M578.4483604549498,553.2240887068878 L353.50321936624135,695.1661555879194 M501.19346130459166,482.0653968596181 L507.8950838904997,487.4151854208801 M507.8950838904997,487.4151854208801 L514.552637711413,492.8675234763575 M514.552637711413,492.8675234763575 L521.1650400044588,498.423286408639 M521.1650400044588,498.423286408639 L527.7311225808435,504.0832942905505 M527.7311225808435,504.0832942905505 L534.2498179344732,509.848466192654 M534.2498179344732,509.848466192654 L540.7198891187558,515.7196813890788 M540.7198891187558,515.7196813890788 L547.1400937798297,521.6977937160585 M547.1400937798297,521.6977937160585 L553.5092339985547,527.783750848797 M553.5092339985547,527.783750848797 L559.8259691670582,533.9784281186393 M559.8259691670582,533.9784281186393 L566.0889778633463,540.2827596085931 M566.0889778633463,540.2827596085931 L572.296910298751,546.6976683585405 M572.296910298751,546.6976683585405 L578.4483604549498,553.2240887068878 M313.73373223698877,635.2387474331838 L501.19346130459166,482.0653968596181 M578.1497363057339,554.8806244108121 L578.4483604549498,553.2240887068878 M500.9770526655583,483.697496089458 L501.19346130459166,482.0653968596181" stroke="black"  stroke-width="4"  fill="red"/></svg>